# Tiled2Unity generated file. Do not modify by hand.
# Wavefront file for 'principals-office_mesh_0006.obj'

# Vertices (Count = 16)
v -6.787879 -1.939394 0
v -7.757576 -1.939394 0
v -7.757576 -0.969697 0
v -6.787879 -0.969697 0
v -6.787879 -2.909091 0
v -7.757576 -2.909091 0
v -7.757576 -1.939394 0
v -6.787879 -1.939394 0
v -12.60606 -6.787879 0
v -13.57576 -6.787879 0
v -13.57576 -5.818182 0
v -12.60606 -5.818182 0
v -12.60606 -7.757576 0
v -13.57576 -7.757576 0
v -13.57576 -6.787879 0
v -12.60606 -6.787879 0

# Texture cooridinates (Count = 11)
vt 0.6 0.75
vt 0.8 0.75
vt 0.8 1
vt 0.6 1
vt 0.6 0.5
vt 0.8 0.5
vt 0.8 0.25
vt 1 0.25
vt 1 0.5
vt 0.8 0
vt 1 0

# Normal
vn 0 0 -1

# Mesh description
g principals-office_mesh_0006

# Faces
f 1/1/1 2/2/1 3/3/1 4/4/1
f 5/5/1 6/6/1 7/2/1 8/1/1
f 9/7/1 10/8/1 11/9/1 12/6/1
f 13/10/1 14/11/1 15/8/1 16/7/1

