# Tiled2Unity generated file. Do not modify by hand.
# Wavefront file for 'principals-office_mesh_0005.obj'

# Vertices (Count = 8)
v -12.60606 -7.757576 0
v -13.57576 -7.757576 0
v -13.57576 -6.787879 0
v -12.60606 -6.787879 0
v -12.60606 -8.727273 0
v -13.57576 -8.727273 0
v -13.57576 -7.757576 0
v -12.60606 -7.757576 0

# Texture cooridinates (Count = 6)
vt 0.8 0.25
vt 1 0.25
vt 1 0.5
vt 0.8 0.5
vt 0.8 0
vt 1 0

# Normal
vn 0 0 -1

# Mesh description
g principals-office_mesh_0005

# Faces
f 1/1/1 2/2/1 3/3/1 4/4/1
f 5/5/1 6/6/1 7/2/1 8/1/1

