# Tiled2Unity generated file. Do not modify by hand.
# Wavefront file for 'principals-office_mesh_0004.obj'

# Vertices (Count = 56)
v -4.848485 -0.969697 0
v -5.818182 -0.969697 0
v -5.818182 0 0
v -4.848485 0 0
v -6.787879 -0.969697 0
v -7.757576 -0.969697 0
v -7.757576 0 0
v -6.787879 0 0
v -7.757576 -0.969697 0
v -8.727273 -0.969697 0
v -8.727273 0 0
v -7.757576 0 0
v -8.727273 -0.969697 0
v -9.69697 -0.969697 0
v -9.69697 0 0
v -8.727273 0 0
v -4.848485 -1.939394 0
v -5.818182 -1.939394 0
v -5.818182 -0.969697 0
v -4.848485 -0.969697 0
v -5.818182 -1.939394 0
v -6.787879 -1.939394 0
v -6.787879 -0.969697 0
v -5.818182 -0.969697 0
v -6.787879 -1.939394 0
v -7.757576 -1.939394 0
v -7.757576 -0.969697 0
v -6.787879 -0.969697 0
v -7.757576 -1.939394 0
v -8.727273 -1.939394 0
v -8.727273 -0.969697 0
v -7.757576 -0.969697 0
v -8.727273 -1.939394 0
v -9.69697 -1.939394 0
v -9.69697 -0.969697 0
v -8.727273 -0.969697 0
v -4.848485 -2.909091 0
v -5.818182 -2.909091 0
v -5.818182 -1.939394 0
v -4.848485 -1.939394 0
v -5.818182 -2.909091 0
v -6.787879 -2.909091 0
v -6.787879 -1.939394 0
v -5.818182 -1.939394 0
v -6.787879 -2.909091 0
v -7.757576 -2.909091 0
v -7.757576 -1.939394 0
v -6.787879 -1.939394 0
v -7.757576 -2.909091 0
v -8.727273 -2.909091 0
v -8.727273 -1.939394 0
v -7.757576 -1.939394 0
v -8.727273 -2.909091 0
v -9.69697 -2.909091 0
v -9.69697 -1.939394 0
v -8.727273 -1.939394 0

# Texture cooridinates (Count = 19)
vt 0.3333333 0.9230769
vt 0.5 0.9230769
vt 0.5 1
vt 0.3333333 1
vt 0.1666667 0.9230769
vt 0.1666667 1
vt 0.3333333 0.8461539
vt 0.5 0.8461539
vt 0 0.6923077
vt 0.1666667 0.6923077
vt 0.1666667 0.7692308
vt 0 0.7692308
vt 0.1666667 0.8461539
vt 0.3333333 0.7692308
vt 0.5 0.7692308
vt 0 0.5384616
vt 0.1666667 0.5384616
vt 0.1666667 0.6153846
vt 0 0.6153846

# Normal
vn 0 0 -1

# Mesh description
g principals-office_mesh_0004

# Faces
f 1/1/1 2/2/1 3/3/1 4/4/1
f 5/5/1 6/1/1 7/4/1 8/6/1
f 9/5/1 10/1/1 11/4/1 12/6/1
f 13/1/1 14/2/1 15/3/1 16/4/1
f 17/7/1 18/8/1 19/2/1 20/1/1
f 21/9/1 22/10/1 23/11/1 24/12/1
f 25/13/1 26/7/1 27/1/1 28/5/1
f 29/13/1 30/7/1 31/1/1 32/5/1
f 33/7/1 34/8/1 35/2/1 36/1/1
f 37/14/1 38/15/1 39/8/1 40/7/1
f 41/16/1 42/17/1 43/18/1 44/19/1
f 45/11/1 46/14/1 47/7/1 48/13/1
f 49/11/1 50/14/1 51/7/1 52/13/1
f 53/14/1 54/15/1 55/8/1 56/7/1

