# Tiled2Unity generated file. Do not modify by hand.
# Wavefront file for 'principals-office_mesh_0008.obj'

# Vertices (Count = 24)
v -10.66667 -1.939394 0
v -11.63636 -1.939394 0
v -11.63636 -0.969697 0
v -10.66667 -0.969697 0
v -11.63636 -1.939394 0
v -12.60606 -1.939394 0
v -12.60606 -0.969697 0
v -11.63636 -0.969697 0
v -12.60606 -1.939394 0
v -13.57576 -1.939394 0
v -13.57576 -0.969697 0
v -12.60606 -0.969697 0
v -10.66667 -2.909091 0
v -11.63636 -2.909091 0
v -11.63636 -1.939394 0
v -10.66667 -1.939394 0
v -11.63636 -2.909091 0
v -12.60606 -2.909091 0
v -12.60606 -1.939394 0
v -11.63636 -1.939394 0
v -12.60606 -2.909091 0
v -13.57576 -2.909091 0
v -13.57576 -1.939394 0
v -12.60606 -1.939394 0

# Texture cooridinates (Count = 12)
vt 0 0.5
vt 0.3333333 0.5
vt 0.3333333 1
vt 0 1
vt 0.6666667 0.5
vt 0.6666667 1
vt 1 0.5
vt 1 1
vt 0 0
vt 0.3333333 0
vt 0.6666667 0
vt 1 0

# Normal
vn 0 0 -1

# Mesh description
g principals-office_mesh_0008

# Faces
f 1/1/1 2/2/1 3/3/1 4/4/1
f 5/2/1 6/5/1 7/6/1 8/3/1
f 9/5/1 10/7/1 11/8/1 12/6/1
f 13/9/1 14/10/1 15/2/1 16/1/1
f 17/10/1 18/11/1 19/5/1 20/2/1
f 21/11/1 22/12/1 23/7/1 24/5/1

