# Tiled2Unity generated file. Do not modify by hand.
# Wavefront file for 'greenhouse_mesh_0005.obj'

# Vertices (Count = 212)
v -160 -128 0
v -192 -128 0
v -192 -96 0
v -160 -96 0
v -192 -128 0
v -224 -128 0
v -224 -96 0
v -192 -96 0
v -224 -128 0
v -256 -128 0
v -256 -96 0
v -224 -96 0
v -256 -128 0
v -288 -128 0
v -288 -96 0
v -256 -96 0
v -288 -128 0
v -320 -128 0
v -320 -96 0
v -288 -96 0
v -448 -128 0
v -480 -128 0
v -480 -96 0
v -448 -96 0
v -480 -128 0
v -512 -128 0
v -512 -96 0
v -480 -96 0
v -512 -128 0
v -544 -128 0
v -544 -96 0
v -512 -96 0
v -544 -128 0
v -576 -128 0
v -576 -96 0
v -544 -96 0
v -576 -128 0
v -608 -128 0
v -608 -96 0
v -576 -96 0
v -608 -128 0
v -640 -128 0
v -640 -96 0
v -608 -96 0
v -160 -160 0
v -192 -160 0
v -192 -128 0
v -160 -128 0
v -192 -160 0
v -224 -160 0
v -224 -128 0
v -192 -128 0
v -224 -160 0
v -256 -160 0
v -256 -128 0
v -224 -128 0
v -256 -160 0
v -288 -160 0
v -288 -128 0
v -256 -128 0
v -288 -160 0
v -320 -160 0
v -320 -128 0
v -288 -128 0
v -448 -160 0
v -480 -160 0
v -480 -128 0
v -448 -128 0
v -480 -160 0
v -512 -160 0
v -512 -128 0
v -480 -128 0
v -512 -160 0
v -544 -160 0
v -544 -128 0
v -512 -128 0
v -544 -160 0
v -576 -160 0
v -576 -128 0
v -544 -128 0
v -576 -160 0
v -608 -160 0
v -608 -128 0
v -576 -128 0
v -608 -160 0
v -640 -160 0
v -640 -128 0
v -608 -128 0
v -160 -256 0
v -192 -256 0
v -192 -224 0
v -160 -224 0
v -192 -256 0
v -224 -256 0
v -224 -224 0
v -192 -224 0
v -288 -256 0
v -320 -256 0
v -320 -224 0
v -288 -224 0
v -320 -256 0
v -352 -256 0
v -352 -224 0
v -320 -224 0
v -352 -256 0
v -384 -256 0
v -384 -224 0
v -352 -224 0
v -384 -256 0
v -416 -256 0
v -416 -224 0
v -384 -224 0
v -416 -256 0
v -448 -256 0
v -448 -224 0
v -416 -224 0
v -448 -256 0
v -480 -256 0
v -480 -224 0
v -448 -224 0
v -480 -256 0
v -512 -256 0
v -512 -224 0
v -480 -224 0
v -160 -288 0
v -192 -288 0
v -192 -256 0
v -160 -256 0
v -192 -288 0
v -224 -288 0
v -224 -256 0
v -192 -256 0
v -288 -288 0
v -320 -288 0
v -320 -256 0
v -288 -256 0
v -320 -288 0
v -352 -288 0
v -352 -256 0
v -320 -256 0
v -352 -288 0
v -384 -288 0
v -384 -256 0
v -352 -256 0
v -384 -288 0
v -416 -288 0
v -416 -256 0
v -384 -256 0
v -416 -288 0
v -448 -288 0
v -448 -256 0
v -416 -256 0
v -448 -288 0
v -480 -288 0
v -480 -256 0
v -448 -256 0
v -480 -288 0
v -512 -288 0
v -512 -256 0
v -480 -256 0
v -160 -320 0
v -192 -320 0
v -192 -288 0
v -160 -288 0
v -192 -320 0
v -224 -320 0
v -224 -288 0
v -192 -288 0
v -288 -320 0
v -320 -320 0
v -320 -288 0
v -288 -288 0
v -320 -320 0
v -352 -320 0
v -352 -288 0
v -320 -288 0
v -352 -320 0
v -384 -320 0
v -384 -288 0
v -352 -288 0
v -384 -320 0
v -416 -320 0
v -416 -288 0
v -384 -288 0
v -416 -320 0
v -448 -320 0
v -448 -288 0
v -416 -288 0
v -448 -320 0
v -480 -320 0
v -480 -288 0
v -448 -288 0
v -480 -320 0
v -512 -320 0
v -512 -288 0
v -480 -288 0
v -32 -352 0
v -64 -352 0
v -64 -320 0
v -32 -320 0
v -608 -352 0
v -640 -352 0
v -640 -320 0
v -608 -320 0
v -32 -384 0
v -64 -384 0
v -64 -352 0
v -32 -352 0
v -608 -384 0
v -640 -384 0
v -640 -352 0
v -608 -352 0

# Texture cooridinates (Count = 33)
vt 0.2307692 0.4
vt 0.3076923 0.4
vt 0.3076923 0.4666666
vt 0.2307692 0.4666666
vt 0.3846154 0.4
vt 0.3846154 0.4666666
vt 0.5384616 0.7333333
vt 0.6153846 0.7333333
vt 0.6153846 0.8
vt 0.5384616 0.8
vt 0.6153846 0.9333333
vt 0.6923077 0.9333333
vt 0.6923077 1
vt 0.6153846 1
vt 0.7692308 0.9333333
vt 0.7692308 1
vt 0.2307692 0.3333333
vt 0.3076923 0.3333333
vt 0.3846154 0.3333333
vt 0.5384616 0.6666666
vt 0.6153846 0.6666666
vt 0.6153846 0.8666667
vt 0.6923077 0.8666667
vt 0.7692308 0.8666667
vt 0.3846154 0.7333333
vt 0.4615385 0.7333333
vt 0.4615385 0.8
vt 0.3846154 0.8
vt 0.4615385 0.6666666
vt 0.3846154 0.6666666
vt 0.5384616 0.9333333
vt 0.5384616 1
vt 0.5384616 0.8666667

# Normal
vn 0 0 -1

# Mesh description
g greenhouse_mesh_0005

# Faces
f 1/1/1 2/2/1 3/3/1 4/4/1
f 5/1/1 6/2/1 7/3/1 8/4/1
f 9/2/1 10/5/1 11/6/1 12/3/1
f 13/1/1 14/2/1 15/3/1 16/4/1
f 17/2/1 18/5/1 19/6/1 20/3/1
f 21/7/1 22/8/1 23/9/1 24/10/1
f 25/11/1 26/12/1 27/13/1 28/14/1
f 29/12/1 30/15/1 31/16/1 32/13/1
f 33/11/1 34/12/1 35/13/1 36/14/1
f 37/12/1 38/15/1 39/16/1 40/13/1
f 41/12/1 42/15/1 43/16/1 44/13/1
f 45/17/1 46/18/1 47/2/1 48/1/1
f 49/17/1 50/18/1 51/2/1 52/1/1
f 53/18/1 54/19/1 55/5/1 56/2/1
f 57/17/1 58/18/1 59/2/1 60/1/1
f 61/18/1 62/19/1 63/5/1 64/2/1
f 65/20/1 66/21/1 67/8/1 68/7/1
f 69/22/1 70/23/1 71/12/1 72/11/1
f 73/23/1 74/24/1 75/15/1 76/12/1
f 77/22/1 78/23/1 79/12/1 80/11/1
f 81/23/1 82/24/1 83/15/1 84/12/1
f 85/23/1 86/24/1 87/15/1 88/12/1
f 89/25/1 90/26/1 91/27/1 92/28/1
f 93/25/1 94/26/1 95/27/1 96/28/1
f 97/29/1 98/20/1 99/7/1 100/26/1
f 101/29/1 102/20/1 103/7/1 104/26/1
f 105/29/1 106/20/1 107/7/1 108/26/1
f 109/26/1 110/7/1 111/10/1 112/27/1
f 113/26/1 114/7/1 115/10/1 116/27/1
f 117/30/1 118/29/1 119/26/1 120/25/1
f 121/30/1 122/29/1 123/26/1 124/25/1
f 125/25/1 126/26/1 127/27/1 128/28/1
f 129/25/1 130/26/1 131/27/1 132/28/1
f 133/29/1 134/20/1 135/7/1 136/26/1
f 137/29/1 138/20/1 139/7/1 140/26/1
f 141/29/1 142/20/1 143/7/1 144/26/1
f 145/26/1 146/7/1 147/10/1 148/27/1
f 149/26/1 150/7/1 151/10/1 152/27/1
f 153/30/1 154/29/1 155/26/1 156/25/1
f 157/30/1 158/29/1 159/26/1 160/25/1
f 161/25/1 162/26/1 163/27/1 164/28/1
f 165/25/1 166/26/1 167/27/1 168/28/1
f 169/29/1 170/20/1 171/7/1 172/26/1
f 173/29/1 174/20/1 175/7/1 176/26/1
f 177/29/1 178/20/1 179/7/1 180/26/1
f 181/26/1 182/7/1 183/10/1 184/27/1
f 185/26/1 186/7/1 187/10/1 188/27/1
f 189/30/1 190/29/1 191/26/1 192/25/1
f 193/30/1 194/29/1 195/26/1 196/25/1
f 197/31/1 198/11/1 199/14/1 200/32/1
f 201/31/1 202/11/1 203/14/1 204/32/1
f 205/33/1 206/22/1 207/11/1 208/31/1
f 209/33/1 210/22/1 211/11/1 212/31/1

