# Tiled2Unity generated file. Do not modify by hand.
# Wavefront file for 'greenhouse_mesh_0007.obj'

# Vertices (Count = 40)
v -32 -192 0
v -64 -192 0
v -64 -160 0
v -32 -160 0
v -608 -192 0
v -640 -192 0
v -640 -160 0
v -608 -160 0
v -32 -224 0
v -64 -224 0
v -64 -192 0
v -32 -192 0
v -608 -224 0
v -640 -224 0
v -640 -192 0
v -608 -192 0
v -32 -256 0
v -64 -256 0
v -64 -224 0
v -32 -224 0
v -608 -256 0
v -640 -256 0
v -640 -224 0
v -608 -224 0
v -32 -288 0
v -64 -288 0
v -64 -256 0
v -32 -256 0
v -608 -288 0
v -640 -288 0
v -640 -256 0
v -608 -256 0
v -32 -320 0
v -64 -320 0
v -64 -288 0
v -32 -288 0
v -608 -320 0
v -640 -320 0
v -640 -288 0
v -608 -288 0

# Texture cooridinates (Count = 9)
vt 0.25 0.5
vt 0.375 0.5
vt 0.375 0.625
vt 0.25 0.625
vt 0.125 0.5
vt 0.125 0.625
vt 0.25 0.375
vt 0.375 0.375
vt 0.125 0.375

# Normal
vn 0 0 -1

# Mesh description
g greenhouse_mesh_0007

# Faces
f 1/1/1 2/2/1 3/3/1 4/4/1
f 5/5/1 6/1/1 7/4/1 8/6/1
f 9/1/1 10/2/1 11/3/1 12/4/1
f 13/5/1 14/1/1 15/4/1 16/6/1
f 17/7/1 18/8/1 19/2/1 20/1/1
f 21/9/1 22/7/1 23/1/1 24/5/1
f 25/1/1 26/2/1 27/3/1 28/4/1
f 29/5/1 30/1/1 31/4/1 32/6/1
f 33/7/1 34/8/1 35/2/1 36/1/1
f 37/9/1 38/7/1 39/1/1 40/5/1

