# Tiled2Unity generated file. Do not modify by hand.
# Wavefront file for 'greenhouse_mesh_0003.obj'

# Vertices (Count = 252)
v 0 -32 0
v -32 -32 0
v -32 0 0
v 0 0 0
v -32 -32 0
v -64 -32 0
v -64 0 0
v -32 0 0
v -64 -32 0
v -96 -32 0
v -96 0 0
v -64 0 0
v -96 -32 0
v -128 -32 0
v -128 0 0
v -96 0 0
v -128 -32 0
v -160 -32 0
v -160 0 0
v -128 0 0
v -160 -32 0
v -192 -32 0
v -192 0 0
v -160 0 0
v -192 -32 0
v -224 -32 0
v -224 0 0
v -192 0 0
v -224 -32 0
v -256 -32 0
v -256 0 0
v -224 0 0
v -256 -32 0
v -288 -32 0
v -288 0 0
v -256 0 0
v -288 -32 0
v -320 -32 0
v -320 0 0
v -288 0 0
v -320 -32 0
v -352 -32 0
v -352 0 0
v -320 0 0
v -352 -32 0
v -384 -32 0
v -384 0 0
v -352 0 0
v -384 -32 0
v -416 -32 0
v -416 0 0
v -384 0 0
v -416 -32 0
v -448 -32 0
v -448 0 0
v -416 0 0
v -448 -32 0
v -480 -32 0
v -480 0 0
v -448 0 0
v -480 -32 0
v -512 -32 0
v -512 0 0
v -480 0 0
v -512 -32 0
v -544 -32 0
v -544 0 0
v -512 0 0
v -544 -32 0
v -576 -32 0
v -576 0 0
v -544 0 0
v -576 -32 0
v -608 -32 0
v -608 0 0
v -576 0 0
v -608 -32 0
v -640 -32 0
v -640 0 0
v -608 0 0
v -640 -32 0
v -672 -32 0
v -672 0 0
v -640 0 0
v 0 -64 0
v -32 -64 0
v -32 -32 0
v 0 -32 0
v -640 -64 0
v -672 -64 0
v -672 -32 0
v -640 -32 0
v 0 -96 0
v -32 -96 0
v -32 -64 0
v 0 -64 0
v -640 -96 0
v -672 -96 0
v -672 -64 0
v -640 -64 0
v 0 -128 0
v -32 -128 0
v -32 -96 0
v 0 -96 0
v -640 -128 0
v -672 -128 0
v -672 -96 0
v -640 -96 0
v 0 -160 0
v -32 -160 0
v -32 -128 0
v 0 -128 0
v -640 -160 0
v -672 -160 0
v -672 -128 0
v -640 -128 0
v 0 -192 0
v -32 -192 0
v -32 -160 0
v 0 -160 0
v -640 -192 0
v -672 -192 0
v -672 -160 0
v -640 -160 0
v 0 -224 0
v -32 -224 0
v -32 -192 0
v 0 -192 0
v -640 -224 0
v -672 -224 0
v -672 -192 0
v -640 -192 0
v 0 -256 0
v -32 -256 0
v -32 -224 0
v 0 -224 0
v -640 -256 0
v -672 -256 0
v -672 -224 0
v -640 -224 0
v 0 -288 0
v -32 -288 0
v -32 -256 0
v 0 -256 0
v -640 -288 0
v -672 -288 0
v -672 -256 0
v -640 -256 0
v 0 -320 0
v -32 -320 0
v -32 -288 0
v 0 -288 0
v -640 -320 0
v -672 -320 0
v -672 -288 0
v -640 -288 0
v 0 -352 0
v -32 -352 0
v -32 -320 0
v 0 -320 0
v -640 -352 0
v -672 -352 0
v -672 -320 0
v -640 -320 0
v 0 -384 0
v -32 -384 0
v -32 -352 0
v 0 -352 0
v -640 -384 0
v -672 -384 0
v -672 -352 0
v -640 -352 0
v 0 -416 0
v -32 -416 0
v -32 -384 0
v 0 -384 0
v -640 -416 0
v -672 -416 0
v -672 -384 0
v -640 -384 0
v 0 -448 0
v -32 -448 0
v -32 -416 0
v 0 -416 0
v -32 -448 0
v -64 -448 0
v -64 -416 0
v -32 -416 0
v -64 -448 0
v -96 -448 0
v -96 -416 0
v -64 -416 0
v -96 -448 0
v -128 -448 0
v -128 -416 0
v -96 -416 0
v -128 -448 0
v -160 -448 0
v -160 -416 0
v -128 -416 0
v -160 -448 0
v -192 -448 0
v -192 -416 0
v -160 -416 0
v -192 -448 0
v -224 -448 0
v -224 -416 0
v -192 -416 0
v -224 -448 0
v -256 -448 0
v -256 -416 0
v -224 -416 0
v -256 -448 0
v -288 -448 0
v -288 -416 0
v -256 -416 0
v -384 -448 0
v -416 -448 0
v -416 -416 0
v -384 -416 0
v -416 -448 0
v -448 -448 0
v -448 -416 0
v -416 -416 0
v -448 -448 0
v -480 -448 0
v -480 -416 0
v -448 -416 0
v -480 -448 0
v -512 -448 0
v -512 -416 0
v -480 -416 0
v -512 -448 0
v -544 -448 0
v -544 -416 0
v -512 -416 0
v -544 -448 0
v -576 -448 0
v -576 -416 0
v -544 -416 0
v -576 -448 0
v -608 -448 0
v -608 -416 0
v -576 -416 0
v -608 -448 0
v -640 -448 0
v -640 -416 0
v -608 -416 0
v -640 -448 0
v -672 -448 0
v -672 -416 0
v -640 -416 0

# Texture cooridinates (Count = 20)
vt 0 0.8
vt 0.25 0.8
vt 0.25 1
vt 0 1
vt 0.5 0.8
vt 0.5 1
vt 0.75 0.8
vt 0.75 1
vt 0 0.6
vt 0.25 0.6
vt 0.5 0.6
vt 0.75 0.6
vt 0 0.4
vt 0.25 0.4
vt 0.5 0.4
vt 0 0.2
vt 0.25 0.2
vt 0.5 0.2
vt 0.75 0.2
vt 0.75 0.4

# Normal
vn 0 0 -1

# Mesh description
g greenhouse_mesh_0003

# Faces
f 1/1/1 2/2/1 3/3/1 4/4/1
f 5/2/1 6/5/1 7/6/1 8/3/1
f 9/2/1 10/5/1 11/6/1 12/3/1
f 13/2/1 14/5/1 15/6/1 16/3/1
f 17/2/1 18/5/1 19/6/1 20/3/1
f 21/2/1 22/5/1 23/6/1 24/3/1
f 25/2/1 26/5/1 27/6/1 28/3/1
f 29/2/1 30/5/1 31/6/1 32/3/1
f 33/2/1 34/5/1 35/6/1 36/3/1
f 37/2/1 38/5/1 39/6/1 40/3/1
f 41/2/1 42/5/1 43/6/1 44/3/1
f 45/2/1 46/5/1 47/6/1 48/3/1
f 49/2/1 50/5/1 51/6/1 52/3/1
f 53/2/1 54/5/1 55/6/1 56/3/1
f 57/2/1 58/5/1 59/6/1 60/3/1
f 61/2/1 62/5/1 63/6/1 64/3/1
f 65/2/1 66/5/1 67/6/1 68/3/1
f 69/2/1 70/5/1 71/6/1 72/3/1
f 73/2/1 74/5/1 75/6/1 76/3/1
f 77/2/1 78/5/1 79/6/1 80/3/1
f 81/5/1 82/7/1 83/8/1 84/6/1
f 85/9/1 86/10/1 87/2/1 88/1/1
f 89/11/1 90/12/1 91/7/1 92/5/1
f 93/9/1 94/10/1 95/2/1 96/1/1
f 97/11/1 98/12/1 99/7/1 100/5/1
f 101/9/1 102/10/1 103/2/1 104/1/1
f 105/11/1 106/12/1 107/7/1 108/5/1
f 109/9/1 110/10/1 111/2/1 112/1/1
f 113/11/1 114/12/1 115/7/1 116/5/1
f 117/9/1 118/10/1 119/2/1 120/1/1
f 121/11/1 122/12/1 123/7/1 124/5/1
f 125/9/1 126/10/1 127/2/1 128/1/1
f 129/11/1 130/12/1 131/7/1 132/5/1
f 133/9/1 134/10/1 135/2/1 136/1/1
f 137/11/1 138/12/1 139/7/1 140/5/1
f 141/9/1 142/10/1 143/2/1 144/1/1
f 145/11/1 146/12/1 147/7/1 148/5/1
f 149/9/1 150/10/1 151/2/1 152/1/1
f 153/11/1 154/12/1 155/7/1 156/5/1
f 157/9/1 158/10/1 159/2/1 160/1/1
f 161/11/1 162/12/1 163/7/1 164/5/1
f 165/9/1 166/10/1 167/2/1 168/1/1
f 169/11/1 170/12/1 171/7/1 172/5/1
f 173/9/1 174/10/1 175/2/1 176/1/1
f 177/11/1 178/12/1 179/7/1 180/5/1
f 181/13/1 182/14/1 183/10/1 184/9/1
f 185/14/1 186/15/1 187/11/1 188/10/1
f 189/14/1 190/15/1 191/11/1 192/10/1
f 193/14/1 194/15/1 195/11/1 196/10/1
f 197/14/1 198/15/1 199/11/1 200/10/1
f 201/14/1 202/15/1 203/11/1 204/10/1
f 205/14/1 206/15/1 207/11/1 208/10/1
f 209/14/1 210/15/1 211/11/1 212/10/1
f 213/16/1 214/17/1 215/14/1 216/13/1
f 217/18/1 218/19/1 219/20/1 220/15/1
f 221/14/1 222/15/1 223/11/1 224/10/1
f 225/14/1 226/15/1 227/11/1 228/10/1
f 229/14/1 230/15/1 231/11/1 232/10/1
f 233/14/1 234/15/1 235/11/1 236/10/1
f 237/14/1 238/15/1 239/11/1 240/10/1
f 241/14/1 242/15/1 243/11/1 244/10/1
f 245/14/1 246/15/1 247/11/1 248/10/1
f 249/15/1 250/20/1 251/12/1 252/11/1

