# Tiled2Unity generated file. Do not modify by hand.
# Wavefront file for 'greenhouse_mesh_0004.obj'

# Vertices (Count = 224)
v -32 -128 0
v -64 -128 0
v -64 -96 0
v -32 -96 0
v -64 -128 0
v -96 -128 0
v -96 -96 0
v -64 -96 0
v -96 -128 0
v -128 -128 0
v -128 -96 0
v -96 -96 0
v -128 -128 0
v -160 -128 0
v -160 -96 0
v -128 -96 0
v -32 -160 0
v -64 -160 0
v -64 -128 0
v -32 -128 0
v -64 -160 0
v -96 -160 0
v -96 -128 0
v -64 -128 0
v -96 -160 0
v -128 -160 0
v -128 -128 0
v -96 -128 0
v -128 -160 0
v -160 -160 0
v -160 -128 0
v -128 -128 0
v -32 -192 0
v -64 -192 0
v -64 -160 0
v -32 -160 0
v -608 -192 0
v -640 -192 0
v -640 -160 0
v -608 -160 0
v -32 -224 0
v -64 -224 0
v -64 -192 0
v -32 -192 0
v -128 -224 0
v -160 -224 0
v -160 -192 0
v -128 -192 0
v -160 -224 0
v -192 -224 0
v -192 -192 0
v -160 -192 0
v -192 -224 0
v -224 -224 0
v -224 -192 0
v -192 -192 0
v -224 -224 0
v -256 -224 0
v -256 -192 0
v -224 -192 0
v -256 -224 0
v -288 -224 0
v -288 -192 0
v -256 -192 0
v -288 -224 0
v -320 -224 0
v -320 -192 0
v -288 -192 0
v -320 -224 0
v -352 -224 0
v -352 -192 0
v -320 -192 0
v -352 -224 0
v -384 -224 0
v -384 -192 0
v -352 -192 0
v -384 -224 0
v -416 -224 0
v -416 -192 0
v -384 -192 0
v -416 -224 0
v -448 -224 0
v -448 -192 0
v -416 -192 0
v -448 -224 0
v -480 -224 0
v -480 -192 0
v -448 -192 0
v -480 -224 0
v -512 -224 0
v -512 -192 0
v -480 -192 0
v -512 -224 0
v -544 -224 0
v -544 -192 0
v -512 -192 0
v -608 -224 0
v -640 -224 0
v -640 -192 0
v -608 -192 0
v -32 -256 0
v -64 -256 0
v -64 -224 0
v -32 -224 0
v -128 -256 0
v -160 -256 0
v -160 -224 0
v -128 -224 0
v -224 -256 0
v -256 -256 0
v -256 -224 0
v -224 -224 0
v -256 -256 0
v -288 -256 0
v -288 -224 0
v -256 -224 0
v -512 -256 0
v -544 -256 0
v -544 -224 0
v -512 -224 0
v -608 -256 0
v -640 -256 0
v -640 -224 0
v -608 -224 0
v -32 -288 0
v -64 -288 0
v -64 -256 0
v -32 -256 0
v -128 -288 0
v -160 -288 0
v -160 -256 0
v -128 -256 0
v -224 -288 0
v -256 -288 0
v -256 -256 0
v -224 -256 0
v -256 -288 0
v -288 -288 0
v -288 -256 0
v -256 -256 0
v -512 -288 0
v -544 -288 0
v -544 -256 0
v -512 -256 0
v -608 -288 0
v -640 -288 0
v -640 -256 0
v -608 -256 0
v -32 -320 0
v -64 -320 0
v -64 -288 0
v -32 -288 0
v -128 -320 0
v -160 -320 0
v -160 -288 0
v -128 -288 0
v -224 -320 0
v -256 -320 0
v -256 -288 0
v -224 -288 0
v -256 -320 0
v -288 -320 0
v -288 -288 0
v -256 -288 0
v -512 -320 0
v -544 -320 0
v -544 -288 0
v -512 -288 0
v -608 -320 0
v -640 -320 0
v -640 -288 0
v -608 -288 0
v -128 -352 0
v -160 -352 0
v -160 -320 0
v -128 -320 0
v -160 -352 0
v -192 -352 0
v -192 -320 0
v -160 -320 0
v -192 -352 0
v -224 -352 0
v -224 -320 0
v -192 -320 0
v -224 -352 0
v -256 -352 0
v -256 -320 0
v -224 -320 0
v -256 -352 0
v -288 -352 0
v -288 -320 0
v -256 -320 0
v -288 -352 0
v -320 -352 0
v -320 -320 0
v -288 -320 0
v -320 -352 0
v -352 -352 0
v -352 -320 0
v -320 -320 0
v -352 -352 0
v -384 -352 0
v -384 -320 0
v -352 -320 0
v -384 -352 0
v -416 -352 0
v -416 -320 0
v -384 -320 0
v -416 -352 0
v -448 -352 0
v -448 -320 0
v -416 -320 0
v -448 -352 0
v -480 -352 0
v -480 -320 0
v -448 -320 0
v -480 -352 0
v -512 -352 0
v -512 -320 0
v -480 -320 0
v -512 -352 0
v -544 -352 0
v -544 -320 0
v -512 -320 0

# Texture cooridinates (Count = 26)
vt 0 0.5
vt 0.125 0.5
vt 0.125 0.625
vt 0 0.625
vt 0 0.375
vt 0.125 0.375
vt 0.25 0.5
vt 0.375 0.5
vt 0.375 0.625
vt 0.25 0.625
vt 0.25 0.375
vt 0.375 0.375
vt 0.5 0.875
vt 0.625 0.875
vt 0.625 1
vt 0.5 1
vt 0.25 0.875
vt 0.375 0.875
vt 0.375 1
vt 0.25 1
vt 0.875 0.875
vt 1 0.875
vt 1 1
vt 0.875 1
vt 0.75 0.875
vt 0.75 1

# Normal
vn 0 0 -1

# Mesh description
g greenhouse_mesh_0004

# Faces
f 1/1/1 2/2/1 3/3/1 4/4/1
f 5/1/1 6/2/1 7/3/1 8/4/1
f 9/1/1 10/2/1 11/3/1 12/4/1
f 13/1/1 14/2/1 15/3/1 16/4/1
f 17/5/1 18/6/1 19/2/1 20/1/1
f 21/5/1 22/6/1 23/2/1 24/1/1
f 25/5/1 26/6/1 27/2/1 28/1/1
f 29/5/1 30/6/1 31/2/1 32/1/1
f 33/7/1 34/8/1 35/9/1 36/10/1
f 37/2/1 38/7/1 39/10/1 40/3/1
f 41/11/1 42/12/1 43/8/1 44/7/1
f 45/13/1 46/14/1 47/15/1 48/16/1
f 49/17/1 50/18/1 51/19/1 52/20/1
f 53/17/1 54/18/1 55/19/1 56/20/1
f 57/17/1 58/18/1 59/19/1 60/20/1
f 61/17/1 62/18/1 63/19/1 64/20/1
f 65/17/1 66/18/1 67/19/1 68/20/1
f 69/17/1 70/18/1 71/19/1 72/20/1
f 73/17/1 74/18/1 75/19/1 76/20/1
f 77/17/1 78/18/1 79/19/1 80/20/1
f 81/17/1 82/18/1 83/19/1 84/20/1
f 85/17/1 86/18/1 87/19/1 88/20/1
f 89/17/1 90/18/1 91/19/1 92/20/1
f 93/13/1 94/14/1 95/15/1 96/16/1
f 97/6/1 98/11/1 99/7/1 100/2/1
f 101/7/1 102/8/1 103/9/1 104/10/1
f 105/13/1 106/14/1 107/15/1 108/16/1
f 109/21/1 110/22/1 111/23/1 112/24/1
f 113/21/1 114/22/1 115/23/1 116/24/1
f 117/13/1 118/14/1 119/15/1 120/16/1
f 121/2/1 122/7/1 123/10/1 124/3/1
f 125/11/1 126/12/1 127/8/1 128/7/1
f 129/13/1 130/14/1 131/15/1 132/16/1
f 133/21/1 134/22/1 135/23/1 136/24/1
f 137/21/1 138/22/1 139/23/1 140/24/1
f 141/13/1 142/14/1 143/15/1 144/16/1
f 145/6/1 146/11/1 147/7/1 148/2/1
f 149/11/1 150/12/1 151/8/1 152/7/1
f 153/13/1 154/14/1 155/15/1 156/16/1
f 157/21/1 158/22/1 159/23/1 160/24/1
f 161/21/1 162/22/1 163/23/1 164/24/1
f 165/13/1 166/14/1 167/15/1 168/16/1
f 169/6/1 170/11/1 171/7/1 172/2/1
f 173/13/1 174/14/1 175/15/1 176/16/1
f 177/14/1 178/25/1 179/26/1 180/15/1
f 181/14/1 182/25/1 183/26/1 184/15/1
f 185/14/1 186/25/1 187/26/1 188/15/1
f 189/14/1 190/25/1 191/26/1 192/15/1
f 193/14/1 194/25/1 195/26/1 196/15/1
f 197/14/1 198/25/1 199/26/1 200/15/1
f 201/14/1 202/25/1 203/26/1 204/15/1
f 205/14/1 206/25/1 207/26/1 208/15/1
f 209/14/1 210/25/1 211/26/1 212/15/1
f 213/14/1 214/25/1 215/26/1 216/15/1
f 217/14/1 218/25/1 219/26/1 220/15/1
f 221/13/1 222/14/1 223/15/1 224/16/1

