# Tiled2Unity generated file. Do not modify by hand.
# Wavefront file for 'cafeteria_mesh_0003.obj'

# Vertices (Count = 320)
v 0 -32 0
v -32 -32 0
v -32 0 0
v 0 0 0
v -32 -32 0
v -64 -32 0
v -64 0 0
v -32 0 0
v -64 -32 0
v -96 -32 0
v -96 0 0
v -64 0 0
v -96 -32 0
v -128 -32 0
v -128 0 0
v -96 0 0
v -128 -32 0
v -160 -32 0
v -160 0 0
v -128 0 0
v -160 -32 0
v -192 -32 0
v -192 0 0
v -160 0 0
v -192 -32 0
v -224 -32 0
v -224 0 0
v -192 0 0
v -224 -32 0
v -256 -32 0
v -256 0 0
v -224 0 0
v -256 -32 0
v -288 -32 0
v -288 0 0
v -256 0 0
v -288 -32 0
v -320 -32 0
v -320 0 0
v -288 0 0
v -320 -32 0
v -352 -32 0
v -352 0 0
v -320 0 0
v -352 -32 0
v -384 -32 0
v -384 0 0
v -352 0 0
v -384 -32 0
v -416 -32 0
v -416 0 0
v -384 0 0
v -416 -32 0
v -448 -32 0
v -448 0 0
v -416 0 0
v -448 -32 0
v -480 -32 0
v -480 0 0
v -448 0 0
v -480 -32 0
v -512 -32 0
v -512 0 0
v -480 0 0
v -512 -32 0
v -544 -32 0
v -544 0 0
v -512 0 0
v -544 -32 0
v -576 -32 0
v -576 0 0
v -544 0 0
v -576 -32 0
v -608 -32 0
v -608 0 0
v -576 0 0
v -608 -32 0
v -640 -32 0
v -640 0 0
v -608 0 0
v -640 -32 0
v -672 -32 0
v -672 0 0
v -640 0 0
v -672 -32 0
v -704 -32 0
v -704 0 0
v -672 0 0
v -704 -32 0
v -736 -32 0
v -736 0 0
v -704 0 0
v -736 -32 0
v -768 -32 0
v -768 0 0
v -736 0 0
v -768 -32 0
v -800 -32 0
v -800 0 0
v -768 0 0
v -800 -32 0
v -832 -32 0
v -832 0 0
v -800 0 0
v -832 -32 0
v -864 -32 0
v -864 0 0
v -832 0 0
v -864 -32 0
v -896 -32 0
v -896 0 0
v -864 0 0
v 0 -64 0
v -32 -64 0
v -32 -32 0
v 0 -32 0
v -864 -64 0
v -896 -64 0
v -896 -32 0
v -864 -32 0
v 0 -96 0
v -32 -96 0
v -32 -64 0
v 0 -64 0
v -864 -96 0
v -896 -96 0
v -896 -64 0
v -864 -64 0
v 0 -128 0
v -32 -128 0
v -32 -96 0
v 0 -96 0
v -864 -128 0
v -896 -128 0
v -896 -96 0
v -864 -96 0
v 0 -160 0
v -32 -160 0
v -32 -128 0
v 0 -128 0
v -864 -160 0
v -896 -160 0
v -896 -128 0
v -864 -128 0
v 0 -192 0
v -32 -192 0
v -32 -160 0
v 0 -160 0
v -864 -192 0
v -896 -192 0
v -896 -160 0
v -864 -160 0
v 0 -224 0
v -32 -224 0
v -32 -192 0
v 0 -192 0
v -864 -224 0
v -896 -224 0
v -896 -192 0
v -864 -192 0
v 0 -256 0
v -32 -256 0
v -32 -224 0
v 0 -224 0
v -608 -256 0
v -640 -256 0
v -640 -224 0
v -608 -224 0
v -864 -256 0
v -896 -256 0
v -896 -224 0
v -864 -224 0
v 0 -288 0
v -32 -288 0
v -32 -256 0
v 0 -256 0
v -608 -288 0
v -640 -288 0
v -640 -256 0
v -608 -256 0
v -864 -288 0
v -896 -288 0
v -896 -256 0
v -864 -256 0
v 0 -320 0
v -32 -320 0
v -32 -288 0
v 0 -288 0
v -608 -320 0
v -640 -320 0
v -640 -288 0
v -608 -288 0
v -864 -320 0
v -896 -320 0
v -896 -288 0
v -864 -288 0
v 0 -352 0
v -32 -352 0
v -32 -320 0
v 0 -320 0
v -608 -352 0
v -640 -352 0
v -640 -320 0
v -608 -320 0
v -640 -352 0
v -672 -352 0
v -672 -320 0
v -640 -320 0
v -672 -352 0
v -704 -352 0
v -704 -320 0
v -672 -320 0
v -704 -352 0
v -736 -352 0
v -736 -320 0
v -704 -320 0
v -736 -352 0
v -768 -352 0
v -768 -320 0
v -736 -320 0
v -768 -352 0
v -800 -352 0
v -800 -320 0
v -768 -320 0
v -800 -352 0
v -832 -352 0
v -832 -320 0
v -800 -320 0
v -832 -352 0
v -864 -352 0
v -864 -320 0
v -832 -320 0
v -864 -352 0
v -896 -352 0
v -896 -320 0
v -864 -320 0
v 0 -384 0
v -32 -384 0
v -32 -352 0
v 0 -352 0
v -608 -384 0
v -640 -384 0
v -640 -352 0
v -608 -352 0
v 0 -416 0
v -32 -416 0
v -32 -384 0
v 0 -384 0
v -608 -416 0
v -640 -416 0
v -640 -384 0
v -608 -384 0
v 0 -448 0
v -32 -448 0
v -32 -416 0
v 0 -416 0
v -32 -448 0
v -64 -448 0
v -64 -416 0
v -32 -416 0
v -64 -448 0
v -96 -448 0
v -96 -416 0
v -64 -416 0
v -96 -448 0
v -128 -448 0
v -128 -416 0
v -96 -416 0
v -128 -448 0
v -160 -448 0
v -160 -416 0
v -128 -416 0
v -160 -448 0
v -192 -448 0
v -192 -416 0
v -160 -416 0
v -192 -448 0
v -224 -448 0
v -224 -416 0
v -192 -416 0
v -224 -448 0
v -256 -448 0
v -256 -416 0
v -224 -416 0
v -256 -448 0
v -288 -448 0
v -288 -416 0
v -256 -416 0
v -288 -448 0
v -320 -448 0
v -320 -416 0
v -288 -416 0
v -320 -448 0
v -352 -448 0
v -352 -416 0
v -320 -416 0
v -448 -448 0
v -480 -448 0
v -480 -416 0
v -448 -416 0
v -480 -448 0
v -512 -448 0
v -512 -416 0
v -480 -416 0
v -512 -448 0
v -544 -448 0
v -544 -416 0
v -512 -416 0
v -544 -448 0
v -576 -448 0
v -576 -416 0
v -544 -416 0
v -576 -448 0
v -608 -448 0
v -608 -416 0
v -576 -416 0
v -608 -448 0
v -640 -448 0
v -640 -416 0
v -608 -416 0

# Texture cooridinates (Count = 16)
vt 0 0.8
vt 0.25 0.8
vt 0.25 1
vt 0 1
vt 0.5 0.8
vt 0.5 1
vt 0.75 0.8
vt 0.75 1
vt 0 0.6
vt 0.25 0.6
vt 0.5 0.6
vt 0.75 0.6
vt 0.25 0.4
vt 0.5 0.4
vt 0.75 0.4
vt 0 0.4

# Normal
vn 0 0 -1

# Mesh description
g cafeteria_mesh_0003

# Faces
f 1/1/1 2/2/1 3/3/1 4/4/1
f 5/2/1 6/5/1 7/6/1 8/3/1
f 9/2/1 10/5/1 11/6/1 12/3/1
f 13/2/1 14/5/1 15/6/1 16/3/1
f 17/2/1 18/5/1 19/6/1 20/3/1
f 21/2/1 22/5/1 23/6/1 24/3/1
f 25/2/1 26/5/1 27/6/1 28/3/1
f 29/2/1 30/5/1 31/6/1 32/3/1
f 33/2/1 34/5/1 35/6/1 36/3/1
f 37/2/1 38/5/1 39/6/1 40/3/1
f 41/2/1 42/5/1 43/6/1 44/3/1
f 45/2/1 46/5/1 47/6/1 48/3/1
f 49/2/1 50/5/1 51/6/1 52/3/1
f 53/2/1 54/5/1 55/6/1 56/3/1
f 57/2/1 58/5/1 59/6/1 60/3/1
f 61/2/1 62/5/1 63/6/1 64/3/1
f 65/2/1 66/5/1 67/6/1 68/3/1
f 69/2/1 70/5/1 71/6/1 72/3/1
f 73/2/1 74/5/1 75/6/1 76/3/1
f 77/2/1 78/5/1 79/6/1 80/3/1
f 81/2/1 82/5/1 83/6/1 84/3/1
f 85/2/1 86/5/1 87/6/1 88/3/1
f 89/2/1 90/5/1 91/6/1 92/3/1
f 93/2/1 94/5/1 95/6/1 96/3/1
f 97/2/1 98/5/1 99/6/1 100/3/1
f 101/2/1 102/5/1 103/6/1 104/3/1
f 105/2/1 106/5/1 107/6/1 108/3/1
f 109/5/1 110/7/1 111/8/1 112/6/1
f 113/9/1 114/10/1 115/2/1 116/1/1
f 117/11/1 118/12/1 119/7/1 120/5/1
f 121/9/1 122/10/1 123/2/1 124/1/1
f 125/11/1 126/12/1 127/7/1 128/5/1
f 129/9/1 130/10/1 131/2/1 132/1/1
f 133/11/1 134/12/1 135/7/1 136/5/1
f 137/9/1 138/10/1 139/2/1 140/1/1
f 141/11/1 142/12/1 143/7/1 144/5/1
f 145/9/1 146/10/1 147/2/1 148/1/1
f 149/11/1 150/12/1 151/7/1 152/5/1
f 153/9/1 154/10/1 155/2/1 156/1/1
f 157/11/1 158/12/1 159/7/1 160/5/1
f 161/9/1 162/10/1 163/2/1 164/1/1
f 165/11/1 166/12/1 167/7/1 168/5/1
f 169/11/1 170/12/1 171/7/1 172/5/1
f 173/9/1 174/10/1 175/2/1 176/1/1
f 177/11/1 178/12/1 179/7/1 180/5/1
f 181/11/1 182/12/1 183/7/1 184/5/1
f 185/9/1 186/10/1 187/2/1 188/1/1
f 189/11/1 190/12/1 191/7/1 192/5/1
f 193/11/1 194/12/1 195/7/1 196/5/1
f 197/9/1 198/10/1 199/2/1 200/1/1
f 201/11/1 202/12/1 203/7/1 204/5/1
f 205/13/1 206/14/1 207/11/1 208/10/1
f 209/13/1 210/14/1 211/11/1 212/10/1
f 213/13/1 214/14/1 215/11/1 216/10/1
f 217/13/1 218/14/1 219/11/1 220/10/1
f 221/13/1 222/14/1 223/11/1 224/10/1
f 225/13/1 226/14/1 227/11/1 228/10/1
f 229/13/1 230/14/1 231/11/1 232/10/1
f 233/14/1 234/15/1 235/12/1 236/11/1
f 237/9/1 238/10/1 239/2/1 240/1/1
f 241/11/1 242/12/1 243/7/1 244/5/1
f 245/9/1 246/10/1 247/2/1 248/1/1
f 249/11/1 250/12/1 251/7/1 252/5/1
f 253/16/1 254/13/1 255/10/1 256/9/1
f 257/13/1 258/14/1 259/11/1 260/10/1
f 261/13/1 262/14/1 263/11/1 264/10/1
f 265/13/1 266/14/1 267/11/1 268/10/1
f 269/13/1 270/14/1 271/11/1 272/10/1
f 273/13/1 274/14/1 275/11/1 276/10/1
f 277/13/1 278/14/1 279/11/1 280/10/1
f 281/13/1 282/14/1 283/11/1 284/10/1
f 285/13/1 286/14/1 287/11/1 288/10/1
f 289/13/1 290/14/1 291/11/1 292/10/1
f 293/13/1 294/14/1 295/11/1 296/10/1
f 297/13/1 298/14/1 299/11/1 300/10/1
f 301/13/1 302/14/1 303/11/1 304/10/1
f 305/13/1 306/14/1 307/11/1 308/10/1
f 309/13/1 310/14/1 311/11/1 312/10/1
f 313/13/1 314/14/1 315/11/1 316/10/1
f 317/14/1 318/15/1 319/12/1 320/11/1

