# Tiled2Unity generated file. Do not modify by hand.
# Wavefront file for 'cafeteria_mesh_0011.obj'

# Vertices (Count = 16)
v -832 -64 0
v -864 -64 0
v -864 -32 0
v -832 -32 0
v -832 -96 0
v -864 -96 0
v -864 -64 0
v -832 -64 0
v -832 -128 0
v -864 -128 0
v -864 -96 0
v -832 -96 0
v -832 -160 0
v -864 -160 0
v -864 -128 0
v -832 -128 0

# Texture cooridinates (Count = 10)
vt 0 0.75
vt 0.5 0.75
vt 0.5 1
vt 0 1
vt 0 0.5
vt 0.5 0.5
vt 0 0
vt 0.5 0
vt 0.5 0.25
vt 0 0.25

# Normal
vn 0 0 -1

# Mesh description
g cafeteria_mesh_0011

# Faces
f 1/1/1 2/2/1 3/3/1 4/4/1
f 5/5/1 6/6/1 7/2/1 8/1/1
f 9/5/1 10/6/1 11/2/1 12/1/1
f 13/7/1 14/8/1 15/9/1 16/10/1

