# Tiled2Unity generated file. Do not modify by hand.
# Wavefront file for 'cafeteria_mesh_0008.obj'

# Vertices (Count = 12)
v -20.36364 -1.939394 0
v -21.33333 -1.939394 0
v -21.33333 -0.969697 0
v -20.36364 -0.969697 0
v -21.33333 -1.939394 0
v -22.30303 -1.939394 0
v -22.30303 -0.969697 0
v -21.33333 -0.969697 0
v -24.24242 -1.939394 0
v -25.21212 -1.939394 0
v -25.21212 -0.969697 0
v -24.24242 -0.969697 0

# Texture cooridinates (Count = 6)
vt 0.8333333 0.7692308
vt 1 0.7692308
vt 1 0.8461539
vt 0.8333333 0.8461539
vt 0.6666667 0.7692308
vt 0.6666667 0.8461539

# Normal
vn 0 0 -1

# Mesh description
g cafeteria_mesh_0008

# Faces
f 1/1/1 2/2/1 3/3/1 4/4/1
f 5/5/1 6/1/1 7/4/1 8/6/1
f 9/1/1 10/2/1 11/3/1 12/4/1

