# Tiled2Unity generated file. Do not modify by hand.
# Wavefront file for 'cafeteria_mesh_0008.obj'

# Vertices (Count = 24)
v -64 -256 0
v -96 -256 0
v -96 -224 0
v -64 -224 0
v -256 -256 0
v -288 -256 0
v -288 -224 0
v -256 -224 0
v -448 -256 0
v -480 -256 0
v -480 -224 0
v -448 -224 0
v -64 -384 0
v -96 -384 0
v -96 -352 0
v -64 -352 0
v -256 -384 0
v -288 -384 0
v -288 -352 0
v -256 -352 0
v -448 -384 0
v -480 -384 0
v -480 -352 0
v -448 -352 0

# Texture cooridinates (Count = 4)
vt 0 0
vt 1 0
vt 1 1
vt 0 1

# Normal
vn 0 0 -1

# Mesh description
g cafeteria_mesh_0008

# Faces
f 1/1/1 2/2/1 3/3/1 4/4/1
f 5/1/1 6/2/1 7/3/1 8/4/1
f 9/1/1 10/2/1 11/3/1 12/4/1
f 13/1/1 14/2/1 15/3/1 16/4/1
f 17/1/1 18/2/1 19/3/1 20/4/1
f 21/1/1 22/2/1 23/3/1 24/4/1

