# Tiled2Unity generated file. Do not modify by hand.
# Wavefront file for 'cafeteria_mesh_0015.obj'

# Vertices (Count = 16)
v -736 -96 0
v -768 -96 0
v -768 -64 0
v -736 -64 0
v -768 -96 0
v -800 -96 0
v -800 -64 0
v -768 -64 0
v -800 -96 0
v -832 -96 0
v -832 -64 0
v -800 -64 0
v -736 -128 0
v -768 -128 0
v -768 -96 0
v -736 -96 0

# Texture cooridinates (Count = 8)
vt 0.5 0.25
vt 1 0.25
vt 1 0.5
vt 0.5 0.5
vt 0.5 0.75
vt 1 0.75
vt 1 1
vt 0.5 1

# Normal
vn 0 0 -1

# Mesh description
g cafeteria_mesh_0015

# Faces
f 1/1/1 2/2/1 3/3/1 4/4/1
f 5/1/1 6/2/1 7/3/1 8/4/1
f 9/1/1 10/2/1 11/3/1 12/4/1
f 13/5/1 14/6/1 15/7/1 16/8/1

