# Tiled2Unity generated file. Do not modify by hand.
# Wavefront file for 'principalsOffice_mesh_0005.obj'

# Vertices (Count = 12)
v -0.969697 -3.878788 0
v -1.939394 -3.878788 0
v -1.939394 -2.909091 0
v -0.969697 -2.909091 0
v -0.969697 -4.848485 0
v -1.939394 -4.848485 0
v -1.939394 -3.878788 0
v -0.969697 -3.878788 0
v -0.969697 -5.818182 0
v -1.939394 -5.818182 0
v -1.939394 -4.848485 0
v -0.969697 -4.848485 0

# Texture cooridinates (Count = 8)
vt 0 0.6666666
vt 1 0.6666666
vt 1 1
vt 0 1
vt 0 0.3333333
vt 1 0.3333333
vt 0 0
vt 1 0

# Normal
vn 0 0 -1

# Mesh description
g principalsOffice_mesh_0005

# Faces
f 1/1/1 2/2/1 3/3/1 4/4/1
f 5/5/1 6/6/1 7/2/1 8/1/1
f 9/7/1 10/8/1 11/6/1 12/5/1

