# Tiled2Unity generated file. Do not modify by hand.
# Wavefront file for 'principalsOffice_mesh_0005.obj'

# Vertices (Count = 56)
v -160 -96 0
v -192 -96 0
v -192 -64 0
v -160 -64 0
v -224 -96 0
v -256 -96 0
v -256 -64 0
v -224 -64 0
v -256 -96 0
v -288 -96 0
v -288 -64 0
v -256 -64 0
v -288 -96 0
v -320 -96 0
v -320 -64 0
v -288 -64 0
v -160 -128 0
v -192 -128 0
v -192 -96 0
v -160 -96 0
v -192 -128 0
v -224 -128 0
v -224 -96 0
v -192 -96 0
v -224 -128 0
v -256 -128 0
v -256 -96 0
v -224 -96 0
v -256 -128 0
v -288 -128 0
v -288 -96 0
v -256 -96 0
v -288 -128 0
v -320 -128 0
v -320 -96 0
v -288 -96 0
v -160 -160 0
v -192 -160 0
v -192 -128 0
v -160 -128 0
v -192 -160 0
v -224 -160 0
v -224 -128 0
v -192 -128 0
v -224 -160 0
v -256 -160 0
v -256 -128 0
v -224 -128 0
v -256 -160 0
v -288 -160 0
v -288 -128 0
v -256 -128 0
v -288 -160 0
v -320 -160 0
v -320 -128 0
v -288 -128 0

# Texture cooridinates (Count = 16)
vt 0.3333333 0.6666666
vt 0.6666667 0.6666666
vt 0.6666667 1
vt 0.3333333 1
vt 0 0.6666666
vt 0 1
vt 0.3333333 0.3333333
vt 0.6666667 0.3333333
vt 1 0.6666666
vt 1 1
vt 0 0.3333333
vt 0.3333333 0
vt 0.6666667 0
vt 1 0
vt 1 0.3333333
vt 0 0

# Normal
vn 0 0 -1

# Mesh description
g principalsOffice_mesh_0005

# Faces
f 1/1/1 2/2/1 3/3/1 4/4/1
f 5/5/1 6/1/1 7/4/1 8/6/1
f 9/5/1 10/1/1 11/4/1 12/6/1
f 13/1/1 14/2/1 15/3/1 16/4/1
f 17/7/1 18/8/1 19/2/1 20/1/1
f 21/2/1 22/9/1 23/10/1 24/3/1
f 25/11/1 26/7/1 27/1/1 28/5/1
f 29/11/1 30/7/1 31/1/1 32/5/1
f 33/7/1 34/8/1 35/2/1 36/1/1
f 37/12/1 38/13/1 39/8/1 40/7/1
f 41/13/1 42/14/1 43/15/1 44/8/1
f 45/16/1 46/12/1 47/7/1 48/11/1
f 49/16/1 50/12/1 51/7/1 52/11/1
f 53/12/1 54/13/1 55/8/1 56/7/1

