# Tiled2Unity generated file. Do not modify by hand.
# Wavefront file for 'Test_mesh_0045.obj'

# Vertices (Count = 568)
v -54.30303 -5.818182 0
v -55.27273 -5.818182 0
v -55.27273 -4.848485 0
v -54.30303 -4.848485 0
v -55.27273 -5.818182 0
v -56.24242 -5.818182 0
v -56.24242 -4.848485 0
v -55.27273 -4.848485 0
v -56.24242 -5.818182 0
v -57.21212 -5.818182 0
v -57.21212 -4.848485 0
v -56.24242 -4.848485 0
v -57.21212 -5.818182 0
v -58.18182 -5.818182 0
v -58.18182 -4.848485 0
v -57.21212 -4.848485 0
v -58.18182 -5.818182 0
v -59.15152 -5.818182 0
v -59.15152 -4.848485 0
v -58.18182 -4.848485 0
v -59.15152 -5.818182 0
v -60.12122 -5.818182 0
v -60.12122 -4.848485 0
v -59.15152 -4.848485 0
v -60.12122 -5.818182 0
v -61.09091 -5.818182 0
v -61.09091 -4.848485 0
v -60.12122 -4.848485 0
v -69.81818 -5.818182 0
v -70.78788 -5.818182 0
v -70.78788 -4.848485 0
v -69.81818 -4.848485 0
v -70.78788 -5.818182 0
v -71.75758 -5.818182 0
v -71.75758 -4.848485 0
v -70.78788 -4.848485 0
v -71.75758 -5.818182 0
v -72.72727 -5.818182 0
v -72.72727 -4.848485 0
v -71.75758 -4.848485 0
v -72.72727 -5.818182 0
v -73.69698 -5.818182 0
v -73.69698 -4.848485 0
v -72.72727 -4.848485 0
v -73.69698 -5.818182 0
v -74.66667 -5.818182 0
v -74.66667 -4.848485 0
v -73.69698 -4.848485 0
v -74.66667 -5.818182 0
v -75.63637 -5.818182 0
v -75.63637 -4.848485 0
v -74.66667 -4.848485 0
v -75.63637 -5.818182 0
v -76.60606 -5.818182 0
v -76.60606 -4.848485 0
v -75.63637 -4.848485 0
v -5.818182 -6.787879 0
v -6.787879 -6.787879 0
v -6.787879 -5.818182 0
v -5.818182 -5.818182 0
v -6.787879 -6.787879 0
v -7.757576 -6.787879 0
v -7.757576 -5.818182 0
v -6.787879 -5.818182 0
v -8.727273 -6.787879 0
v -9.69697 -6.787879 0
v -9.69697 -5.818182 0
v -8.727273 -5.818182 0
v -16.48485 -6.787879 0
v -17.45455 -6.787879 0
v -17.45455 -5.818182 0
v -16.48485 -5.818182 0
v -18.42424 -6.787879 0
v -19.39394 -6.787879 0
v -19.39394 -5.818182 0
v -18.42424 -5.818182 0
v -19.39394 -6.787879 0
v -20.36364 -6.787879 0
v -20.36364 -5.818182 0
v -19.39394 -5.818182 0
v -54.30303 -6.787879 0
v -55.27273 -6.787879 0
v -55.27273 -5.818182 0
v -54.30303 -5.818182 0
v -55.27273 -6.787879 0
v -56.24242 -6.787879 0
v -56.24242 -5.818182 0
v -55.27273 -5.818182 0
v -56.24242 -6.787879 0
v -57.21212 -6.787879 0
v -57.21212 -5.818182 0
v -56.24242 -5.818182 0
v -57.21212 -6.787879 0
v -58.18182 -6.787879 0
v -58.18182 -5.818182 0
v -57.21212 -5.818182 0
v -58.18182 -6.787879 0
v -59.15152 -6.787879 0
v -59.15152 -5.818182 0
v -58.18182 -5.818182 0
v -59.15152 -6.787879 0
v -60.12122 -6.787879 0
v -60.12122 -5.818182 0
v -59.15152 -5.818182 0
v -60.12122 -6.787879 0
v -61.09091 -6.787879 0
v -61.09091 -5.818182 0
v -60.12122 -5.818182 0
v -69.81818 -6.787879 0
v -70.78788 -6.787879 0
v -70.78788 -5.818182 0
v -69.81818 -5.818182 0
v -70.78788 -6.787879 0
v -71.75758 -6.787879 0
v -71.75758 -5.818182 0
v -70.78788 -5.818182 0
v -71.75758 -6.787879 0
v -72.72727 -6.787879 0
v -72.72727 -5.818182 0
v -71.75758 -5.818182 0
v -72.72727 -6.787879 0
v -73.69698 -6.787879 0
v -73.69698 -5.818182 0
v -72.72727 -5.818182 0
v -73.69698 -6.787879 0
v -74.66667 -6.787879 0
v -74.66667 -5.818182 0
v -73.69698 -5.818182 0
v -74.66667 -6.787879 0
v -75.63637 -6.787879 0
v -75.63637 -5.818182 0
v -74.66667 -5.818182 0
v -75.63637 -6.787879 0
v -76.60606 -6.787879 0
v -76.60606 -5.818182 0
v -75.63637 -5.818182 0
v -5.818182 -7.757576 0
v -6.787879 -7.757576 0
v -6.787879 -6.787879 0
v -5.818182 -6.787879 0
v -6.787879 -7.757576 0
v -7.757576 -7.757576 0
v -7.757576 -6.787879 0
v -6.787879 -6.787879 0
v -8.727273 -7.757576 0
v -9.69697 -7.757576 0
v -9.69697 -6.787879 0
v -8.727273 -6.787879 0
v -16.48485 -7.757576 0
v -17.45455 -7.757576 0
v -17.45455 -6.787879 0
v -16.48485 -6.787879 0
v -18.42424 -7.757576 0
v -19.39394 -7.757576 0
v -19.39394 -6.787879 0
v -18.42424 -6.787879 0
v -19.39394 -7.757576 0
v -20.36364 -7.757576 0
v -20.36364 -6.787879 0
v -19.39394 -6.787879 0
v -62.06061 -8.727273 0
v -63.0303 -8.727273 0
v -63.0303 -7.757576 0
v -62.06061 -7.757576 0
v -77.57576 -8.727273 0
v -78.54546 -8.727273 0
v -78.54546 -7.757576 0
v -77.57576 -7.757576 0
v -62.06061 -9.69697 0
v -63.0303 -9.69697 0
v -63.0303 -8.727273 0
v -62.06061 -8.727273 0
v -77.57576 -9.69697 0
v -78.54546 -9.69697 0
v -78.54546 -8.727273 0
v -77.57576 -8.727273 0
v -51.39394 -18.42424 0
v -52.36364 -18.42424 0
v -52.36364 -17.45455 0
v -51.39394 -17.45455 0
v -53.33334 -18.42424 0
v -54.30303 -18.42424 0
v -54.30303 -17.45455 0
v -53.33334 -17.45455 0
v -59.15152 -18.42424 0
v -60.12122 -18.42424 0
v -60.12122 -17.45455 0
v -59.15152 -17.45455 0
v -61.09091 -18.42424 0
v -62.06061 -18.42424 0
v -62.06061 -17.45455 0
v -61.09091 -17.45455 0
v -51.39394 -19.39394 0
v -52.36364 -19.39394 0
v -52.36364 -18.42424 0
v -51.39394 -18.42424 0
v -53.33334 -19.39394 0
v -54.30303 -19.39394 0
v -54.30303 -18.42424 0
v -53.33334 -18.42424 0
v -59.15152 -19.39394 0
v -60.12122 -19.39394 0
v -60.12122 -18.42424 0
v -59.15152 -18.42424 0
v -61.09091 -19.39394 0
v -62.06061 -19.39394 0
v -62.06061 -18.42424 0
v -61.09091 -18.42424 0
v -51.39394 -20.36364 0
v -52.36364 -20.36364 0
v -52.36364 -19.39394 0
v -51.39394 -19.39394 0
v -53.33334 -20.36364 0
v -54.30303 -20.36364 0
v -54.30303 -19.39394 0
v -53.33334 -19.39394 0
v -55.27273 -20.36364 0
v -56.24242 -20.36364 0
v -56.24242 -19.39394 0
v -55.27273 -19.39394 0
v -57.21212 -20.36364 0
v -58.18182 -20.36364 0
v -58.18182 -19.39394 0
v -57.21212 -19.39394 0
v -59.15152 -20.36364 0
v -60.12122 -20.36364 0
v -60.12122 -19.39394 0
v -59.15152 -19.39394 0
v -61.09091 -20.36364 0
v -62.06061 -20.36364 0
v -62.06061 -19.39394 0
v -61.09091 -19.39394 0
v -12.60606 -21.33333 0
v -13.57576 -21.33333 0
v -13.57576 -20.36364 0
v -12.60606 -20.36364 0
v -13.57576 -21.33333 0
v -14.54545 -21.33333 0
v -14.54545 -20.36364 0
v -13.57576 -20.36364 0
v -15.51515 -21.33333 0
v -16.48485 -21.33333 0
v -16.48485 -20.36364 0
v -15.51515 -20.36364 0
v -23.27273 -21.33333 0
v -24.24242 -21.33333 0
v -24.24242 -20.36364 0
v -23.27273 -20.36364 0
v -25.21212 -21.33333 0
v -26.18182 -21.33333 0
v -26.18182 -20.36364 0
v -25.21212 -20.36364 0
v -26.18182 -21.33333 0
v -27.15152 -21.33333 0
v -27.15152 -20.36364 0
v -26.18182 -20.36364 0
v -51.39394 -21.33333 0
v -52.36364 -21.33333 0
v -52.36364 -20.36364 0
v -51.39394 -20.36364 0
v -53.33334 -21.33333 0
v -54.30303 -21.33333 0
v -54.30303 -20.36364 0
v -53.33334 -20.36364 0
v -55.27273 -21.33333 0
v -56.24242 -21.33333 0
v -56.24242 -20.36364 0
v -55.27273 -20.36364 0
v -57.21212 -21.33333 0
v -58.18182 -21.33333 0
v -58.18182 -20.36364 0
v -57.21212 -20.36364 0
v -59.15152 -21.33333 0
v -60.12122 -21.33333 0
v -60.12122 -20.36364 0
v -59.15152 -20.36364 0
v -61.09091 -21.33333 0
v -62.06061 -21.33333 0
v -62.06061 -20.36364 0
v -61.09091 -20.36364 0
v -12.60606 -22.30303 0
v -13.57576 -22.30303 0
v -13.57576 -21.33333 0
v -12.60606 -21.33333 0
v -13.57576 -22.30303 0
v -14.54545 -22.30303 0
v -14.54545 -21.33333 0
v -13.57576 -21.33333 0
v -15.51515 -22.30303 0
v -16.48485 -22.30303 0
v -16.48485 -21.33333 0
v -15.51515 -21.33333 0
v -23.27273 -22.30303 0
v -24.24242 -22.30303 0
v -24.24242 -21.33333 0
v -23.27273 -21.33333 0
v -25.21212 -22.30303 0
v -26.18182 -22.30303 0
v -26.18182 -21.33333 0
v -25.21212 -21.33333 0
v -26.18182 -22.30303 0
v -27.15152 -22.30303 0
v -27.15152 -21.33333 0
v -26.18182 -21.33333 0
v -51.39394 -22.30303 0
v -52.36364 -22.30303 0
v -52.36364 -21.33333 0
v -51.39394 -21.33333 0
v -53.33334 -22.30303 0
v -54.30303 -22.30303 0
v -54.30303 -21.33333 0
v -53.33334 -21.33333 0
v -55.27273 -22.30303 0
v -56.24242 -22.30303 0
v -56.24242 -21.33333 0
v -55.27273 -21.33333 0
v -57.21212 -22.30303 0
v -58.18182 -22.30303 0
v -58.18182 -21.33333 0
v -57.21212 -21.33333 0
v -59.15152 -22.30303 0
v -60.12122 -22.30303 0
v -60.12122 -21.33333 0
v -59.15152 -21.33333 0
v -61.09091 -22.30303 0
v -62.06061 -22.30303 0
v -62.06061 -21.33333 0
v -61.09091 -21.33333 0
v -12.60606 -23.27273 0
v -13.57576 -23.27273 0
v -13.57576 -22.30303 0
v -12.60606 -22.30303 0
v -13.57576 -23.27273 0
v -14.54545 -23.27273 0
v -14.54545 -22.30303 0
v -13.57576 -22.30303 0
v -15.51515 -23.27273 0
v -16.48485 -23.27273 0
v -16.48485 -22.30303 0
v -15.51515 -22.30303 0
v -23.27273 -23.27273 0
v -24.24242 -23.27273 0
v -24.24242 -22.30303 0
v -23.27273 -22.30303 0
v -25.21212 -23.27273 0
v -26.18182 -23.27273 0
v -26.18182 -22.30303 0
v -25.21212 -22.30303 0
v -26.18182 -23.27273 0
v -27.15152 -23.27273 0
v -27.15152 -22.30303 0
v -26.18182 -22.30303 0
v -51.39394 -23.27273 0
v -52.36364 -23.27273 0
v -52.36364 -22.30303 0
v -51.39394 -22.30303 0
v -53.33334 -23.27273 0
v -54.30303 -23.27273 0
v -54.30303 -22.30303 0
v -53.33334 -22.30303 0
v -59.15152 -23.27273 0
v -60.12122 -23.27273 0
v -60.12122 -22.30303 0
v -59.15152 -22.30303 0
v -61.09091 -23.27273 0
v -62.06061 -23.27273 0
v -62.06061 -22.30303 0
v -61.09091 -22.30303 0
v -12.60606 -24.24242 0
v -13.57576 -24.24242 0
v -13.57576 -23.27273 0
v -12.60606 -23.27273 0
v -13.57576 -24.24242 0
v -14.54545 -24.24242 0
v -14.54545 -23.27273 0
v -13.57576 -23.27273 0
v -15.51515 -24.24242 0
v -16.48485 -24.24242 0
v -16.48485 -23.27273 0
v -15.51515 -23.27273 0
v -23.27273 -24.24242 0
v -24.24242 -24.24242 0
v -24.24242 -23.27273 0
v -23.27273 -23.27273 0
v -25.21212 -24.24242 0
v -26.18182 -24.24242 0
v -26.18182 -23.27273 0
v -25.21212 -23.27273 0
v -26.18182 -24.24242 0
v -27.15152 -24.24242 0
v -27.15152 -23.27273 0
v -26.18182 -23.27273 0
v -34.90909 -24.24242 0
v -35.87879 -24.24242 0
v -35.87879 -23.27273 0
v -34.90909 -23.27273 0
v -36.84849 -24.24242 0
v -37.81818 -24.24242 0
v -37.81818 -23.27273 0
v -36.84849 -23.27273 0
v -43.63636 -24.24242 0
v -44.60606 -24.24242 0
v -44.60606 -23.27273 0
v -43.63636 -23.27273 0
v -45.57576 -24.24242 0
v -46.54546 -24.24242 0
v -46.54546 -23.27273 0
v -45.57576 -23.27273 0
v -34.90909 -25.21212 0
v -35.87879 -25.21212 0
v -35.87879 -24.24242 0
v -34.90909 -24.24242 0
v -36.84849 -25.21212 0
v -37.81818 -25.21212 0
v -37.81818 -24.24242 0
v -36.84849 -24.24242 0
v -43.63636 -25.21212 0
v -44.60606 -25.21212 0
v -44.60606 -24.24242 0
v -43.63636 -24.24242 0
v -45.57576 -25.21212 0
v -46.54546 -25.21212 0
v -46.54546 -24.24242 0
v -45.57576 -24.24242 0
v -43.63636 -35.87879 0
v -44.60606 -35.87879 0
v -44.60606 -34.90909 0
v -43.63636 -34.90909 0
v -45.57576 -35.87879 0
v -46.54546 -35.87879 0
v -46.54546 -34.90909 0
v -45.57576 -34.90909 0
v -47.51515 -35.87879 0
v -48.48485 -35.87879 0
v -48.48485 -34.90909 0
v -47.51515 -34.90909 0
v -49.45455 -35.87879 0
v -50.42424 -35.87879 0
v -50.42424 -34.90909 0
v -49.45455 -34.90909 0
v -51.39394 -35.87879 0
v -52.36364 -35.87879 0
v -52.36364 -34.90909 0
v -51.39394 -34.90909 0
v -53.33334 -35.87879 0
v -54.30303 -35.87879 0
v -54.30303 -34.90909 0
v -53.33334 -34.90909 0
v -55.27273 -35.87879 0
v -56.24242 -35.87879 0
v -56.24242 -34.90909 0
v -55.27273 -34.90909 0
v -57.21212 -35.87879 0
v -58.18182 -35.87879 0
v -58.18182 -34.90909 0
v -57.21212 -34.90909 0
v -59.15152 -35.87879 0
v -60.12122 -35.87879 0
v -60.12122 -34.90909 0
v -59.15152 -34.90909 0
v -61.09091 -35.87879 0
v -62.06061 -35.87879 0
v -62.06061 -34.90909 0
v -61.09091 -34.90909 0
v -43.63636 -36.84849 0
v -44.60606 -36.84849 0
v -44.60606 -35.87879 0
v -43.63636 -35.87879 0
v -45.57576 -36.84849 0
v -46.54546 -36.84849 0
v -46.54546 -35.87879 0
v -45.57576 -35.87879 0
v -47.51515 -36.84849 0
v -48.48485 -36.84849 0
v -48.48485 -35.87879 0
v -47.51515 -35.87879 0
v -57.21212 -36.84849 0
v -58.18182 -36.84849 0
v -58.18182 -35.87879 0
v -57.21212 -35.87879 0
v -59.15152 -36.84849 0
v -60.12122 -36.84849 0
v -60.12122 -35.87879 0
v -59.15152 -35.87879 0
v -61.09091 -36.84849 0
v -62.06061 -36.84849 0
v -62.06061 -35.87879 0
v -61.09091 -35.87879 0
v -43.63636 -37.81818 0
v -44.60606 -37.81818 0
v -44.60606 -36.84849 0
v -43.63636 -36.84849 0
v -45.57576 -37.81818 0
v -46.54546 -37.81818 0
v -46.54546 -36.84849 0
v -45.57576 -36.84849 0
v -47.51515 -37.81818 0
v -48.48485 -37.81818 0
v -48.48485 -36.84849 0
v -47.51515 -36.84849 0
v -57.21212 -37.81818 0
v -58.18182 -37.81818 0
v -58.18182 -36.84849 0
v -57.21212 -36.84849 0
v -59.15152 -37.81818 0
v -60.12122 -37.81818 0
v -60.12122 -36.84849 0
v -59.15152 -36.84849 0
v -61.09091 -37.81818 0
v -62.06061 -37.81818 0
v -62.06061 -36.84849 0
v -61.09091 -36.84849 0
v -43.63636 -38.78788 0
v -44.60606 -38.78788 0
v -44.60606 -37.81818 0
v -43.63636 -37.81818 0
v -45.57576 -38.78788 0
v -46.54546 -38.78788 0
v -46.54546 -37.81818 0
v -45.57576 -37.81818 0
v -47.51515 -38.78788 0
v -48.48485 -38.78788 0
v -48.48485 -37.81818 0
v -47.51515 -37.81818 0
v -49.45455 -38.78788 0
v -50.42424 -38.78788 0
v -50.42424 -37.81818 0
v -49.45455 -37.81818 0
v -55.27273 -38.78788 0
v -56.24242 -38.78788 0
v -56.24242 -37.81818 0
v -55.27273 -37.81818 0
v -57.21212 -38.78788 0
v -58.18182 -38.78788 0
v -58.18182 -37.81818 0
v -57.21212 -37.81818 0
v -59.15152 -38.78788 0
v -60.12122 -38.78788 0
v -60.12122 -37.81818 0
v -59.15152 -37.81818 0
v -61.09091 -38.78788 0
v -62.06061 -38.78788 0
v -62.06061 -37.81818 0
v -61.09091 -37.81818 0
v -1.939394 -39.75758 0
v -2.909091 -39.75758 0
v -2.909091 -38.78788 0
v -1.939394 -38.78788 0
v -3.878788 -39.75758 0
v -4.848485 -39.75758 0
v -4.848485 -38.78788 0
v -3.878788 -38.78788 0
v -49.45455 -39.75758 0
v -50.42424 -39.75758 0
v -50.42424 -38.78788 0
v -49.45455 -38.78788 0
v -55.27273 -39.75758 0
v -56.24242 -39.75758 0
v -56.24242 -38.78788 0
v -55.27273 -38.78788 0
v -1.939394 -40.72727 0
v -2.909091 -40.72727 0
v -2.909091 -39.75758 0
v -1.939394 -39.75758 0
v -3.878788 -40.72727 0
v -4.848485 -40.72727 0
v -4.848485 -39.75758 0
v -3.878788 -39.75758 0

# Texture cooridinates (Count = 8)
vt 0.8888889 0.8571429
vt 1 0.8571429
vt 1 1
vt 0.8888889 1
vt 0.8888889 0.7142857
vt 1 0.7142857
vt 0.7777778 0.8571429
vt 0.7777778 1

# Normal
vn 0 0 -1

# Mesh description
g Test_mesh_0045

# Faces
f 1/1/1 2/2/1 3/3/1 4/4/1
f 5/1/1 6/2/1 7/3/1 8/4/1
f 9/1/1 10/2/1 11/3/1 12/4/1
f 13/1/1 14/2/1 15/3/1 16/4/1
f 17/1/1 18/2/1 19/3/1 20/4/1
f 21/1/1 22/2/1 23/3/1 24/4/1
f 25/1/1 26/2/1 27/3/1 28/4/1
f 29/1/1 30/2/1 31/3/1 32/4/1
f 33/1/1 34/2/1 35/3/1 36/4/1
f 37/1/1 38/2/1 39/3/1 40/4/1
f 41/1/1 42/2/1 43/3/1 44/4/1
f 45/1/1 46/2/1 47/3/1 48/4/1
f 49/1/1 50/2/1 51/3/1 52/4/1
f 53/1/1 54/2/1 55/3/1 56/4/1
f 57/1/1 58/2/1 59/3/1 60/4/1
f 61/1/1 62/2/1 63/3/1 64/4/1
f 65/1/1 66/2/1 67/3/1 68/4/1
f 69/1/1 70/2/1 71/3/1 72/4/1
f 73/1/1 74/2/1 75/3/1 76/4/1
f 77/1/1 78/2/1 79/3/1 80/4/1
f 81/5/1 82/6/1 83/2/1 84/1/1
f 85/5/1 86/6/1 87/2/1 88/1/1
f 89/5/1 90/6/1 91/2/1 92/1/1
f 93/5/1 94/6/1 95/2/1 96/1/1
f 97/5/1 98/6/1 99/2/1 100/1/1
f 101/5/1 102/6/1 103/2/1 104/1/1
f 105/5/1 106/6/1 107/2/1 108/1/1
f 109/5/1 110/6/1 111/2/1 112/1/1
f 113/5/1 114/6/1 115/2/1 116/1/1
f 117/5/1 118/6/1 119/2/1 120/1/1
f 121/5/1 122/6/1 123/2/1 124/1/1
f 125/5/1 126/6/1 127/2/1 128/1/1
f 129/5/1 130/6/1 131/2/1 132/1/1
f 133/5/1 134/6/1 135/2/1 136/1/1
f 137/5/1 138/6/1 139/2/1 140/1/1
f 141/5/1 142/6/1 143/2/1 144/1/1
f 145/5/1 146/6/1 147/2/1 148/1/1
f 149/5/1 150/6/1 151/2/1 152/1/1
f 153/5/1 154/6/1 155/2/1 156/1/1
f 157/5/1 158/6/1 159/2/1 160/1/1
f 161/1/1 162/2/1 163/3/1 164/4/1
f 165/1/1 166/2/1 167/3/1 168/4/1
f 169/5/1 170/6/1 171/2/1 172/1/1
f 173/5/1 174/6/1 175/2/1 176/1/1
f 177/1/1 178/2/1 179/3/1 180/4/1
f 181/1/1 182/2/1 183/3/1 184/4/1
f 185/1/1 186/2/1 187/3/1 188/4/1
f 189/1/1 190/2/1 191/3/1 192/4/1
f 193/7/1 194/1/1 195/4/1 196/8/1
f 197/7/1 198/1/1 199/4/1 200/8/1
f 201/7/1 202/1/1 203/4/1 204/8/1
f 205/7/1 206/1/1 207/4/1 208/8/1
f 209/5/1 210/6/1 211/2/1 212/1/1
f 213/5/1 214/6/1 215/2/1 216/1/1
f 217/1/1 218/2/1 219/3/1 220/4/1
f 221/1/1 222/2/1 223/3/1 224/4/1
f 225/5/1 226/6/1 227/2/1 228/1/1
f 229/5/1 230/6/1 231/2/1 232/1/1
f 233/1/1 234/2/1 235/3/1 236/4/1
f 237/1/1 238/2/1 239/3/1 240/4/1
f 241/1/1 242/2/1 243/3/1 244/4/1
f 245/1/1 246/2/1 247/3/1 248/4/1
f 249/1/1 250/2/1 251/3/1 252/4/1
f 253/1/1 254/2/1 255/3/1 256/4/1
f 257/1/1 258/2/1 259/3/1 260/4/1
f 261/1/1 262/2/1 263/3/1 264/4/1
f 265/7/1 266/1/1 267/4/1 268/8/1
f 269/7/1 270/1/1 271/4/1 272/8/1
f 273/1/1 274/2/1 275/3/1 276/4/1
f 277/1/1 278/2/1 279/3/1 280/4/1
f 281/5/1 282/6/1 283/2/1 284/1/1
f 285/5/1 286/6/1 287/2/1 288/1/1
f 289/5/1 290/6/1 291/2/1 292/1/1
f 293/5/1 294/6/1 295/2/1 296/1/1
f 297/5/1 298/6/1 299/2/1 300/1/1
f 301/5/1 302/6/1 303/2/1 304/1/1
f 305/7/1 306/1/1 307/4/1 308/8/1
f 309/7/1 310/1/1 311/4/1 312/8/1
f 313/5/1 314/6/1 315/2/1 316/1/1
f 317/5/1 318/6/1 319/2/1 320/1/1
f 321/7/1 322/1/1 323/4/1 324/8/1
f 325/7/1 326/1/1 327/4/1 328/8/1
f 329/1/1 330/2/1 331/3/1 332/4/1
f 333/1/1 334/2/1 335/3/1 336/4/1
f 337/1/1 338/2/1 339/3/1 340/4/1
f 341/1/1 342/2/1 343/3/1 344/4/1
f 345/1/1 346/2/1 347/3/1 348/4/1
f 349/1/1 350/2/1 351/3/1 352/4/1
f 353/5/1 354/6/1 355/2/1 356/1/1
f 357/5/1 358/6/1 359/2/1 360/1/1
f 361/5/1 362/6/1 363/2/1 364/1/1
f 365/5/1 366/6/1 367/2/1 368/1/1
f 369/5/1 370/6/1 371/2/1 372/1/1
f 373/5/1 374/6/1 375/2/1 376/1/1
f 377/5/1 378/6/1 379/2/1 380/1/1
f 381/5/1 382/6/1 383/2/1 384/1/1
f 385/5/1 386/6/1 387/2/1 388/1/1
f 389/5/1 390/6/1 391/2/1 392/1/1
f 393/1/1 394/2/1 395/3/1 396/4/1
f 397/1/1 398/2/1 399/3/1 400/4/1
f 401/1/1 402/2/1 403/3/1 404/4/1
f 405/1/1 406/2/1 407/3/1 408/4/1
f 409/5/1 410/6/1 411/2/1 412/1/1
f 413/5/1 414/6/1 415/2/1 416/1/1
f 417/5/1 418/6/1 419/2/1 420/1/1
f 421/5/1 422/6/1 423/2/1 424/1/1
f 425/1/1 426/2/1 427/3/1 428/4/1
f 429/1/1 430/2/1 431/3/1 432/4/1
f 433/1/1 434/2/1 435/3/1 436/4/1
f 437/1/1 438/2/1 439/3/1 440/4/1
f 441/1/1 442/2/1 443/3/1 444/4/1
f 445/1/1 446/2/1 447/3/1 448/4/1
f 449/1/1 450/2/1 451/3/1 452/4/1
f 453/1/1 454/2/1 455/3/1 456/4/1
f 457/1/1 458/2/1 459/3/1 460/4/1
f 461/1/1 462/2/1 463/3/1 464/4/1
f 465/7/1 466/1/1 467/4/1 468/8/1
f 469/7/1 470/1/1 471/4/1 472/8/1
f 473/7/1 474/1/1 475/4/1 476/8/1
f 477/7/1 478/1/1 479/4/1 480/8/1
f 481/7/1 482/1/1 483/4/1 484/8/1
f 485/7/1 486/1/1 487/4/1 488/8/1
f 489/7/1 490/1/1 491/4/1 492/8/1
f 493/7/1 494/1/1 495/4/1 496/8/1
f 497/7/1 498/1/1 499/4/1 500/8/1
f 501/7/1 502/1/1 503/4/1 504/8/1
f 505/7/1 506/1/1 507/4/1 508/8/1
f 509/7/1 510/1/1 511/4/1 512/8/1
f 513/5/1 514/6/1 515/2/1 516/1/1
f 517/5/1 518/6/1 519/2/1 520/1/1
f 521/5/1 522/6/1 523/2/1 524/1/1
f 525/1/1 526/2/1 527/3/1 528/4/1
f 529/1/1 530/2/1 531/3/1 532/4/1
f 533/5/1 534/6/1 535/2/1 536/1/1
f 537/5/1 538/6/1 539/2/1 540/1/1
f 541/5/1 542/6/1 543/2/1 544/1/1
f 545/1/1 546/2/1 547/3/1 548/4/1
f 549/1/1 550/2/1 551/3/1 552/4/1
f 553/5/1 554/6/1 555/2/1 556/1/1
f 557/5/1 558/6/1 559/2/1 560/1/1
f 561/5/1 562/6/1 563/2/1 564/1/1
f 565/5/1 566/6/1 567/2/1 568/1/1

