# Tiled2Unity generated file. Do not modify by hand.
# Wavefront file for 'Test_mesh_0037.obj'

# Vertices (Count = 404)
v -15.51515 -32.9697 0
v -16.48485 -32.9697 0
v -16.48485 -32 0
v -15.51515 -32 0
v -16.48485 -32.9697 0
v -17.45455 -32.9697 0
v -17.45455 -32 0
v -16.48485 -32 0
v -17.45455 -32.9697 0
v -18.42424 -32.9697 0
v -18.42424 -32 0
v -17.45455 -32 0
v -18.42424 -32.9697 0
v -19.39394 -32.9697 0
v -19.39394 -32 0
v -18.42424 -32 0
v -24.24242 -32.9697 0
v -25.21212 -32.9697 0
v -25.21212 -32 0
v -24.24242 -32 0
v -25.21212 -32.9697 0
v -26.18182 -32.9697 0
v -26.18182 -32 0
v -25.21212 -32 0
v -26.18182 -32.9697 0
v -27.15152 -32.9697 0
v -27.15152 -32 0
v -26.18182 -32 0
v -27.15152 -32.9697 0
v -28.12121 -32.9697 0
v -28.12121 -32 0
v -27.15152 -32 0
v -15.51515 -33.9394 0
v -16.48485 -33.9394 0
v -16.48485 -32.9697 0
v -15.51515 -32.9697 0
v -16.48485 -33.9394 0
v -17.45455 -33.9394 0
v -17.45455 -32.9697 0
v -16.48485 -32.9697 0
v -17.45455 -33.9394 0
v -18.42424 -33.9394 0
v -18.42424 -32.9697 0
v -17.45455 -32.9697 0
v -18.42424 -33.9394 0
v -19.39394 -33.9394 0
v -19.39394 -32.9697 0
v -18.42424 -32.9697 0
v -19.39394 -33.9394 0
v -20.36364 -33.9394 0
v -20.36364 -32.9697 0
v -19.39394 -32.9697 0
v -20.36364 -33.9394 0
v -21.33333 -33.9394 0
v -21.33333 -32.9697 0
v -20.36364 -32.9697 0
v -21.33333 -33.9394 0
v -22.30303 -33.9394 0
v -22.30303 -32.9697 0
v -21.33333 -32.9697 0
v -22.30303 -33.9394 0
v -23.27273 -33.9394 0
v -23.27273 -32.9697 0
v -22.30303 -32.9697 0
v -23.27273 -33.9394 0
v -24.24242 -33.9394 0
v -24.24242 -32.9697 0
v -23.27273 -32.9697 0
v -24.24242 -33.9394 0
v -25.21212 -33.9394 0
v -25.21212 -32.9697 0
v -24.24242 -32.9697 0
v -25.21212 -33.9394 0
v -26.18182 -33.9394 0
v -26.18182 -32.9697 0
v -25.21212 -32.9697 0
v -26.18182 -33.9394 0
v -27.15152 -33.9394 0
v -27.15152 -32.9697 0
v -26.18182 -32.9697 0
v -27.15152 -33.9394 0
v -28.12121 -33.9394 0
v -28.12121 -32.9697 0
v -27.15152 -32.9697 0
v -15.51515 -34.90909 0
v -16.48485 -34.90909 0
v -16.48485 -33.9394 0
v -15.51515 -33.9394 0
v -16.48485 -34.90909 0
v -17.45455 -34.90909 0
v -17.45455 -33.9394 0
v -16.48485 -33.9394 0
v -17.45455 -34.90909 0
v -18.42424 -34.90909 0
v -18.42424 -33.9394 0
v -17.45455 -33.9394 0
v -18.42424 -34.90909 0
v -19.39394 -34.90909 0
v -19.39394 -33.9394 0
v -18.42424 -33.9394 0
v -19.39394 -34.90909 0
v -20.36364 -34.90909 0
v -20.36364 -33.9394 0
v -19.39394 -33.9394 0
v -20.36364 -34.90909 0
v -21.33333 -34.90909 0
v -21.33333 -33.9394 0
v -20.36364 -33.9394 0
v -21.33333 -34.90909 0
v -22.30303 -34.90909 0
v -22.30303 -33.9394 0
v -21.33333 -33.9394 0
v -22.30303 -34.90909 0
v -23.27273 -34.90909 0
v -23.27273 -33.9394 0
v -22.30303 -33.9394 0
v -23.27273 -34.90909 0
v -24.24242 -34.90909 0
v -24.24242 -33.9394 0
v -23.27273 -33.9394 0
v -24.24242 -34.90909 0
v -25.21212 -34.90909 0
v -25.21212 -33.9394 0
v -24.24242 -33.9394 0
v -25.21212 -34.90909 0
v -26.18182 -34.90909 0
v -26.18182 -33.9394 0
v -25.21212 -33.9394 0
v -26.18182 -34.90909 0
v -27.15152 -34.90909 0
v -27.15152 -33.9394 0
v -26.18182 -33.9394 0
v -27.15152 -34.90909 0
v -28.12121 -34.90909 0
v -28.12121 -33.9394 0
v -27.15152 -33.9394 0
v -15.51515 -35.87879 0
v -16.48485 -35.87879 0
v -16.48485 -34.90909 0
v -15.51515 -34.90909 0
v -16.48485 -35.87879 0
v -17.45455 -35.87879 0
v -17.45455 -34.90909 0
v -16.48485 -34.90909 0
v -17.45455 -35.87879 0
v -18.42424 -35.87879 0
v -18.42424 -34.90909 0
v -17.45455 -34.90909 0
v -18.42424 -35.87879 0
v -19.39394 -35.87879 0
v -19.39394 -34.90909 0
v -18.42424 -34.90909 0
v -19.39394 -35.87879 0
v -20.36364 -35.87879 0
v -20.36364 -34.90909 0
v -19.39394 -34.90909 0
v -20.36364 -35.87879 0
v -21.33333 -35.87879 0
v -21.33333 -34.90909 0
v -20.36364 -34.90909 0
v -21.33333 -35.87879 0
v -22.30303 -35.87879 0
v -22.30303 -34.90909 0
v -21.33333 -34.90909 0
v -22.30303 -35.87879 0
v -23.27273 -35.87879 0
v -23.27273 -34.90909 0
v -22.30303 -34.90909 0
v -23.27273 -35.87879 0
v -24.24242 -35.87879 0
v -24.24242 -34.90909 0
v -23.27273 -34.90909 0
v -24.24242 -35.87879 0
v -25.21212 -35.87879 0
v -25.21212 -34.90909 0
v -24.24242 -34.90909 0
v -25.21212 -35.87879 0
v -26.18182 -35.87879 0
v -26.18182 -34.90909 0
v -25.21212 -34.90909 0
v -26.18182 -35.87879 0
v -27.15152 -35.87879 0
v -27.15152 -34.90909 0
v -26.18182 -34.90909 0
v -27.15152 -35.87879 0
v -28.12121 -35.87879 0
v -28.12121 -34.90909 0
v -27.15152 -34.90909 0
v -15.51515 -36.84849 0
v -16.48485 -36.84849 0
v -16.48485 -35.87879 0
v -15.51515 -35.87879 0
v -16.48485 -36.84849 0
v -17.45455 -36.84849 0
v -17.45455 -35.87879 0
v -16.48485 -35.87879 0
v -17.45455 -36.84849 0
v -18.42424 -36.84849 0
v -18.42424 -35.87879 0
v -17.45455 -35.87879 0
v -18.42424 -36.84849 0
v -19.39394 -36.84849 0
v -19.39394 -35.87879 0
v -18.42424 -35.87879 0
v -19.39394 -36.84849 0
v -20.36364 -36.84849 0
v -20.36364 -35.87879 0
v -19.39394 -35.87879 0
v -20.36364 -36.84849 0
v -21.33333 -36.84849 0
v -21.33333 -35.87879 0
v -20.36364 -35.87879 0
v -21.33333 -36.84849 0
v -22.30303 -36.84849 0
v -22.30303 -35.87879 0
v -21.33333 -35.87879 0
v -22.30303 -36.84849 0
v -23.27273 -36.84849 0
v -23.27273 -35.87879 0
v -22.30303 -35.87879 0
v -23.27273 -36.84849 0
v -24.24242 -36.84849 0
v -24.24242 -35.87879 0
v -23.27273 -35.87879 0
v -24.24242 -36.84849 0
v -25.21212 -36.84849 0
v -25.21212 -35.87879 0
v -24.24242 -35.87879 0
v -25.21212 -36.84849 0
v -26.18182 -36.84849 0
v -26.18182 -35.87879 0
v -25.21212 -35.87879 0
v -26.18182 -36.84849 0
v -27.15152 -36.84849 0
v -27.15152 -35.87879 0
v -26.18182 -35.87879 0
v -27.15152 -36.84849 0
v -28.12121 -36.84849 0
v -28.12121 -35.87879 0
v -27.15152 -35.87879 0
v -15.51515 -37.81818 0
v -16.48485 -37.81818 0
v -16.48485 -36.84849 0
v -15.51515 -36.84849 0
v -16.48485 -37.81818 0
v -17.45455 -37.81818 0
v -17.45455 -36.84849 0
v -16.48485 -36.84849 0
v -17.45455 -37.81818 0
v -18.42424 -37.81818 0
v -18.42424 -36.84849 0
v -17.45455 -36.84849 0
v -18.42424 -37.81818 0
v -19.39394 -37.81818 0
v -19.39394 -36.84849 0
v -18.42424 -36.84849 0
v -19.39394 -37.81818 0
v -20.36364 -37.81818 0
v -20.36364 -36.84849 0
v -19.39394 -36.84849 0
v -20.36364 -37.81818 0
v -21.33333 -37.81818 0
v -21.33333 -36.84849 0
v -20.36364 -36.84849 0
v -21.33333 -37.81818 0
v -22.30303 -37.81818 0
v -22.30303 -36.84849 0
v -21.33333 -36.84849 0
v -22.30303 -37.81818 0
v -23.27273 -37.81818 0
v -23.27273 -36.84849 0
v -22.30303 -36.84849 0
v -23.27273 -37.81818 0
v -24.24242 -37.81818 0
v -24.24242 -36.84849 0
v -23.27273 -36.84849 0
v -24.24242 -37.81818 0
v -25.21212 -37.81818 0
v -25.21212 -36.84849 0
v -24.24242 -36.84849 0
v -25.21212 -37.81818 0
v -26.18182 -37.81818 0
v -26.18182 -36.84849 0
v -25.21212 -36.84849 0
v -26.18182 -37.81818 0
v -27.15152 -37.81818 0
v -27.15152 -36.84849 0
v -26.18182 -36.84849 0
v -27.15152 -37.81818 0
v -28.12121 -37.81818 0
v -28.12121 -36.84849 0
v -27.15152 -36.84849 0
v -15.51515 -38.78788 0
v -16.48485 -38.78788 0
v -16.48485 -37.81818 0
v -15.51515 -37.81818 0
v -16.48485 -38.78788 0
v -17.45455 -38.78788 0
v -17.45455 -37.81818 0
v -16.48485 -37.81818 0
v -17.45455 -38.78788 0
v -18.42424 -38.78788 0
v -18.42424 -37.81818 0
v -17.45455 -37.81818 0
v -18.42424 -38.78788 0
v -19.39394 -38.78788 0
v -19.39394 -37.81818 0
v -18.42424 -37.81818 0
v -19.39394 -38.78788 0
v -20.36364 -38.78788 0
v -20.36364 -37.81818 0
v -19.39394 -37.81818 0
v -20.36364 -38.78788 0
v -21.33333 -38.78788 0
v -21.33333 -37.81818 0
v -20.36364 -37.81818 0
v -21.33333 -38.78788 0
v -22.30303 -38.78788 0
v -22.30303 -37.81818 0
v -21.33333 -37.81818 0
v -22.30303 -38.78788 0
v -23.27273 -38.78788 0
v -23.27273 -37.81818 0
v -22.30303 -37.81818 0
v -23.27273 -38.78788 0
v -24.24242 -38.78788 0
v -24.24242 -37.81818 0
v -23.27273 -37.81818 0
v -24.24242 -38.78788 0
v -25.21212 -38.78788 0
v -25.21212 -37.81818 0
v -24.24242 -37.81818 0
v -25.21212 -38.78788 0
v -26.18182 -38.78788 0
v -26.18182 -37.81818 0
v -25.21212 -37.81818 0
v -26.18182 -38.78788 0
v -27.15152 -38.78788 0
v -27.15152 -37.81818 0
v -26.18182 -37.81818 0
v -27.15152 -38.78788 0
v -28.12121 -38.78788 0
v -28.12121 -37.81818 0
v -27.15152 -37.81818 0
v -15.51515 -39.75758 0
v -16.48485 -39.75758 0
v -16.48485 -38.78788 0
v -15.51515 -38.78788 0
v -16.48485 -39.75758 0
v -17.45455 -39.75758 0
v -17.45455 -38.78788 0
v -16.48485 -38.78788 0
v -17.45455 -39.75758 0
v -18.42424 -39.75758 0
v -18.42424 -38.78788 0
v -17.45455 -38.78788 0
v -18.42424 -39.75758 0
v -19.39394 -39.75758 0
v -19.39394 -38.78788 0
v -18.42424 -38.78788 0
v -19.39394 -39.75758 0
v -20.36364 -39.75758 0
v -20.36364 -38.78788 0
v -19.39394 -38.78788 0
v -20.36364 -39.75758 0
v -21.33333 -39.75758 0
v -21.33333 -38.78788 0
v -20.36364 -38.78788 0
v -21.33333 -39.75758 0
v -22.30303 -39.75758 0
v -22.30303 -38.78788 0
v -21.33333 -38.78788 0
v -22.30303 -39.75758 0
v -23.27273 -39.75758 0
v -23.27273 -38.78788 0
v -22.30303 -38.78788 0
v -23.27273 -39.75758 0
v -24.24242 -39.75758 0
v -24.24242 -38.78788 0
v -23.27273 -38.78788 0
v -24.24242 -39.75758 0
v -25.21212 -39.75758 0
v -25.21212 -38.78788 0
v -24.24242 -38.78788 0
v -25.21212 -39.75758 0
v -26.18182 -39.75758 0
v -26.18182 -38.78788 0
v -25.21212 -38.78788 0
v -26.18182 -39.75758 0
v -27.15152 -39.75758 0
v -27.15152 -38.78788 0
v -26.18182 -38.78788 0
v -27.15152 -39.75758 0
v -28.12121 -39.75758 0
v -28.12121 -38.78788 0
v -27.15152 -38.78788 0
v -19.39394 -40.72727 0
v -20.36364 -40.72727 0
v -20.36364 -39.75758 0
v -19.39394 -39.75758 0
v -23.27273 -40.72727 0
v -24.24242 -40.72727 0
v -24.24242 -39.75758 0
v -23.27273 -39.75758 0

# Texture cooridinates (Count = 16)
vt 0 0.8571429
vt 0.1111111 0.8571429
vt 0.1111111 1
vt 0 1
vt 0.2222222 0.8571429
vt 0.2222222 1
vt 0.3333333 0.8571429
vt 0.3333333 1
vt 0 0.7142857
vt 0.1111111 0.7142857
vt 0.2222222 0.7142857
vt 0.3333333 0.7142857
vt 0 0.5714285
vt 0.1111111 0.5714285
vt 0.2222222 0.5714285
vt 0.3333333 0.5714285

# Normal
vn 0 0 -1

# Mesh description
g Test_mesh_0037

# Faces
f 1/1/1 2/2/1 3/3/1 4/4/1
f 5/2/1 6/5/1 7/6/1 8/3/1
f 9/2/1 10/5/1 11/6/1 12/3/1
f 13/2/1 14/5/1 15/6/1 16/3/1
f 17/2/1 18/5/1 19/6/1 20/3/1
f 21/2/1 22/5/1 23/6/1 24/3/1
f 25/2/1 26/5/1 27/6/1 28/3/1
f 29/5/1 30/7/1 31/8/1 32/6/1
f 33/9/1 34/10/1 35/2/1 36/1/1
f 37/10/1 38/11/1 39/5/1 40/2/1
f 41/10/1 42/11/1 43/5/1 44/2/1
f 45/10/1 46/11/1 47/5/1 48/2/1
f 49/1/1 50/2/1 51/3/1 52/4/1
f 53/2/1 54/5/1 55/6/1 56/3/1
f 57/2/1 58/5/1 59/6/1 60/3/1
f 61/2/1 62/5/1 63/6/1 64/3/1
f 65/5/1 66/7/1 67/8/1 68/6/1
f 69/10/1 70/11/1 71/5/1 72/2/1
f 73/10/1 74/11/1 75/5/1 76/2/1
f 77/10/1 78/11/1 79/5/1 80/2/1
f 81/11/1 82/12/1 83/7/1 84/5/1
f 85/9/1 86/10/1 87/2/1 88/1/1
f 89/10/1 90/11/1 91/5/1 92/2/1
f 93/10/1 94/11/1 95/5/1 96/2/1
f 97/10/1 98/11/1 99/5/1 100/2/1
f 101/9/1 102/10/1 103/2/1 104/1/1
f 105/10/1 106/11/1 107/5/1 108/2/1
f 109/10/1 110/11/1 111/5/1 112/2/1
f 113/10/1 114/11/1 115/5/1 116/2/1
f 117/11/1 118/12/1 119/7/1 120/5/1
f 121/10/1 122/11/1 123/5/1 124/2/1
f 125/10/1 126/11/1 127/5/1 128/2/1
f 129/10/1 130/11/1 131/5/1 132/2/1
f 133/11/1 134/12/1 135/7/1 136/5/1
f 137/9/1 138/10/1 139/2/1 140/1/1
f 141/10/1 142/11/1 143/5/1 144/2/1
f 145/10/1 146/11/1 147/5/1 148/2/1
f 149/10/1 150/11/1 151/5/1 152/2/1
f 153/9/1 154/10/1 155/2/1 156/1/1
f 157/10/1 158/11/1 159/5/1 160/2/1
f 161/10/1 162/11/1 163/5/1 164/2/1
f 165/10/1 166/11/1 167/5/1 168/2/1
f 169/11/1 170/12/1 171/7/1 172/5/1
f 173/10/1 174/11/1 175/5/1 176/2/1
f 177/10/1 178/11/1 179/5/1 180/2/1
f 181/10/1 182/11/1 183/5/1 184/2/1
f 185/11/1 186/12/1 187/7/1 188/5/1
f 189/9/1 190/10/1 191/2/1 192/1/1
f 193/10/1 194/11/1 195/5/1 196/2/1
f 197/10/1 198/11/1 199/5/1 200/2/1
f 201/10/1 202/11/1 203/5/1 204/2/1
f 205/9/1 206/10/1 207/2/1 208/1/1
f 209/10/1 210/11/1 211/5/1 212/2/1
f 213/10/1 214/11/1 215/5/1 216/2/1
f 217/10/1 218/11/1 219/5/1 220/2/1
f 221/11/1 222/12/1 223/7/1 224/5/1
f 225/10/1 226/11/1 227/5/1 228/2/1
f 229/10/1 230/11/1 231/5/1 232/2/1
f 233/10/1 234/11/1 235/5/1 236/2/1
f 237/11/1 238/12/1 239/7/1 240/5/1
f 241/9/1 242/10/1 243/2/1 244/1/1
f 245/10/1 246/11/1 247/5/1 248/2/1
f 249/10/1 250/11/1 251/5/1 252/2/1
f 253/10/1 254/11/1 255/5/1 256/2/1
f 257/9/1 258/10/1 259/2/1 260/1/1
f 261/10/1 262/11/1 263/5/1 264/2/1
f 265/10/1 266/11/1 267/5/1 268/2/1
f 269/10/1 270/11/1 271/5/1 272/2/1
f 273/11/1 274/12/1 275/7/1 276/5/1
f 277/10/1 278/11/1 279/5/1 280/2/1
f 281/10/1 282/11/1 283/5/1 284/2/1
f 285/10/1 286/11/1 287/5/1 288/2/1
f 289/11/1 290/12/1 291/7/1 292/5/1
f 293/9/1 294/10/1 295/2/1 296/1/1
f 297/10/1 298/11/1 299/5/1 300/2/1
f 301/10/1 302/11/1 303/5/1 304/2/1
f 305/10/1 306/11/1 307/5/1 308/2/1
f 309/9/1 310/10/1 311/2/1 312/1/1
f 313/10/1 314/11/1 315/5/1 316/2/1
f 317/10/1 318/11/1 319/5/1 320/2/1
f 321/10/1 322/11/1 323/5/1 324/2/1
f 325/11/1 326/12/1 327/7/1 328/5/1
f 329/10/1 330/11/1 331/5/1 332/2/1
f 333/10/1 334/11/1 335/5/1 336/2/1
f 337/10/1 338/11/1 339/5/1 340/2/1
f 341/11/1 342/12/1 343/7/1 344/5/1
f 345/13/1 346/14/1 347/10/1 348/9/1
f 349/14/1 350/15/1 351/11/1 352/10/1
f 353/14/1 354/15/1 355/11/1 356/10/1
f 357/14/1 358/15/1 359/11/1 360/10/1
f 361/9/1 362/10/1 363/2/1 364/1/1
f 365/14/1 366/15/1 367/11/1 368/10/1
f 369/14/1 370/15/1 371/11/1 372/10/1
f 373/14/1 374/15/1 375/11/1 376/10/1
f 377/11/1 378/12/1 379/7/1 380/5/1
f 381/14/1 382/15/1 383/11/1 384/10/1
f 385/14/1 386/15/1 387/11/1 388/10/1
f 389/14/1 390/15/1 391/11/1 392/10/1
f 393/15/1 394/16/1 395/12/1 396/11/1
f 397/13/1 398/14/1 399/10/1 400/9/1
f 401/15/1 402/16/1 403/12/1 404/11/1

