# Tiled2Unity generated file. Do not modify by hand.
# Wavefront file for 'Test_mesh_0036.obj'

# Vertices (Count = 24)
v -42.66667 -14.54545 0
v -43.63636 -14.54545 0
v -43.63636 -13.57576 0
v -42.66667 -13.57576 0
v -43.63636 -14.54545 0
v -44.60606 -14.54545 0
v -44.60606 -13.57576 0
v -43.63636 -13.57576 0
v -42.66667 -15.51515 0
v -43.63636 -15.51515 0
v -43.63636 -14.54545 0
v -42.66667 -14.54545 0
v -43.63636 -15.51515 0
v -44.60606 -15.51515 0
v -44.60606 -14.54545 0
v -43.63636 -14.54545 0
v -42.66667 -16.48485 0
v -43.63636 -16.48485 0
v -43.63636 -15.51515 0
v -42.66667 -15.51515 0
v -43.63636 -16.48485 0
v -44.60606 -16.48485 0
v -44.60606 -15.51515 0
v -43.63636 -15.51515 0

# Texture cooridinates (Count = 11)
vt 0.625 0.977931
vt 0.75 0.977931
vt 0.75 1
vt 0.625 1
vt 0.875 0.977931
vt 0.875 1
vt 0.625 0.955862
vt 0.75 0.955862
vt 0.875 0.955862
vt 1 0.955862
vt 1 0.977931

# Normal
vn 0 0 -1

# Mesh description
g Test_mesh_0036

# Faces
f 1/1/1 2/2/1 3/3/1 4/4/1
f 5/2/1 6/5/1 7/6/1 8/3/1
f 9/7/1 10/8/1 11/2/1 12/1/1
f 13/8/1 14/9/1 15/5/1 16/2/1
f 17/9/1 18/10/1 19/11/1 20/5/1
f 21/9/1 22/10/1 23/11/1 24/5/1

