# Tiled2Unity generated file. Do not modify by hand.
# Wavefront file for 'Test_mesh_0028.obj'

# Vertices (Count = 60)
v -95.0303 -44.60606 0
v -96 -44.60606 0
v -96 -43.63636 0
v -95.0303 -43.63636 0
v -96 -44.60606 0
v -96.9697 -44.60606 0
v -96.9697 -43.63636 0
v -96 -43.63636 0
v -96.9697 -44.60606 0
v -97.9394 -44.60606 0
v -97.9394 -43.63636 0
v -96.9697 -43.63636 0
v -97.9394 -44.60606 0
v -98.9091 -44.60606 0
v -98.9091 -43.63636 0
v -97.9394 -43.63636 0
v -98.9091 -44.60606 0
v -99.87879 -44.60606 0
v -99.87879 -43.63636 0
v -98.9091 -43.63636 0
v -95.0303 -45.57576 0
v -96 -45.57576 0
v -96 -44.60606 0
v -95.0303 -44.60606 0
v -96 -45.57576 0
v -96.9697 -45.57576 0
v -96.9697 -44.60606 0
v -96 -44.60606 0
v -96.9697 -45.57576 0
v -97.9394 -45.57576 0
v -97.9394 -44.60606 0
v -96.9697 -44.60606 0
v -97.9394 -45.57576 0
v -98.9091 -45.57576 0
v -98.9091 -44.60606 0
v -97.9394 -44.60606 0
v -98.9091 -45.57576 0
v -99.87879 -45.57576 0
v -99.87879 -44.60606 0
v -98.9091 -44.60606 0
v -95.0303 -46.54546 0
v -96 -46.54546 0
v -96 -45.57576 0
v -95.0303 -45.57576 0
v -96 -46.54546 0
v -96.9697 -46.54546 0
v -96.9697 -45.57576 0
v -96 -45.57576 0
v -96.9697 -46.54546 0
v -97.9394 -46.54546 0
v -97.9394 -45.57576 0
v -96.9697 -45.57576 0
v -97.9394 -46.54546 0
v -98.9091 -46.54546 0
v -98.9091 -45.57576 0
v -97.9394 -45.57576 0
v -98.9091 -46.54546 0
v -99.87879 -46.54546 0
v -99.87879 -45.57576 0
v -98.9091 -45.57576 0

# Texture cooridinates (Count = 24)
vt 1 0.6666666
vt 0.8 0.6666666
vt 0.8 1
vt 1 1
vt 0.6 0.6666666
vt 0.6 1
vt 0.4 0.6666666
vt 0.4 1
vt 0.2 0.6666666
vt 0.2 1
vt 0 0.6666666
vt 0 1
vt 1 0.3333333
vt 0.8 0.3333333
vt 0.6 0.3333333
vt 0.4 0.3333333
vt 0.2 0.3333333
vt 0 0.3333333
vt 1 0
vt 0.8 0
vt 0.6 0
vt 0.4 0
vt 0.2 0
vt 0 0

# Normal
vn 0 0 -1

# Mesh description
g Test_mesh_0028

# Faces
f 1/1/1 2/2/1 3/3/1 4/4/1
f 5/2/1 6/5/1 7/6/1 8/3/1
f 9/5/1 10/7/1 11/8/1 12/6/1
f 13/7/1 14/9/1 15/10/1 16/8/1
f 17/9/1 18/11/1 19/12/1 20/10/1
f 21/13/1 22/14/1 23/2/1 24/1/1
f 25/14/1 26/15/1 27/5/1 28/2/1
f 29/15/1 30/16/1 31/7/1 32/5/1
f 33/16/1 34/17/1 35/9/1 36/7/1
f 37/17/1 38/18/1 39/11/1 40/9/1
f 41/19/1 42/20/1 43/14/1 44/13/1
f 45/20/1 46/21/1 47/15/1 48/14/1
f 49/21/1 50/22/1 51/16/1 52/15/1
f 53/22/1 54/23/1 55/17/1 56/16/1
f 57/23/1 58/24/1 59/18/1 60/17/1

