# Tiled2Unity generated file. Do not modify by hand.
# Wavefront file for 'Test_mesh_0011.obj'

# Vertices (Count = 12)
v -25.21212 -28.12121 0
v -26.18182 -28.12121 0
v -26.18182 -27.15152 0
v -25.21212 -27.15152 0
v -26.18182 -28.12121 0
v -27.15152 -28.12121 0
v -27.15152 -27.15152 0
v -26.18182 -27.15152 0
v -27.15152 -28.12121 0
v -28.12121 -28.12121 0
v -28.12121 -27.15152 0
v -27.15152 -27.15152 0

# Texture cooridinates (Count = 4)
vt 0.125 0.7793103
vt 0.25 0.7793103
vt 0.25 0.8013793
vt 0.125 0.8013793

# Normal
vn 0 0 -1

# Mesh description
g Test_mesh_0011

# Faces
f 1/1/1 2/2/1 3/3/1 4/4/1
f 5/1/1 6/2/1 7/3/1 8/4/1
f 9/1/1 10/2/1 11/3/1 12/4/1

