# Tiled2Unity generated file. Do not modify by hand.
# Wavefront file for 'Test_mesh_0005.obj'

# Vertices (Count = 48)
v -28.12121 -14.54545 0
v -29.09091 -14.54545 0
v -29.09091 -13.57576 0
v -28.12121 -13.57576 0
v -29.09091 -14.54545 0
v -30.06061 -14.54545 0
v -30.06061 -13.57576 0
v -29.09091 -13.57576 0
v -35.87879 -14.54545 0
v -36.84849 -14.54545 0
v -36.84849 -13.57576 0
v -35.87879 -13.57576 0
v -36.84849 -14.54545 0
v -37.81818 -14.54545 0
v -37.81818 -13.57576 0
v -36.84849 -13.57576 0
v -28.12121 -15.51515 0
v -29.09091 -15.51515 0
v -29.09091 -14.54545 0
v -28.12121 -14.54545 0
v -29.09091 -15.51515 0
v -30.06061 -15.51515 0
v -30.06061 -14.54545 0
v -29.09091 -14.54545 0
v -35.87879 -15.51515 0
v -36.84849 -15.51515 0
v -36.84849 -14.54545 0
v -35.87879 -14.54545 0
v -36.84849 -15.51515 0
v -37.81818 -15.51515 0
v -37.81818 -14.54545 0
v -36.84849 -14.54545 0
v -28.12121 -16.48485 0
v -29.09091 -16.48485 0
v -29.09091 -15.51515 0
v -28.12121 -15.51515 0
v -29.09091 -16.48485 0
v -30.06061 -16.48485 0
v -30.06061 -15.51515 0
v -29.09091 -15.51515 0
v -35.87879 -16.48485 0
v -36.84849 -16.48485 0
v -36.84849 -15.51515 0
v -35.87879 -15.51515 0
v -36.84849 -16.48485 0
v -37.81818 -16.48485 0
v -37.81818 -15.51515 0
v -36.84849 -15.51515 0

# Texture cooridinates (Count = 11)
vt 0.625 0.977931
vt 0.75 0.977931
vt 0.75 1
vt 0.625 1
vt 0.875 0.977931
vt 0.875 1
vt 0.625 0.955862
vt 0.75 0.955862
vt 0.875 0.955862
vt 1 0.955862
vt 1 0.977931

# Normal
vn 0 0 -1

# Mesh description
g Test_mesh_0005

# Faces
f 1/1/1 2/2/1 3/3/1 4/4/1
f 5/2/1 6/5/1 7/6/1 8/3/1
f 9/1/1 10/2/1 11/3/1 12/4/1
f 13/2/1 14/5/1 15/6/1 16/3/1
f 17/7/1 18/8/1 19/2/1 20/1/1
f 21/8/1 22/9/1 23/5/1 24/2/1
f 25/7/1 26/8/1 27/2/1 28/1/1
f 29/8/1 30/9/1 31/5/1 32/2/1
f 33/9/1 34/10/1 35/11/1 36/5/1
f 37/9/1 38/10/1 39/11/1 40/5/1
f 41/9/1 42/10/1 43/11/1 44/5/1
f 45/9/1 46/10/1 47/11/1 48/5/1

