# Tiled2Unity generated file. Do not modify by hand.
# Wavefront file for 'Test_mesh_0009.obj'

# Vertices (Count = 48)
v -25.21212 -4.848485 0
v -26.18182 -4.848485 0
v -26.18182 -3.878788 0
v -25.21212 -3.878788 0
v -26.18182 -4.848485 0
v -27.15152 -4.848485 0
v -27.15152 -3.878788 0
v -26.18182 -3.878788 0
v -31.0303 -4.848485 0
v -32 -4.848485 0
v -32 -3.878788 0
v -31.0303 -3.878788 0
v -32 -4.848485 0
v -32.9697 -4.848485 0
v -32.9697 -3.878788 0
v -32 -3.878788 0
v -36.84849 -4.848485 0
v -37.81818 -4.848485 0
v -37.81818 -3.878788 0
v -36.84849 -3.878788 0
v -37.81818 -4.848485 0
v -38.78788 -4.848485 0
v -38.78788 -3.878788 0
v -37.81818 -3.878788 0
v -25.21212 -5.818182 0
v -26.18182 -5.818182 0
v -26.18182 -4.848485 0
v -25.21212 -4.848485 0
v -26.18182 -5.818182 0
v -27.15152 -5.818182 0
v -27.15152 -4.848485 0
v -26.18182 -4.848485 0
v -31.0303 -5.818182 0
v -32 -5.818182 0
v -32 -4.848485 0
v -31.0303 -4.848485 0
v -32 -5.818182 0
v -32.9697 -5.818182 0
v -32.9697 -4.848485 0
v -32 -4.848485 0
v -36.84849 -5.818182 0
v -37.81818 -5.818182 0
v -37.81818 -4.848485 0
v -36.84849 -4.848485 0
v -37.81818 -5.818182 0
v -38.78788 -5.818182 0
v -38.78788 -4.848485 0
v -37.81818 -4.848485 0

# Texture cooridinates (Count = 9)
vt 0 0.6468965
vt 0.125 0.6468965
vt 0.125 0.6689655
vt 0 0.6689655
vt 0.25 0.6468965
vt 0.25 0.6689655
vt 0 0.6248276
vt 0.125 0.6248276
vt 0.25 0.6248276

# Normal
vn 0 0 -1

# Mesh description
g Test_mesh_0009

# Faces
f 1/1/1 2/2/1 3/3/1 4/4/1
f 5/2/1 6/5/1 7/6/1 8/3/1
f 9/1/1 10/2/1 11/3/1 12/4/1
f 13/2/1 14/5/1 15/6/1 16/3/1
f 17/1/1 18/2/1 19/3/1 20/4/1
f 21/2/1 22/5/1 23/6/1 24/3/1
f 25/7/1 26/8/1 27/2/1 28/1/1
f 29/8/1 30/9/1 31/5/1 32/2/1
f 33/7/1 34/8/1 35/2/1 36/1/1
f 37/8/1 38/9/1 39/5/1 40/2/1
f 41/7/1 42/8/1 43/2/1 44/1/1
f 45/8/1 46/9/1 47/5/1 48/2/1

