# Tiled2Unity generated file. Do not modify by hand.
# Wavefront file for 'Test_mesh_0029.obj'

# Vertices (Count = 80)
v -69.81818 -8.727273 0
v -70.78788 -8.727273 0
v -70.78788 -7.757576 0
v -69.81818 -7.757576 0
v -70.78788 -8.727273 0
v -71.75758 -8.727273 0
v -71.75758 -7.757576 0
v -70.78788 -7.757576 0
v -73.69698 -8.727273 0
v -74.66667 -8.727273 0
v -74.66667 -7.757576 0
v -73.69698 -7.757576 0
v -74.66667 -8.727273 0
v -75.63637 -8.727273 0
v -75.63637 -7.757576 0
v -74.66667 -7.757576 0
v -69.81818 -9.69697 0
v -70.78788 -9.69697 0
v -70.78788 -8.727273 0
v -69.81818 -8.727273 0
v -70.78788 -9.69697 0
v -71.75758 -9.69697 0
v -71.75758 -8.727273 0
v -70.78788 -8.727273 0
v -73.69698 -9.69697 0
v -74.66667 -9.69697 0
v -74.66667 -8.727273 0
v -73.69698 -8.727273 0
v -74.66667 -9.69697 0
v -75.63637 -9.69697 0
v -75.63637 -8.727273 0
v -74.66667 -8.727273 0
v -28.12121 -14.54545 0
v -29.09091 -14.54545 0
v -29.09091 -13.57576 0
v -28.12121 -13.57576 0
v -29.09091 -14.54545 0
v -30.06061 -14.54545 0
v -30.06061 -13.57576 0
v -29.09091 -13.57576 0
v -35.87879 -14.54545 0
v -36.84849 -14.54545 0
v -36.84849 -13.57576 0
v -35.87879 -13.57576 0
v -36.84849 -14.54545 0
v -37.81818 -14.54545 0
v -37.81818 -13.57576 0
v -36.84849 -13.57576 0
v -28.12121 -15.51515 0
v -29.09091 -15.51515 0
v -29.09091 -14.54545 0
v -28.12121 -14.54545 0
v -29.09091 -15.51515 0
v -30.06061 -15.51515 0
v -30.06061 -14.54545 0
v -29.09091 -14.54545 0
v -35.87879 -15.51515 0
v -36.84849 -15.51515 0
v -36.84849 -14.54545 0
v -35.87879 -14.54545 0
v -36.84849 -15.51515 0
v -37.81818 -15.51515 0
v -37.81818 -14.54545 0
v -36.84849 -14.54545 0
v -28.12121 -16.48485 0
v -29.09091 -16.48485 0
v -29.09091 -15.51515 0
v -28.12121 -15.51515 0
v -29.09091 -16.48485 0
v -30.06061 -16.48485 0
v -30.06061 -15.51515 0
v -29.09091 -15.51515 0
v -35.87879 -16.48485 0
v -36.84849 -16.48485 0
v -36.84849 -15.51515 0
v -35.87879 -15.51515 0
v -36.84849 -16.48485 0
v -37.81818 -16.48485 0
v -37.81818 -15.51515 0
v -36.84849 -15.51515 0

# Texture cooridinates (Count = 11)
vt 0.625 0.977931
vt 0.75 0.977931
vt 0.75 1
vt 0.625 1
vt 0.875 0.977931
vt 0.875 1
vt 0.625 0.955862
vt 0.75 0.955862
vt 0.875 0.955862
vt 1 0.955862
vt 1 0.977931

# Normal
vn 0 0 -1

# Mesh description
g Test_mesh_0029

# Faces
f 1/1/1 2/2/1 3/3/1 4/4/1
f 5/2/1 6/5/1 7/6/1 8/3/1
f 9/1/1 10/2/1 11/3/1 12/4/1
f 13/2/1 14/5/1 15/6/1 16/3/1
f 17/7/1 18/8/1 19/2/1 20/1/1
f 21/8/1 22/9/1 23/5/1 24/2/1
f 25/7/1 26/8/1 27/2/1 28/1/1
f 29/8/1 30/9/1 31/5/1 32/2/1
f 33/1/1 34/2/1 35/3/1 36/4/1
f 37/2/1 38/5/1 39/6/1 40/3/1
f 41/1/1 42/2/1 43/3/1 44/4/1
f 45/2/1 46/5/1 47/6/1 48/3/1
f 49/7/1 50/8/1 51/2/1 52/1/1
f 53/8/1 54/9/1 55/5/1 56/2/1
f 57/7/1 58/8/1 59/2/1 60/1/1
f 61/8/1 62/9/1 63/5/1 64/2/1
f 65/9/1 66/10/1 67/11/1 68/5/1
f 69/9/1 70/10/1 71/11/1 72/5/1
f 73/9/1 74/10/1 75/11/1 76/5/1
f 77/9/1 78/10/1 79/11/1 80/5/1

