# Tiled2Unity generated file. Do not modify by hand.
# Wavefront file for 'Test_mesh_0046.obj'

# Vertices (Count = 128)
v -16.48485 -33.9394 0
v -17.45455 -33.9394 0
v -17.45455 -32.9697 0
v -16.48485 -32.9697 0
v -18.42424 -33.9394 0
v -19.39394 -33.9394 0
v -19.39394 -32.9697 0
v -18.42424 -32.9697 0
v -24.24242 -33.9394 0
v -25.21212 -33.9394 0
v -25.21212 -32.9697 0
v -24.24242 -32.9697 0
v -26.18182 -33.9394 0
v -27.15152 -33.9394 0
v -27.15152 -32.9697 0
v -26.18182 -32.9697 0
v -16.48485 -34.90909 0
v -17.45455 -34.90909 0
v -17.45455 -33.9394 0
v -16.48485 -33.9394 0
v -18.42424 -34.90909 0
v -19.39394 -34.90909 0
v -19.39394 -33.9394 0
v -18.42424 -33.9394 0
v -20.36364 -34.90909 0
v -21.33333 -34.90909 0
v -21.33333 -33.9394 0
v -20.36364 -33.9394 0
v -22.30303 -34.90909 0
v -23.27273 -34.90909 0
v -23.27273 -33.9394 0
v -22.30303 -33.9394 0
v -24.24242 -34.90909 0
v -25.21212 -34.90909 0
v -25.21212 -33.9394 0
v -24.24242 -33.9394 0
v -26.18182 -34.90909 0
v -27.15152 -34.90909 0
v -27.15152 -33.9394 0
v -26.18182 -33.9394 0
v -16.48485 -35.87879 0
v -17.45455 -35.87879 0
v -17.45455 -34.90909 0
v -16.48485 -34.90909 0
v -18.42424 -35.87879 0
v -19.39394 -35.87879 0
v -19.39394 -34.90909 0
v -18.42424 -34.90909 0
v -20.36364 -35.87879 0
v -21.33333 -35.87879 0
v -21.33333 -34.90909 0
v -20.36364 -34.90909 0
v -22.30303 -35.87879 0
v -23.27273 -35.87879 0
v -23.27273 -34.90909 0
v -22.30303 -34.90909 0
v -24.24242 -35.87879 0
v -25.21212 -35.87879 0
v -25.21212 -34.90909 0
v -24.24242 -34.90909 0
v -26.18182 -35.87879 0
v -27.15152 -35.87879 0
v -27.15152 -34.90909 0
v -26.18182 -34.90909 0
v -16.48485 -36.84849 0
v -17.45455 -36.84849 0
v -17.45455 -35.87879 0
v -16.48485 -35.87879 0
v -18.42424 -36.84849 0
v -19.39394 -36.84849 0
v -19.39394 -35.87879 0
v -18.42424 -35.87879 0
v -20.36364 -36.84849 0
v -21.33333 -36.84849 0
v -21.33333 -35.87879 0
v -20.36364 -35.87879 0
v -22.30303 -36.84849 0
v -23.27273 -36.84849 0
v -23.27273 -35.87879 0
v -22.30303 -35.87879 0
v -24.24242 -36.84849 0
v -25.21212 -36.84849 0
v -25.21212 -35.87879 0
v -24.24242 -35.87879 0
v -26.18182 -36.84849 0
v -27.15152 -36.84849 0
v -27.15152 -35.87879 0
v -26.18182 -35.87879 0
v -16.48485 -37.81818 0
v -17.45455 -37.81818 0
v -17.45455 -36.84849 0
v -16.48485 -36.84849 0
v -18.42424 -37.81818 0
v -19.39394 -37.81818 0
v -19.39394 -36.84849 0
v -18.42424 -36.84849 0
v -20.36364 -37.81818 0
v -21.33333 -37.81818 0
v -21.33333 -36.84849 0
v -20.36364 -36.84849 0
v -22.30303 -37.81818 0
v -23.27273 -37.81818 0
v -23.27273 -36.84849 0
v -22.30303 -36.84849 0
v -24.24242 -37.81818 0
v -25.21212 -37.81818 0
v -25.21212 -36.84849 0
v -24.24242 -36.84849 0
v -26.18182 -37.81818 0
v -27.15152 -37.81818 0
v -27.15152 -36.84849 0
v -26.18182 -36.84849 0
v -16.48485 -38.78788 0
v -17.45455 -38.78788 0
v -17.45455 -37.81818 0
v -16.48485 -37.81818 0
v -18.42424 -38.78788 0
v -19.39394 -38.78788 0
v -19.39394 -37.81818 0
v -18.42424 -37.81818 0
v -24.24242 -38.78788 0
v -25.21212 -38.78788 0
v -25.21212 -37.81818 0
v -24.24242 -37.81818 0
v -26.18182 -38.78788 0
v -27.15152 -38.78788 0
v -27.15152 -37.81818 0
v -26.18182 -37.81818 0

# Texture cooridinates (Count = 8)
vt 0.8888889 0.8571429
vt 1 0.8571429
vt 1 1
vt 0.8888889 1
vt 0.7777778 0.8571429
vt 0.7777778 1
vt 0.8888889 0.7142857
vt 1 0.7142857

# Normal
vn 0 0 -1

# Mesh description
g Test_mesh_0046

# Faces
f 1/1/1 2/2/1 3/3/1 4/4/1
f 5/1/1 6/2/1 7/3/1 8/4/1
f 9/1/1 10/2/1 11/3/1 12/4/1
f 13/1/1 14/2/1 15/3/1 16/4/1
f 17/5/1 18/1/1 19/4/1 20/6/1
f 21/5/1 22/1/1 23/4/1 24/6/1
f 25/1/1 26/2/1 27/3/1 28/4/1
f 29/1/1 30/2/1 31/3/1 32/4/1
f 33/5/1 34/1/1 35/4/1 36/6/1
f 37/5/1 38/1/1 39/4/1 40/6/1
f 41/7/1 42/8/1 43/2/1 44/1/1
f 45/7/1 46/8/1 47/2/1 48/1/1
f 49/7/1 50/8/1 51/2/1 52/1/1
f 53/7/1 54/8/1 55/2/1 56/1/1
f 57/7/1 58/8/1 59/2/1 60/1/1
f 61/7/1 62/8/1 63/2/1 64/1/1
f 65/1/1 66/2/1 67/3/1 68/4/1
f 69/1/1 70/2/1 71/3/1 72/4/1
f 73/1/1 74/2/1 75/3/1 76/4/1
f 77/1/1 78/2/1 79/3/1 80/4/1
f 81/1/1 82/2/1 83/3/1 84/4/1
f 85/1/1 86/2/1 87/3/1 88/4/1
f 89/5/1 90/1/1 91/4/1 92/6/1
f 93/5/1 94/1/1 95/4/1 96/6/1
f 97/7/1 98/8/1 99/2/1 100/1/1
f 101/7/1 102/8/1 103/2/1 104/1/1
f 105/5/1 106/1/1 107/4/1 108/6/1
f 109/5/1 110/1/1 111/4/1 112/6/1
f 113/7/1 114/8/1 115/2/1 116/1/1
f 117/7/1 118/8/1 119/2/1 120/1/1
f 121/7/1 122/8/1 123/2/1 124/1/1
f 125/7/1 126/8/1 127/2/1 128/1/1

