# Tiled2Unity generated file. Do not modify by hand.
# Wavefront file for 'Test_mesh_0014.obj'

# Vertices (Count = 176)
v -5.818182 -6.787879 0
v -6.787879 -6.787879 0
v -6.787879 -5.818182 0
v -5.818182 -5.818182 0
v -6.787879 -6.787879 0
v -7.757576 -6.787879 0
v -7.757576 -5.818182 0
v -6.787879 -5.818182 0
v -8.727273 -6.787879 0
v -9.69697 -6.787879 0
v -9.69697 -5.818182 0
v -8.727273 -5.818182 0
v -16.48485 -6.787879 0
v -17.45455 -6.787879 0
v -17.45455 -5.818182 0
v -16.48485 -5.818182 0
v -18.42424 -6.787879 0
v -19.39394 -6.787879 0
v -19.39394 -5.818182 0
v -18.42424 -5.818182 0
v -19.39394 -6.787879 0
v -20.36364 -6.787879 0
v -20.36364 -5.818182 0
v -19.39394 -5.818182 0
v -5.818182 -7.757576 0
v -6.787879 -7.757576 0
v -6.787879 -6.787879 0
v -5.818182 -6.787879 0
v -6.787879 -7.757576 0
v -7.757576 -7.757576 0
v -7.757576 -6.787879 0
v -6.787879 -6.787879 0
v -8.727273 -7.757576 0
v -9.69697 -7.757576 0
v -9.69697 -6.787879 0
v -8.727273 -6.787879 0
v -16.48485 -7.757576 0
v -17.45455 -7.757576 0
v -17.45455 -6.787879 0
v -16.48485 -6.787879 0
v -18.42424 -7.757576 0
v -19.39394 -7.757576 0
v -19.39394 -6.787879 0
v -18.42424 -6.787879 0
v -19.39394 -7.757576 0
v -20.36364 -7.757576 0
v -20.36364 -6.787879 0
v -19.39394 -6.787879 0
v -12.60606 -21.33333 0
v -13.57576 -21.33333 0
v -13.57576 -20.36364 0
v -12.60606 -20.36364 0
v -13.57576 -21.33333 0
v -14.54545 -21.33333 0
v -14.54545 -20.36364 0
v -13.57576 -20.36364 0
v -15.51515 -21.33333 0
v -16.48485 -21.33333 0
v -16.48485 -20.36364 0
v -15.51515 -20.36364 0
v -23.27273 -21.33333 0
v -24.24242 -21.33333 0
v -24.24242 -20.36364 0
v -23.27273 -20.36364 0
v -25.21212 -21.33333 0
v -26.18182 -21.33333 0
v -26.18182 -20.36364 0
v -25.21212 -20.36364 0
v -26.18182 -21.33333 0
v -27.15152 -21.33333 0
v -27.15152 -20.36364 0
v -26.18182 -20.36364 0
v -12.60606 -22.30303 0
v -13.57576 -22.30303 0
v -13.57576 -21.33333 0
v -12.60606 -21.33333 0
v -13.57576 -22.30303 0
v -14.54545 -22.30303 0
v -14.54545 -21.33333 0
v -13.57576 -21.33333 0
v -15.51515 -22.30303 0
v -16.48485 -22.30303 0
v -16.48485 -21.33333 0
v -15.51515 -21.33333 0
v -23.27273 -22.30303 0
v -24.24242 -22.30303 0
v -24.24242 -21.33333 0
v -23.27273 -21.33333 0
v -25.21212 -22.30303 0
v -26.18182 -22.30303 0
v -26.18182 -21.33333 0
v -25.21212 -21.33333 0
v -26.18182 -22.30303 0
v -27.15152 -22.30303 0
v -27.15152 -21.33333 0
v -26.18182 -21.33333 0
v -12.60606 -23.27273 0
v -13.57576 -23.27273 0
v -13.57576 -22.30303 0
v -12.60606 -22.30303 0
v -13.57576 -23.27273 0
v -14.54545 -23.27273 0
v -14.54545 -22.30303 0
v -13.57576 -22.30303 0
v -15.51515 -23.27273 0
v -16.48485 -23.27273 0
v -16.48485 -22.30303 0
v -15.51515 -22.30303 0
v -23.27273 -23.27273 0
v -24.24242 -23.27273 0
v -24.24242 -22.30303 0
v -23.27273 -22.30303 0
v -25.21212 -23.27273 0
v -26.18182 -23.27273 0
v -26.18182 -22.30303 0
v -25.21212 -22.30303 0
v -26.18182 -23.27273 0
v -27.15152 -23.27273 0
v -27.15152 -22.30303 0
v -26.18182 -22.30303 0
v -12.60606 -24.24242 0
v -13.57576 -24.24242 0
v -13.57576 -23.27273 0
v -12.60606 -23.27273 0
v -13.57576 -24.24242 0
v -14.54545 -24.24242 0
v -14.54545 -23.27273 0
v -13.57576 -23.27273 0
v -15.51515 -24.24242 0
v -16.48485 -24.24242 0
v -16.48485 -23.27273 0
v -15.51515 -23.27273 0
v -23.27273 -24.24242 0
v -24.24242 -24.24242 0
v -24.24242 -23.27273 0
v -23.27273 -23.27273 0
v -25.21212 -24.24242 0
v -26.18182 -24.24242 0
v -26.18182 -23.27273 0
v -25.21212 -23.27273 0
v -26.18182 -24.24242 0
v -27.15152 -24.24242 0
v -27.15152 -23.27273 0
v -26.18182 -23.27273 0
v -34.90909 -24.24242 0
v -35.87879 -24.24242 0
v -35.87879 -23.27273 0
v -34.90909 -23.27273 0
v -36.84849 -24.24242 0
v -37.81818 -24.24242 0
v -37.81818 -23.27273 0
v -36.84849 -23.27273 0
v -43.63636 -24.24242 0
v -44.60606 -24.24242 0
v -44.60606 -23.27273 0
v -43.63636 -23.27273 0
v -45.57576 -24.24242 0
v -46.54546 -24.24242 0
v -46.54546 -23.27273 0
v -45.57576 -23.27273 0
v -34.90909 -25.21212 0
v -35.87879 -25.21212 0
v -35.87879 -24.24242 0
v -34.90909 -24.24242 0
v -36.84849 -25.21212 0
v -37.81818 -25.21212 0
v -37.81818 -24.24242 0
v -36.84849 -24.24242 0
v -43.63636 -25.21212 0
v -44.60606 -25.21212 0
v -44.60606 -24.24242 0
v -43.63636 -24.24242 0
v -45.57576 -25.21212 0
v -46.54546 -25.21212 0
v -46.54546 -24.24242 0
v -45.57576 -24.24242 0

# Texture cooridinates (Count = 6)
vt 0.8888889 0.8571429
vt 1 0.8571429
vt 1 1
vt 0.8888889 1
vt 0.8888889 0.7142857
vt 1 0.7142857

# Normal
vn 0 0 -1

# Mesh description
g Test_mesh_0014

# Faces
f 1/1/1 2/2/1 3/3/1 4/4/1
f 5/1/1 6/2/1 7/3/1 8/4/1
f 9/1/1 10/2/1 11/3/1 12/4/1
f 13/1/1 14/2/1 15/3/1 16/4/1
f 17/1/1 18/2/1 19/3/1 20/4/1
f 21/1/1 22/2/1 23/3/1 24/4/1
f 25/5/1 26/6/1 27/2/1 28/1/1
f 29/5/1 30/6/1 31/2/1 32/1/1
f 33/5/1 34/6/1 35/2/1 36/1/1
f 37/5/1 38/6/1 39/2/1 40/1/1
f 41/5/1 42/6/1 43/2/1 44/1/1
f 45/5/1 46/6/1 47/2/1 48/1/1
f 49/1/1 50/2/1 51/3/1 52/4/1
f 53/1/1 54/2/1 55/3/1 56/4/1
f 57/1/1 58/2/1 59/3/1 60/4/1
f 61/1/1 62/2/1 63/3/1 64/4/1
f 65/1/1 66/2/1 67/3/1 68/4/1
f 69/1/1 70/2/1 71/3/1 72/4/1
f 73/5/1 74/6/1 75/2/1 76/1/1
f 77/5/1 78/6/1 79/2/1 80/1/1
f 81/5/1 82/6/1 83/2/1 84/1/1
f 85/5/1 86/6/1 87/2/1 88/1/1
f 89/5/1 90/6/1 91/2/1 92/1/1
f 93/5/1 94/6/1 95/2/1 96/1/1
f 97/1/1 98/2/1 99/3/1 100/4/1
f 101/1/1 102/2/1 103/3/1 104/4/1
f 105/1/1 106/2/1 107/3/1 108/4/1
f 109/1/1 110/2/1 111/3/1 112/4/1
f 113/1/1 114/2/1 115/3/1 116/4/1
f 117/1/1 118/2/1 119/3/1 120/4/1
f 121/5/1 122/6/1 123/2/1 124/1/1
f 125/5/1 126/6/1 127/2/1 128/1/1
f 129/5/1 130/6/1 131/2/1 132/1/1
f 133/5/1 134/6/1 135/2/1 136/1/1
f 137/5/1 138/6/1 139/2/1 140/1/1
f 141/5/1 142/6/1 143/2/1 144/1/1
f 145/1/1 146/2/1 147/3/1 148/4/1
f 149/1/1 150/2/1 151/3/1 152/4/1
f 153/1/1 154/2/1 155/3/1 156/4/1
f 157/1/1 158/2/1 159/3/1 160/4/1
f 161/5/1 162/6/1 163/2/1 164/1/1
f 165/5/1 166/6/1 167/2/1 168/1/1
f 169/5/1 170/6/1 171/2/1 172/1/1
f 173/5/1 174/6/1 175/2/1 176/1/1

