# Tiled2Unity generated file. Do not modify by hand.
# Wavefront file for 'Test_mesh_0040.obj'

# Vertices (Count = 24)
v -12.60606 -7.757576 0
v -13.57576 -7.757576 0
v -13.57576 -6.787879 0
v -12.60606 -6.787879 0
v -39.75758 -23.27273 0
v -40.72727 -23.27273 0
v -40.72727 -22.30303 0
v -39.75758 -22.30303 0
v -40.72727 -23.27273 0
v -41.69697 -23.27273 0
v -41.69697 -22.30303 0
v -40.72727 -22.30303 0
v -6.787879 -40.72727 0
v -7.757576 -40.72727 0
v -7.757576 -39.75758 0
v -6.787879 -39.75758 0
v -7.757576 -40.72727 0
v -8.727273 -40.72727 0
v -8.727273 -39.75758 0
v -7.757576 -39.75758 0
v -8.727273 -40.72727 0
v -9.69697 -40.72727 0
v -9.69697 -39.75758 0
v -8.727273 -39.75758 0

# Texture cooridinates (Count = 8)
vt 0.3333333 0.5714285
vt 0.4444444 0.5714285
vt 0.4444444 0.7142857
vt 0.3333333 0.7142857
vt 0.1111111 0.7142857
vt 0.2222222 0.7142857
vt 0.2222222 0.8571429
vt 0.1111111 0.8571429

# Normal
vn 0 0 -1

# Mesh description
g Test_mesh_0040

# Faces
f 1/1/1 2/2/1 3/3/1 4/4/1
f 5/1/1 6/2/1 7/3/1 8/4/1
f 9/1/1 10/2/1 11/3/1 12/4/1
f 13/5/1 14/6/1 15/7/1 16/8/1
f 17/5/1 18/6/1 19/7/1 20/8/1
f 21/5/1 22/6/1 23/7/1 24/8/1

