# Tiled2Unity generated file. Do not modify by hand.
# Wavefront file for 'Test_mesh_0042.obj'

# Vertices (Count = 72)
v -50.42424 -9.69697 0
v -51.39394 -9.69697 0
v -51.39394 -8.727273 0
v -50.42424 -8.727273 0
v -51.39394 -9.69697 0
v -52.36364 -9.69697 0
v -52.36364 -8.727273 0
v -51.39394 -8.727273 0
v -52.36364 -9.69697 0
v -53.33334 -9.69697 0
v -53.33334 -8.727273 0
v -52.36364 -8.727273 0
v -50.42424 -10.66667 0
v -51.39394 -10.66667 0
v -51.39394 -9.69697 0
v -50.42424 -9.69697 0
v -51.39394 -10.66667 0
v -52.36364 -10.66667 0
v -52.36364 -9.69697 0
v -51.39394 -9.69697 0
v -52.36364 -10.66667 0
v -53.33334 -10.66667 0
v -53.33334 -9.69697 0
v -52.36364 -9.69697 0
v -18.42424 -25.21212 0
v -19.39394 -25.21212 0
v -19.39394 -24.24242 0
v -18.42424 -24.24242 0
v -19.39394 -25.21212 0
v -20.36364 -25.21212 0
v -20.36364 -24.24242 0
v -19.39394 -24.24242 0
v -20.36364 -25.21212 0
v -21.33333 -25.21212 0
v -21.33333 -24.24242 0
v -20.36364 -24.24242 0
v -18.42424 -26.18182 0
v -19.39394 -26.18182 0
v -19.39394 -25.21212 0
v -18.42424 -25.21212 0
v -19.39394 -26.18182 0
v -20.36364 -26.18182 0
v -20.36364 -25.21212 0
v -19.39394 -25.21212 0
v -20.36364 -26.18182 0
v -21.33333 -26.18182 0
v -21.33333 -25.21212 0
v -20.36364 -25.21212 0
v -20.36364 -39.75758 0
v -21.33333 -39.75758 0
v -21.33333 -38.78788 0
v -20.36364 -38.78788 0
v -21.33333 -39.75758 0
v -22.30303 -39.75758 0
v -22.30303 -38.78788 0
v -21.33333 -38.78788 0
v -22.30303 -39.75758 0
v -23.27273 -39.75758 0
v -23.27273 -38.78788 0
v -22.30303 -38.78788 0
v -20.36364 -40.72727 0
v -21.33333 -40.72727 0
v -21.33333 -39.75758 0
v -20.36364 -39.75758 0
v -21.33333 -40.72727 0
v -22.30303 -40.72727 0
v -22.30303 -39.75758 0
v -21.33333 -39.75758 0
v -22.30303 -40.72727 0
v -23.27273 -40.72727 0
v -23.27273 -39.75758 0
v -22.30303 -39.75758 0

# Texture cooridinates (Count = 12)
vt 0 0.5
vt 0.3333333 0.5
vt 0.3333333 1
vt 0 1
vt 0.6666667 0.5
vt 0.6666667 1
vt 1 0.5
vt 1 1
vt 0 0
vt 0.3333333 0
vt 0.6666667 0
vt 1 0

# Normal
vn 0 0 -1

# Mesh description
g Test_mesh_0042

# Faces
f 1/1/1 2/2/1 3/3/1 4/4/1
f 5/2/1 6/5/1 7/6/1 8/3/1
f 9/5/1 10/7/1 11/8/1 12/6/1
f 13/9/1 14/10/1 15/2/1 16/1/1
f 17/10/1 18/11/1 19/5/1 20/2/1
f 21/11/1 22/12/1 23/7/1 24/5/1
f 25/1/1 26/2/1 27/3/1 28/4/1
f 29/2/1 30/5/1 31/6/1 32/3/1
f 33/5/1 34/7/1 35/8/1 36/6/1
f 37/9/1 38/10/1 39/2/1 40/1/1
f 41/10/1 42/11/1 43/5/1 44/2/1
f 45/11/1 46/12/1 47/7/1 48/5/1
f 49/1/1 50/2/1 51/3/1 52/4/1
f 53/2/1 54/5/1 55/6/1 56/3/1
f 57/5/1 58/7/1 59/8/1 60/6/1
f 61/9/1 62/10/1 63/2/1 64/1/1
f 65/10/1 66/11/1 67/5/1 68/2/1
f 69/11/1 70/12/1 71/7/1 72/5/1

