# Tiled2Unity generated file. Do not modify by hand.
# Wavefront file for 'Test_mesh_0011.obj'

# Vertices (Count = 532)
v -82.42425 -0.969697 0
v -83.39394 -0.969697 0
v -83.39394 0 0
v -82.42425 0 0
v -85.33334 -0.969697 0
v -86.30303 -0.969697 0
v -86.30303 0 0
v -85.33334 0 0
v -88.24242 -0.969697 0
v -89.21213 -0.969697 0
v -89.21213 0 0
v -88.24242 0 0
v -91.15152 -0.969697 0
v -92.12122 -0.969697 0
v -92.12122 0 0
v -91.15152 0 0
v -94.06061 -0.969697 0
v -95.0303 -0.969697 0
v -95.0303 0 0
v -94.06061 0 0
v -96.9697 -0.969697 0
v -97.9394 -0.969697 0
v -97.9394 0 0
v -96.9697 0 0
v -99.87879 -0.969697 0
v -100.8485 -0.969697 0
v -100.8485 0 0
v -99.87879 0 0
v -81.45454 -1.939394 0
v -82.42425 -1.939394 0
v -82.42425 -0.969697 0
v -81.45454 -0.969697 0
v -82.42425 -1.939394 0
v -83.39394 -1.939394 0
v -83.39394 -0.969697 0
v -82.42425 -0.969697 0
v -83.39394 -1.939394 0
v -84.36364 -1.939394 0
v -84.36364 -0.969697 0
v -83.39394 -0.969697 0
v -84.36364 -1.939394 0
v -85.33334 -1.939394 0
v -85.33334 -0.969697 0
v -84.36364 -0.969697 0
v -85.33334 -1.939394 0
v -86.30303 -1.939394 0
v -86.30303 -0.969697 0
v -85.33334 -0.969697 0
v -86.30303 -1.939394 0
v -87.27273 -1.939394 0
v -87.27273 -0.969697 0
v -86.30303 -0.969697 0
v -87.27273 -1.939394 0
v -88.24242 -1.939394 0
v -88.24242 -0.969697 0
v -87.27273 -0.969697 0
v -88.24242 -1.939394 0
v -89.21213 -1.939394 0
v -89.21213 -0.969697 0
v -88.24242 -0.969697 0
v -89.21213 -1.939394 0
v -90.18182 -1.939394 0
v -90.18182 -0.969697 0
v -89.21213 -0.969697 0
v -90.18182 -1.939394 0
v -91.15152 -1.939394 0
v -91.15152 -0.969697 0
v -90.18182 -0.969697 0
v -91.15152 -1.939394 0
v -92.12122 -1.939394 0
v -92.12122 -0.969697 0
v -91.15152 -0.969697 0
v -92.12122 -1.939394 0
v -93.09091 -1.939394 0
v -93.09091 -0.969697 0
v -92.12122 -0.969697 0
v -93.09091 -1.939394 0
v -94.06061 -1.939394 0
v -94.06061 -0.969697 0
v -93.09091 -0.969697 0
v -94.06061 -1.939394 0
v -95.0303 -1.939394 0
v -95.0303 -0.969697 0
v -94.06061 -0.969697 0
v -95.0303 -1.939394 0
v -96 -1.939394 0
v -96 -0.969697 0
v -95.0303 -0.969697 0
v -96 -1.939394 0
v -96.9697 -1.939394 0
v -96.9697 -0.969697 0
v -96 -0.969697 0
v -96.9697 -1.939394 0
v -97.9394 -1.939394 0
v -97.9394 -0.969697 0
v -96.9697 -0.969697 0
v -97.9394 -1.939394 0
v -98.9091 -1.939394 0
v -98.9091 -0.969697 0
v -97.9394 -0.969697 0
v -98.9091 -1.939394 0
v -99.87879 -1.939394 0
v -99.87879 -0.969697 0
v -98.9091 -0.969697 0
v -99.87879 -1.939394 0
v -100.8485 -1.939394 0
v -100.8485 -0.969697 0
v -99.87879 -0.969697 0
v -100.8485 -1.939394 0
v -101.8182 -1.939394 0
v -101.8182 -0.969697 0
v -100.8485 -0.969697 0
v -81.45454 -2.909091 0
v -82.42425 -2.909091 0
v -82.42425 -1.939394 0
v -81.45454 -1.939394 0
v -82.42425 -2.909091 0
v -83.39394 -2.909091 0
v -83.39394 -1.939394 0
v -82.42425 -1.939394 0
v -83.39394 -2.909091 0
v -84.36364 -2.909091 0
v -84.36364 -1.939394 0
v -83.39394 -1.939394 0
v -84.36364 -2.909091 0
v -85.33334 -2.909091 0
v -85.33334 -1.939394 0
v -84.36364 -1.939394 0
v -85.33334 -2.909091 0
v -86.30303 -2.909091 0
v -86.30303 -1.939394 0
v -85.33334 -1.939394 0
v -86.30303 -2.909091 0
v -87.27273 -2.909091 0
v -87.27273 -1.939394 0
v -86.30303 -1.939394 0
v -87.27273 -2.909091 0
v -88.24242 -2.909091 0
v -88.24242 -1.939394 0
v -87.27273 -1.939394 0
v -88.24242 -2.909091 0
v -89.21213 -2.909091 0
v -89.21213 -1.939394 0
v -88.24242 -1.939394 0
v -89.21213 -2.909091 0
v -90.18182 -2.909091 0
v -90.18182 -1.939394 0
v -89.21213 -1.939394 0
v -90.18182 -2.909091 0
v -91.15152 -2.909091 0
v -91.15152 -1.939394 0
v -90.18182 -1.939394 0
v -91.15152 -2.909091 0
v -92.12122 -2.909091 0
v -92.12122 -1.939394 0
v -91.15152 -1.939394 0
v -92.12122 -2.909091 0
v -93.09091 -2.909091 0
v -93.09091 -1.939394 0
v -92.12122 -1.939394 0
v -93.09091 -2.909091 0
v -94.06061 -2.909091 0
v -94.06061 -1.939394 0
v -93.09091 -1.939394 0
v -94.06061 -2.909091 0
v -95.0303 -2.909091 0
v -95.0303 -1.939394 0
v -94.06061 -1.939394 0
v -95.0303 -2.909091 0
v -96 -2.909091 0
v -96 -1.939394 0
v -95.0303 -1.939394 0
v -96 -2.909091 0
v -96.9697 -2.909091 0
v -96.9697 -1.939394 0
v -96 -1.939394 0
v -96.9697 -2.909091 0
v -97.9394 -2.909091 0
v -97.9394 -1.939394 0
v -96.9697 -1.939394 0
v -97.9394 -2.909091 0
v -98.9091 -2.909091 0
v -98.9091 -1.939394 0
v -97.9394 -1.939394 0
v -98.9091 -2.909091 0
v -99.87879 -2.909091 0
v -99.87879 -1.939394 0
v -98.9091 -1.939394 0
v -99.87879 -2.909091 0
v -100.8485 -2.909091 0
v -100.8485 -1.939394 0
v -99.87879 -1.939394 0
v -100.8485 -2.909091 0
v -101.8182 -2.909091 0
v -101.8182 -1.939394 0
v -100.8485 -1.939394 0
v -81.45454 -3.878788 0
v -82.42425 -3.878788 0
v -82.42425 -2.909091 0
v -81.45454 -2.909091 0
v -82.42425 -3.878788 0
v -83.39394 -3.878788 0
v -83.39394 -2.909091 0
v -82.42425 -2.909091 0
v -84.36364 -3.878788 0
v -85.33334 -3.878788 0
v -85.33334 -2.909091 0
v -84.36364 -2.909091 0
v -85.33334 -3.878788 0
v -86.30303 -3.878788 0
v -86.30303 -2.909091 0
v -85.33334 -2.909091 0
v -87.27273 -3.878788 0
v -88.24242 -3.878788 0
v -88.24242 -2.909091 0
v -87.27273 -2.909091 0
v -88.24242 -3.878788 0
v -89.21213 -3.878788 0
v -89.21213 -2.909091 0
v -88.24242 -2.909091 0
v -90.18182 -3.878788 0
v -91.15152 -3.878788 0
v -91.15152 -2.909091 0
v -90.18182 -2.909091 0
v -91.15152 -3.878788 0
v -92.12122 -3.878788 0
v -92.12122 -2.909091 0
v -91.15152 -2.909091 0
v -93.09091 -3.878788 0
v -94.06061 -3.878788 0
v -94.06061 -2.909091 0
v -93.09091 -2.909091 0
v -94.06061 -3.878788 0
v -95.0303 -3.878788 0
v -95.0303 -2.909091 0
v -94.06061 -2.909091 0
v -96 -3.878788 0
v -96.9697 -3.878788 0
v -96.9697 -2.909091 0
v -96 -2.909091 0
v -96.9697 -3.878788 0
v -97.9394 -3.878788 0
v -97.9394 -2.909091 0
v -96.9697 -2.909091 0
v -98.9091 -3.878788 0
v -99.87879 -3.878788 0
v -99.87879 -2.909091 0
v -98.9091 -2.909091 0
v -99.87879 -3.878788 0
v -100.8485 -3.878788 0
v -100.8485 -2.909091 0
v -99.87879 -2.909091 0
v -81.45454 -4.848485 0
v -82.42425 -4.848485 0
v -82.42425 -3.878788 0
v -81.45454 -3.878788 0
v -82.42425 -4.848485 0
v -83.39394 -4.848485 0
v -83.39394 -3.878788 0
v -82.42425 -3.878788 0
v -84.36364 -4.848485 0
v -85.33334 -4.848485 0
v -85.33334 -3.878788 0
v -84.36364 -3.878788 0
v -85.33334 -4.848485 0
v -86.30303 -4.848485 0
v -86.30303 -3.878788 0
v -85.33334 -3.878788 0
v -87.27273 -4.848485 0
v -88.24242 -4.848485 0
v -88.24242 -3.878788 0
v -87.27273 -3.878788 0
v -88.24242 -4.848485 0
v -89.21213 -4.848485 0
v -89.21213 -3.878788 0
v -88.24242 -3.878788 0
v -90.18182 -4.848485 0
v -91.15152 -4.848485 0
v -91.15152 -3.878788 0
v -90.18182 -3.878788 0
v -91.15152 -4.848485 0
v -92.12122 -4.848485 0
v -92.12122 -3.878788 0
v -91.15152 -3.878788 0
v -93.09091 -4.848485 0
v -94.06061 -4.848485 0
v -94.06061 -3.878788 0
v -93.09091 -3.878788 0
v -94.06061 -4.848485 0
v -95.0303 -4.848485 0
v -95.0303 -3.878788 0
v -94.06061 -3.878788 0
v -96 -4.848485 0
v -96.9697 -4.848485 0
v -96.9697 -3.878788 0
v -96 -3.878788 0
v -96.9697 -4.848485 0
v -97.9394 -4.848485 0
v -97.9394 -3.878788 0
v -96.9697 -3.878788 0
v -98.9091 -4.848485 0
v -99.87879 -4.848485 0
v -99.87879 -3.878788 0
v -98.9091 -3.878788 0
v -99.87879 -4.848485 0
v -100.8485 -4.848485 0
v -100.8485 -3.878788 0
v -99.87879 -3.878788 0
v -100.8485 -4.848485 0
v -101.8182 -4.848485 0
v -101.8182 -3.878788 0
v -100.8485 -3.878788 0
v -99.87879 -5.818182 0
v -100.8485 -5.818182 0
v -100.8485 -4.848485 0
v -99.87879 -4.848485 0
v -100.8485 -5.818182 0
v -101.8182 -5.818182 0
v -101.8182 -4.848485 0
v -100.8485 -4.848485 0
v -99.87879 -6.787879 0
v -100.8485 -6.787879 0
v -100.8485 -5.818182 0
v -99.87879 -5.818182 0
v -100.8485 -6.787879 0
v -101.8182 -6.787879 0
v -101.8182 -5.818182 0
v -100.8485 -5.818182 0
v -95.0303 -7.757576 0
v -96 -7.757576 0
v -96 -6.787879 0
v -95.0303 -6.787879 0
v -99.87879 -7.757576 0
v -100.8485 -7.757576 0
v -100.8485 -6.787879 0
v -99.87879 -6.787879 0
v -100.8485 -7.757576 0
v -101.8182 -7.757576 0
v -101.8182 -6.787879 0
v -100.8485 -6.787879 0
v -95.0303 -8.727273 0
v -96 -8.727273 0
v -96 -7.757576 0
v -95.0303 -7.757576 0
v -100.8485 -8.727273 0
v -101.8182 -8.727273 0
v -101.8182 -7.757576 0
v -100.8485 -7.757576 0
v -83.39394 -9.69697 0
v -84.36364 -9.69697 0
v -84.36364 -8.727273 0
v -83.39394 -8.727273 0
v -84.36364 -9.69697 0
v -85.33334 -9.69697 0
v -85.33334 -8.727273 0
v -84.36364 -8.727273 0
v -99.87879 -9.69697 0
v -100.8485 -9.69697 0
v -100.8485 -8.727273 0
v -99.87879 -8.727273 0
v -100.8485 -9.69697 0
v -101.8182 -9.69697 0
v -101.8182 -8.727273 0
v -100.8485 -8.727273 0
v -83.39394 -10.66667 0
v -84.36364 -10.66667 0
v -84.36364 -9.69697 0
v -83.39394 -9.69697 0
v -84.36364 -10.66667 0
v -85.33334 -10.66667 0
v -85.33334 -9.69697 0
v -84.36364 -9.69697 0
v -99.87879 -10.66667 0
v -100.8485 -10.66667 0
v -100.8485 -9.69697 0
v -99.87879 -9.69697 0
v -100.8485 -10.66667 0
v -101.8182 -10.66667 0
v -101.8182 -9.69697 0
v -100.8485 -9.69697 0
v -100.8485 -11.63636 0
v -101.8182 -11.63636 0
v -101.8182 -10.66667 0
v -100.8485 -10.66667 0
v -100.8485 -12.60606 0
v -101.8182 -12.60606 0
v -101.8182 -11.63636 0
v -100.8485 -11.63636 0
v -100.8485 -13.57576 0
v -101.8182 -13.57576 0
v -101.8182 -12.60606 0
v -100.8485 -12.60606 0
v -83.39394 -14.54545 0
v -84.36364 -14.54545 0
v -84.36364 -13.57576 0
v -83.39394 -13.57576 0
v -100.8485 -14.54545 0
v -101.8182 -14.54545 0
v -101.8182 -13.57576 0
v -100.8485 -13.57576 0
v -100.8485 -15.51515 0
v -101.8182 -15.51515 0
v -101.8182 -14.54545 0
v -100.8485 -14.54545 0
v -100.8485 -16.48485 0
v -101.8182 -16.48485 0
v -101.8182 -15.51515 0
v -100.8485 -15.51515 0
v -99.87879 -17.45455 0
v -100.8485 -17.45455 0
v -100.8485 -16.48485 0
v -99.87879 -16.48485 0
v -100.8485 -17.45455 0
v -101.8182 -17.45455 0
v -101.8182 -16.48485 0
v -100.8485 -16.48485 0
v -99.87879 -18.42424 0
v -100.8485 -18.42424 0
v -100.8485 -17.45455 0
v -99.87879 -17.45455 0
v -100.8485 -18.42424 0
v -101.8182 -18.42424 0
v -101.8182 -17.45455 0
v -100.8485 -17.45455 0
v -87.27273 -19.39394 0
v -88.24242 -19.39394 0
v -88.24242 -18.42424 0
v -87.27273 -18.42424 0
v -97.9394 -19.39394 0
v -98.9091 -19.39394 0
v -98.9091 -18.42424 0
v -97.9394 -18.42424 0
v -100.8485 -19.39394 0
v -101.8182 -19.39394 0
v -101.8182 -18.42424 0
v -100.8485 -18.42424 0
v -99.87879 -20.36364 0
v -100.8485 -20.36364 0
v -100.8485 -19.39394 0
v -99.87879 -19.39394 0
v -100.8485 -20.36364 0
v -101.8182 -20.36364 0
v -101.8182 -19.39394 0
v -100.8485 -19.39394 0
v -99.87879 -21.33333 0
v -100.8485 -21.33333 0
v -100.8485 -20.36364 0
v -99.87879 -20.36364 0
v -100.8485 -21.33333 0
v -101.8182 -21.33333 0
v -101.8182 -20.36364 0
v -100.8485 -20.36364 0
v -100.8485 -22.30303 0
v -101.8182 -22.30303 0
v -101.8182 -21.33333 0
v -100.8485 -21.33333 0
v -100.8485 -23.27273 0
v -101.8182 -23.27273 0
v -101.8182 -22.30303 0
v -100.8485 -22.30303 0
v -100.8485 -24.24242 0
v -101.8182 -24.24242 0
v -101.8182 -23.27273 0
v -100.8485 -23.27273 0
v -99.87879 -25.21212 0
v -100.8485 -25.21212 0
v -100.8485 -24.24242 0
v -99.87879 -24.24242 0
v -100.8485 -25.21212 0
v -101.8182 -25.21212 0
v -101.8182 -24.24242 0
v -100.8485 -24.24242 0
v -84.36364 -26.18182 0
v -85.33334 -26.18182 0
v -85.33334 -25.21212 0
v -84.36364 -25.21212 0
v -92.12122 -26.18182 0
v -93.09091 -26.18182 0
v -93.09091 -25.21212 0
v -92.12122 -25.21212 0
v -99.87879 -26.18182 0
v -100.8485 -26.18182 0
v -100.8485 -25.21212 0
v -99.87879 -25.21212 0
v -100.8485 -26.18182 0
v -101.8182 -26.18182 0
v -101.8182 -25.21212 0
v -100.8485 -25.21212 0
v -84.36364 -27.15152 0
v -85.33334 -27.15152 0
v -85.33334 -26.18182 0
v -84.36364 -26.18182 0
v -100.8485 -27.15152 0
v -101.8182 -27.15152 0
v -101.8182 -26.18182 0
v -100.8485 -26.18182 0
v -99.87879 -28.12121 0
v -100.8485 -28.12121 0
v -100.8485 -27.15152 0
v -99.87879 -27.15152 0
v -100.8485 -28.12121 0
v -101.8182 -28.12121 0
v -101.8182 -27.15152 0
v -100.8485 -27.15152 0
v -96.9697 -29.09091 0
v -97.9394 -29.09091 0
v -97.9394 -28.12121 0
v -96.9697 -28.12121 0
v -99.87879 -29.09091 0
v -100.8485 -29.09091 0
v -100.8485 -28.12121 0
v -99.87879 -28.12121 0
v -100.8485 -29.09091 0
v -101.8182 -29.09091 0
v -101.8182 -28.12121 0
v -100.8485 -28.12121 0
v -99.87879 -30.06061 0
v -100.8485 -30.06061 0
v -100.8485 -29.09091 0
v -99.87879 -29.09091 0
v -100.8485 -30.06061 0
v -101.8182 -30.06061 0
v -101.8182 -29.09091 0
v -100.8485 -29.09091 0
v -99.87879 -31.0303 0
v -100.8485 -31.0303 0
v -100.8485 -30.06061 0
v -99.87879 -30.06061 0
v -100.8485 -31.0303 0
v -101.8182 -31.0303 0
v -101.8182 -30.06061 0
v -100.8485 -30.06061 0

# Texture cooridinates (Count = 32)
vt 0.375 0.75
vt 0.5 0.75
vt 0.5 0.875
vt 0.375 0.875
vt 0.625 0.375
vt 0.75 0.375
vt 0.75 0.5
vt 0.625 0.5
vt 0.875 0.375
vt 0.875 0.5
vt 1 0.375
vt 1 0.5
vt 0.625 0.25
vt 0.75 0.25
vt 0.875 0.25
vt 1 0.25
vt 0.625 0.125
vt 0.75 0.125
vt 0.875 0.125
vt 0.375 0.625
vt 0.5 0.625
vt 0.75 0.75
vt 0.875 0.75
vt 0.875 0.875
vt 0.75 0.875
vt 0.75 0.625
vt 0.875 0.625
vt 0.625 0.75
vt 0.625 0.875
vt 0.625 0.625
vt 0.625 1
vt 0.5 1

# Normal
vn 0 0 -1

# Mesh description
g Test_mesh_0011

# Faces
f 1/1/1 2/2/1 3/3/1 4/4/1
f 5/1/1 6/2/1 7/3/1 8/4/1
f 9/1/1 10/2/1 11/3/1 12/4/1
f 13/1/1 14/2/1 15/3/1 16/4/1
f 17/1/1 18/2/1 19/3/1 20/4/1
f 21/1/1 22/2/1 23/3/1 24/4/1
f 25/1/1 26/2/1 27/3/1 28/4/1
f 29/5/1 30/6/1 31/7/1 32/8/1
f 33/6/1 34/9/1 35/10/1 36/7/1
f 37/9/1 38/11/1 39/12/1 40/10/1
f 41/5/1 42/6/1 43/7/1 44/8/1
f 45/6/1 46/9/1 47/10/1 48/7/1
f 49/9/1 50/11/1 51/12/1 52/10/1
f 53/5/1 54/6/1 55/7/1 56/8/1
f 57/6/1 58/9/1 59/10/1 60/7/1
f 61/9/1 62/11/1 63/12/1 64/10/1
f 65/5/1 66/6/1 67/7/1 68/8/1
f 69/6/1 70/9/1 71/10/1 72/7/1
f 73/9/1 74/11/1 75/12/1 76/10/1
f 77/5/1 78/6/1 79/7/1 80/8/1
f 81/6/1 82/9/1 83/10/1 84/7/1
f 85/9/1 86/11/1 87/12/1 88/10/1
f 89/5/1 90/6/1 91/7/1 92/8/1
f 93/6/1 94/9/1 95/10/1 96/7/1
f 97/9/1 98/11/1 99/12/1 100/10/1
f 101/5/1 102/6/1 103/7/1 104/8/1
f 105/6/1 106/9/1 107/10/1 108/7/1
f 109/9/1 110/11/1 111/12/1 112/10/1
f 113/13/1 114/14/1 115/6/1 116/5/1
f 117/14/1 118/15/1 119/9/1 120/6/1
f 121/15/1 122/16/1 123/11/1 124/9/1
f 125/13/1 126/14/1 127/6/1 128/5/1
f 129/14/1 130/15/1 131/9/1 132/6/1
f 133/15/1 134/16/1 135/11/1 136/9/1
f 137/13/1 138/14/1 139/6/1 140/5/1
f 141/14/1 142/15/1 143/9/1 144/6/1
f 145/15/1 146/16/1 147/11/1 148/9/1
f 149/13/1 150/14/1 151/6/1 152/5/1
f 153/14/1 154/15/1 155/9/1 156/6/1
f 157/15/1 158/16/1 159/11/1 160/9/1
f 161/13/1 162/14/1 163/6/1 164/5/1
f 165/14/1 166/15/1 167/9/1 168/6/1
f 169/15/1 170/16/1 171/11/1 172/9/1
f 173/13/1 174/14/1 175/6/1 176/5/1
f 177/14/1 178/15/1 179/9/1 180/6/1
f 181/15/1 182/16/1 183/11/1 184/9/1
f 185/1/1 186/2/1 187/3/1 188/4/1
f 189/14/1 190/15/1 191/9/1 192/6/1
f 193/15/1 194/16/1 195/11/1 196/9/1
f 197/17/1 198/18/1 199/14/1 200/13/1
f 201/18/1 202/19/1 203/15/1 204/14/1
f 205/17/1 206/18/1 207/14/1 208/13/1
f 209/18/1 210/19/1 211/15/1 212/14/1
f 213/17/1 214/18/1 215/14/1 216/13/1
f 217/18/1 218/19/1 219/15/1 220/14/1
f 221/17/1 222/18/1 223/14/1 224/13/1
f 225/18/1 226/19/1 227/15/1 228/14/1
f 229/17/1 230/18/1 231/14/1 232/13/1
f 233/18/1 234/19/1 235/15/1 236/14/1
f 237/17/1 238/18/1 239/14/1 240/13/1
f 241/18/1 242/19/1 243/15/1 244/14/1
f 245/1/1 246/2/1 247/3/1 248/4/1
f 249/18/1 250/19/1 251/15/1 252/14/1
f 253/20/1 254/21/1 255/2/1 256/1/1
f 257/20/1 258/21/1 259/2/1 260/1/1
f 261/20/1 262/21/1 263/2/1 264/1/1
f 265/20/1 266/21/1 267/2/1 268/1/1
f 269/20/1 270/21/1 271/2/1 272/1/1
f 273/20/1 274/21/1 275/2/1 276/1/1
f 277/20/1 278/21/1 279/2/1 280/1/1
f 281/20/1 282/21/1 283/2/1 284/1/1
f 285/20/1 286/21/1 287/2/1 288/1/1
f 289/20/1 290/21/1 291/2/1 292/1/1
f 293/20/1 294/21/1 295/2/1 296/1/1
f 297/20/1 298/21/1 299/2/1 300/1/1
f 301/20/1 302/21/1 303/2/1 304/1/1
f 305/1/1 306/2/1 307/3/1 308/4/1
f 309/1/1 310/2/1 311/3/1 312/4/1
f 313/20/1 314/21/1 315/2/1 316/1/1
f 317/1/1 318/2/1 319/3/1 320/4/1
f 321/1/1 322/2/1 323/3/1 324/4/1
f 325/1/1 326/2/1 327/3/1 328/4/1
f 329/22/1 330/23/1 331/24/1 332/25/1
f 333/20/1 334/21/1 335/2/1 336/1/1
f 337/1/1 338/2/1 339/3/1 340/4/1
f 341/26/1 342/27/1 343/23/1 344/22/1
f 345/1/1 346/2/1 347/3/1 348/4/1
f 349/2/1 350/28/1 351/29/1 352/3/1
f 353/2/1 354/28/1 355/29/1 356/3/1
f 357/1/1 358/2/1 359/3/1 360/4/1
f 361/1/1 362/2/1 363/3/1 364/4/1
f 365/21/1 366/30/1 367/28/1 368/2/1
f 369/21/1 370/30/1 371/28/1 372/2/1
f 373/20/1 374/21/1 375/2/1 376/1/1
f 377/1/1 378/2/1 379/3/1 380/4/1
f 381/1/1 382/2/1 383/3/1 384/4/1
f 385/1/1 386/2/1 387/3/1 388/4/1
f 389/1/1 390/2/1 391/3/1 392/4/1
f 393/3/1 394/29/1 395/31/1 396/32/1
f 397/1/1 398/2/1 399/3/1 400/4/1
f 401/1/1 402/2/1 403/3/1 404/4/1
f 405/1/1 406/2/1 407/3/1 408/4/1
f 409/1/1 410/2/1 411/3/1 412/4/1
f 413/1/1 414/2/1 415/3/1 416/4/1
f 417/20/1 418/21/1 419/2/1 420/1/1
f 421/1/1 422/2/1 423/3/1 424/4/1
f 425/3/1 426/29/1 427/31/1 428/32/1
f 429/3/1 430/29/1 431/31/1 432/32/1
f 433/1/1 434/2/1 435/3/1 436/4/1
f 437/1/1 438/2/1 439/3/1 440/4/1
f 441/1/1 442/2/1 443/3/1 444/4/1
f 445/20/1 446/21/1 447/2/1 448/1/1
f 449/1/1 450/2/1 451/3/1 452/4/1
f 453/1/1 454/2/1 455/3/1 456/4/1
f 457/1/1 458/2/1 459/3/1 460/4/1
f 461/1/1 462/2/1 463/3/1 464/4/1
f 465/1/1 466/2/1 467/3/1 468/4/1
f 469/1/1 470/2/1 471/3/1 472/4/1
f 473/22/1 474/23/1 475/24/1 476/25/1
f 477/3/1 478/29/1 479/31/1 480/32/1
f 481/20/1 482/21/1 483/2/1 484/1/1
f 485/1/1 486/2/1 487/3/1 488/4/1
f 489/26/1 490/27/1 491/23/1 492/22/1
f 493/1/1 494/2/1 495/3/1 496/4/1
f 497/1/1 498/2/1 499/3/1 500/4/1
f 501/1/1 502/2/1 503/3/1 504/4/1
f 505/3/1 506/29/1 507/31/1 508/32/1
f 509/20/1 510/21/1 511/2/1 512/1/1
f 513/1/1 514/2/1 515/3/1 516/4/1
f 517/1/1 518/2/1 519/3/1 520/4/1
f 521/1/1 522/2/1 523/3/1 524/4/1
f 525/20/1 526/21/1 527/2/1 528/1/1
f 529/20/1 530/21/1 531/2/1 532/1/1

