# Tiled2Unity generated file. Do not modify by hand.
# Wavefront file for 'Test_mesh_0032.obj'

# Vertices (Count = 144)
v -36.84849 -7.757576 0
v -37.81818 -7.757576 0
v -37.81818 -6.787879 0
v -36.84849 -6.787879 0
v -37.81818 -7.757576 0
v -38.78788 -7.757576 0
v -38.78788 -6.787879 0
v -37.81818 -6.787879 0
v -38.78788 -7.757576 0
v -39.75758 -7.757576 0
v -39.75758 -6.787879 0
v -38.78788 -6.787879 0
v -27.15152 -8.727273 0
v -28.12121 -8.727273 0
v -28.12121 -7.757576 0
v -27.15152 -7.757576 0
v -28.12121 -8.727273 0
v -29.09091 -8.727273 0
v -29.09091 -7.757576 0
v -28.12121 -7.757576 0
v -29.09091 -8.727273 0
v -30.06061 -8.727273 0
v -30.06061 -7.757576 0
v -29.09091 -7.757576 0
v -36.84849 -8.727273 0
v -37.81818 -8.727273 0
v -37.81818 -7.757576 0
v -36.84849 -7.757576 0
v -37.81818 -8.727273 0
v -38.78788 -8.727273 0
v -38.78788 -7.757576 0
v -37.81818 -7.757576 0
v -38.78788 -8.727273 0
v -39.75758 -8.727273 0
v -39.75758 -7.757576 0
v -38.78788 -7.757576 0
v -27.15152 -9.69697 0
v -28.12121 -9.69697 0
v -28.12121 -8.727273 0
v -27.15152 -8.727273 0
v -28.12121 -9.69697 0
v -29.09091 -9.69697 0
v -29.09091 -8.727273 0
v -28.12121 -8.727273 0
v -29.09091 -9.69697 0
v -30.06061 -9.69697 0
v -30.06061 -8.727273 0
v -29.09091 -8.727273 0
v -36.84849 -9.69697 0
v -37.81818 -9.69697 0
v -37.81818 -8.727273 0
v -36.84849 -8.727273 0
v -37.81818 -9.69697 0
v -38.78788 -9.69697 0
v -38.78788 -8.727273 0
v -37.81818 -8.727273 0
v -38.78788 -9.69697 0
v -39.75758 -9.69697 0
v -39.75758 -8.727273 0
v -38.78788 -8.727273 0
v -27.15152 -10.66667 0
v -28.12121 -10.66667 0
v -28.12121 -9.69697 0
v -27.15152 -9.69697 0
v -28.12121 -10.66667 0
v -29.09091 -10.66667 0
v -29.09091 -9.69697 0
v -28.12121 -9.69697 0
v -29.09091 -10.66667 0
v -30.06061 -10.66667 0
v -30.06061 -9.69697 0
v -29.09091 -9.69697 0
v -32 -10.66667 0
v -32.9697 -10.66667 0
v -32.9697 -9.69697 0
v -32 -9.69697 0
v -32.9697 -10.66667 0
v -33.9394 -10.66667 0
v -33.9394 -9.69697 0
v -32.9697 -9.69697 0
v -33.9394 -10.66667 0
v -34.90909 -10.66667 0
v -34.90909 -9.69697 0
v -33.9394 -9.69697 0
v -40.72727 -10.66667 0
v -41.69697 -10.66667 0
v -41.69697 -9.69697 0
v -40.72727 -9.69697 0
v -41.69697 -10.66667 0
v -42.66667 -10.66667 0
v -42.66667 -9.69697 0
v -41.69697 -9.69697 0
v -42.66667 -10.66667 0
v -43.63636 -10.66667 0
v -43.63636 -9.69697 0
v -42.66667 -9.69697 0
v -32 -11.63636 0
v -32.9697 -11.63636 0
v -32.9697 -10.66667 0
v -32 -10.66667 0
v -32.9697 -11.63636 0
v -33.9394 -11.63636 0
v -33.9394 -10.66667 0
v -32.9697 -10.66667 0
v -33.9394 -11.63636 0
v -34.90909 -11.63636 0
v -34.90909 -10.66667 0
v -33.9394 -10.66667 0
v -40.72727 -11.63636 0
v -41.69697 -11.63636 0
v -41.69697 -10.66667 0
v -40.72727 -10.66667 0
v -41.69697 -11.63636 0
v -42.66667 -11.63636 0
v -42.66667 -10.66667 0
v -41.69697 -10.66667 0
v -42.66667 -11.63636 0
v -43.63636 -11.63636 0
v -43.63636 -10.66667 0
v -42.66667 -10.66667 0
v -32 -12.60606 0
v -32.9697 -12.60606 0
v -32.9697 -11.63636 0
v -32 -11.63636 0
v -32.9697 -12.60606 0
v -33.9394 -12.60606 0
v -33.9394 -11.63636 0
v -32.9697 -11.63636 0
v -33.9394 -12.60606 0
v -34.90909 -12.60606 0
v -34.90909 -11.63636 0
v -33.9394 -11.63636 0
v -40.72727 -12.60606 0
v -41.69697 -12.60606 0
v -41.69697 -11.63636 0
v -40.72727 -11.63636 0
v -41.69697 -12.60606 0
v -42.66667 -12.60606 0
v -42.66667 -11.63636 0
v -41.69697 -11.63636 0
v -42.66667 -12.60606 0
v -43.63636 -12.60606 0
v -43.63636 -11.63636 0
v -42.66667 -11.63636 0

# Texture cooridinates (Count = 16)
vt 0 0.8571429
vt 0.1666667 0.8571429
vt 0.1666667 1
vt 0 1
vt 0.3333333 0.8571429
vt 0.3333333 1
vt 0.5 0.8571429
vt 0.5 1
vt 0 0.7142857
vt 0.1666667 0.7142857
vt 0.3333333 0.7142857
vt 0.5 0.7142857
vt 0 0.5714285
vt 0.1666667 0.5714285
vt 0.3333333 0.5714285
vt 0.5 0.5714285

# Normal
vn 0 0 -1

# Mesh description
g Test_mesh_0032

# Faces
f 1/1/1 2/2/1 3/3/1 4/4/1
f 5/2/1 6/5/1 7/6/1 8/3/1
f 9/5/1 10/7/1 11/8/1 12/6/1
f 13/1/1 14/2/1 15/3/1 16/4/1
f 17/2/1 18/5/1 19/6/1 20/3/1
f 21/5/1 22/7/1 23/8/1 24/6/1
f 25/9/1 26/10/1 27/2/1 28/1/1
f 29/10/1 30/11/1 31/5/1 32/2/1
f 33/11/1 34/12/1 35/7/1 36/5/1
f 37/9/1 38/10/1 39/2/1 40/1/1
f 41/10/1 42/11/1 43/5/1 44/2/1
f 45/11/1 46/12/1 47/7/1 48/5/1
f 49/13/1 50/14/1 51/10/1 52/9/1
f 53/14/1 54/15/1 55/11/1 56/10/1
f 57/15/1 58/16/1 59/12/1 60/11/1
f 61/13/1 62/14/1 63/10/1 64/9/1
f 65/14/1 66/15/1 67/11/1 68/10/1
f 69/15/1 70/16/1 71/12/1 72/11/1
f 73/1/1 74/2/1 75/3/1 76/4/1
f 77/2/1 78/5/1 79/6/1 80/3/1
f 81/5/1 82/7/1 83/8/1 84/6/1
f 85/1/1 86/2/1 87/3/1 88/4/1
f 89/2/1 90/5/1 91/6/1 92/3/1
f 93/5/1 94/7/1 95/8/1 96/6/1
f 97/9/1 98/10/1 99/2/1 100/1/1
f 101/10/1 102/11/1 103/5/1 104/2/1
f 105/11/1 106/12/1 107/7/1 108/5/1
f 109/9/1 110/10/1 111/2/1 112/1/1
f 113/10/1 114/11/1 115/5/1 116/2/1
f 117/11/1 118/12/1 119/7/1 120/5/1
f 121/13/1 122/14/1 123/10/1 124/9/1
f 125/14/1 126/15/1 127/11/1 128/10/1
f 129/15/1 130/16/1 131/12/1 132/11/1
f 133/13/1 134/14/1 135/10/1 136/9/1
f 137/14/1 138/15/1 139/11/1 140/10/1
f 141/15/1 142/16/1 143/12/1 144/11/1

