# Tiled2Unity generated file. Do not modify by hand.
# Wavefront file for 'Test_mesh_0037.obj'

# Vertices (Count = 572)
v -15.51515 -30.06061 0
v -16.48485 -30.06061 0
v -16.48485 -29.09091 0
v -15.51515 -29.09091 0
v -16.48485 -30.06061 0
v -17.45455 -30.06061 0
v -17.45455 -29.09091 0
v -16.48485 -29.09091 0
v -17.45455 -30.06061 0
v -18.42424 -30.06061 0
v -18.42424 -29.09091 0
v -17.45455 -29.09091 0
v -18.42424 -30.06061 0
v -19.39394 -30.06061 0
v -19.39394 -29.09091 0
v -18.42424 -29.09091 0
v -19.39394 -30.06061 0
v -20.36364 -30.06061 0
v -20.36364 -29.09091 0
v -19.39394 -29.09091 0
v -20.36364 -30.06061 0
v -21.33333 -30.06061 0
v -21.33333 -29.09091 0
v -20.36364 -29.09091 0
v -21.33333 -30.06061 0
v -22.30303 -30.06061 0
v -22.30303 -29.09091 0
v -21.33333 -29.09091 0
v -22.30303 -30.06061 0
v -23.27273 -30.06061 0
v -23.27273 -29.09091 0
v -22.30303 -29.09091 0
v -23.27273 -30.06061 0
v -24.24242 -30.06061 0
v -24.24242 -29.09091 0
v -23.27273 -29.09091 0
v -24.24242 -30.06061 0
v -25.21212 -30.06061 0
v -25.21212 -29.09091 0
v -24.24242 -29.09091 0
v -25.21212 -30.06061 0
v -26.18182 -30.06061 0
v -26.18182 -29.09091 0
v -25.21212 -29.09091 0
v -26.18182 -30.06061 0
v -27.15152 -30.06061 0
v -27.15152 -29.09091 0
v -26.18182 -29.09091 0
v -27.15152 -30.06061 0
v -28.12121 -30.06061 0
v -28.12121 -29.09091 0
v -27.15152 -29.09091 0
v -15.51515 -31.0303 0
v -16.48485 -31.0303 0
v -16.48485 -30.06061 0
v -15.51515 -30.06061 0
v -16.48485 -31.0303 0
v -17.45455 -31.0303 0
v -17.45455 -30.06061 0
v -16.48485 -30.06061 0
v -17.45455 -31.0303 0
v -18.42424 -31.0303 0
v -18.42424 -30.06061 0
v -17.45455 -30.06061 0
v -18.42424 -31.0303 0
v -19.39394 -31.0303 0
v -19.39394 -30.06061 0
v -18.42424 -30.06061 0
v -19.39394 -31.0303 0
v -20.36364 -31.0303 0
v -20.36364 -30.06061 0
v -19.39394 -30.06061 0
v -20.36364 -31.0303 0
v -21.33333 -31.0303 0
v -21.33333 -30.06061 0
v -20.36364 -30.06061 0
v -21.33333 -31.0303 0
v -22.30303 -31.0303 0
v -22.30303 -30.06061 0
v -21.33333 -30.06061 0
v -22.30303 -31.0303 0
v -23.27273 -31.0303 0
v -23.27273 -30.06061 0
v -22.30303 -30.06061 0
v -23.27273 -31.0303 0
v -24.24242 -31.0303 0
v -24.24242 -30.06061 0
v -23.27273 -30.06061 0
v -24.24242 -31.0303 0
v -25.21212 -31.0303 0
v -25.21212 -30.06061 0
v -24.24242 -30.06061 0
v -25.21212 -31.0303 0
v -26.18182 -31.0303 0
v -26.18182 -30.06061 0
v -25.21212 -30.06061 0
v -26.18182 -31.0303 0
v -27.15152 -31.0303 0
v -27.15152 -30.06061 0
v -26.18182 -30.06061 0
v -27.15152 -31.0303 0
v -28.12121 -31.0303 0
v -28.12121 -30.06061 0
v -27.15152 -30.06061 0
v -15.51515 -32 0
v -16.48485 -32 0
v -16.48485 -31.0303 0
v -15.51515 -31.0303 0
v -16.48485 -32 0
v -17.45455 -32 0
v -17.45455 -31.0303 0
v -16.48485 -31.0303 0
v -17.45455 -32 0
v -18.42424 -32 0
v -18.42424 -31.0303 0
v -17.45455 -31.0303 0
v -18.42424 -32 0
v -19.39394 -32 0
v -19.39394 -31.0303 0
v -18.42424 -31.0303 0
v -19.39394 -32 0
v -20.36364 -32 0
v -20.36364 -31.0303 0
v -19.39394 -31.0303 0
v -20.36364 -32 0
v -21.33333 -32 0
v -21.33333 -31.0303 0
v -20.36364 -31.0303 0
v -21.33333 -32 0
v -22.30303 -32 0
v -22.30303 -31.0303 0
v -21.33333 -31.0303 0
v -22.30303 -32 0
v -23.27273 -32 0
v -23.27273 -31.0303 0
v -22.30303 -31.0303 0
v -23.27273 -32 0
v -24.24242 -32 0
v -24.24242 -31.0303 0
v -23.27273 -31.0303 0
v -24.24242 -32 0
v -25.21212 -32 0
v -25.21212 -31.0303 0
v -24.24242 -31.0303 0
v -25.21212 -32 0
v -26.18182 -32 0
v -26.18182 -31.0303 0
v -25.21212 -31.0303 0
v -26.18182 -32 0
v -27.15152 -32 0
v -27.15152 -31.0303 0
v -26.18182 -31.0303 0
v -27.15152 -32 0
v -28.12121 -32 0
v -28.12121 -31.0303 0
v -27.15152 -31.0303 0
v -15.51515 -32.9697 0
v -16.48485 -32.9697 0
v -16.48485 -32 0
v -15.51515 -32 0
v -16.48485 -32.9697 0
v -17.45455 -32.9697 0
v -17.45455 -32 0
v -16.48485 -32 0
v -17.45455 -32.9697 0
v -18.42424 -32.9697 0
v -18.42424 -32 0
v -17.45455 -32 0
v -18.42424 -32.9697 0
v -19.39394 -32.9697 0
v -19.39394 -32 0
v -18.42424 -32 0
v -19.39394 -32.9697 0
v -20.36364 -32.9697 0
v -20.36364 -32 0
v -19.39394 -32 0
v -20.36364 -32.9697 0
v -21.33333 -32.9697 0
v -21.33333 -32 0
v -20.36364 -32 0
v -21.33333 -32.9697 0
v -22.30303 -32.9697 0
v -22.30303 -32 0
v -21.33333 -32 0
v -22.30303 -32.9697 0
v -23.27273 -32.9697 0
v -23.27273 -32 0
v -22.30303 -32 0
v -23.27273 -32.9697 0
v -24.24242 -32.9697 0
v -24.24242 -32 0
v -23.27273 -32 0
v -24.24242 -32.9697 0
v -25.21212 -32.9697 0
v -25.21212 -32 0
v -24.24242 -32 0
v -25.21212 -32.9697 0
v -26.18182 -32.9697 0
v -26.18182 -32 0
v -25.21212 -32 0
v -26.18182 -32.9697 0
v -27.15152 -32.9697 0
v -27.15152 -32 0
v -26.18182 -32 0
v -27.15152 -32.9697 0
v -28.12121 -32.9697 0
v -28.12121 -32 0
v -27.15152 -32 0
v -15.51515 -33.9394 0
v -16.48485 -33.9394 0
v -16.48485 -32.9697 0
v -15.51515 -32.9697 0
v -16.48485 -33.9394 0
v -17.45455 -33.9394 0
v -17.45455 -32.9697 0
v -16.48485 -32.9697 0
v -17.45455 -33.9394 0
v -18.42424 -33.9394 0
v -18.42424 -32.9697 0
v -17.45455 -32.9697 0
v -18.42424 -33.9394 0
v -19.39394 -33.9394 0
v -19.39394 -32.9697 0
v -18.42424 -32.9697 0
v -19.39394 -33.9394 0
v -20.36364 -33.9394 0
v -20.36364 -32.9697 0
v -19.39394 -32.9697 0
v -20.36364 -33.9394 0
v -21.33333 -33.9394 0
v -21.33333 -32.9697 0
v -20.36364 -32.9697 0
v -21.33333 -33.9394 0
v -22.30303 -33.9394 0
v -22.30303 -32.9697 0
v -21.33333 -32.9697 0
v -22.30303 -33.9394 0
v -23.27273 -33.9394 0
v -23.27273 -32.9697 0
v -22.30303 -32.9697 0
v -23.27273 -33.9394 0
v -24.24242 -33.9394 0
v -24.24242 -32.9697 0
v -23.27273 -32.9697 0
v -24.24242 -33.9394 0
v -25.21212 -33.9394 0
v -25.21212 -32.9697 0
v -24.24242 -32.9697 0
v -25.21212 -33.9394 0
v -26.18182 -33.9394 0
v -26.18182 -32.9697 0
v -25.21212 -32.9697 0
v -26.18182 -33.9394 0
v -27.15152 -33.9394 0
v -27.15152 -32.9697 0
v -26.18182 -32.9697 0
v -27.15152 -33.9394 0
v -28.12121 -33.9394 0
v -28.12121 -32.9697 0
v -27.15152 -32.9697 0
v -15.51515 -34.90909 0
v -16.48485 -34.90909 0
v -16.48485 -33.9394 0
v -15.51515 -33.9394 0
v -16.48485 -34.90909 0
v -17.45455 -34.90909 0
v -17.45455 -33.9394 0
v -16.48485 -33.9394 0
v -17.45455 -34.90909 0
v -18.42424 -34.90909 0
v -18.42424 -33.9394 0
v -17.45455 -33.9394 0
v -18.42424 -34.90909 0
v -19.39394 -34.90909 0
v -19.39394 -33.9394 0
v -18.42424 -33.9394 0
v -19.39394 -34.90909 0
v -20.36364 -34.90909 0
v -20.36364 -33.9394 0
v -19.39394 -33.9394 0
v -20.36364 -34.90909 0
v -21.33333 -34.90909 0
v -21.33333 -33.9394 0
v -20.36364 -33.9394 0
v -21.33333 -34.90909 0
v -22.30303 -34.90909 0
v -22.30303 -33.9394 0
v -21.33333 -33.9394 0
v -22.30303 -34.90909 0
v -23.27273 -34.90909 0
v -23.27273 -33.9394 0
v -22.30303 -33.9394 0
v -23.27273 -34.90909 0
v -24.24242 -34.90909 0
v -24.24242 -33.9394 0
v -23.27273 -33.9394 0
v -24.24242 -34.90909 0
v -25.21212 -34.90909 0
v -25.21212 -33.9394 0
v -24.24242 -33.9394 0
v -25.21212 -34.90909 0
v -26.18182 -34.90909 0
v -26.18182 -33.9394 0
v -25.21212 -33.9394 0
v -26.18182 -34.90909 0
v -27.15152 -34.90909 0
v -27.15152 -33.9394 0
v -26.18182 -33.9394 0
v -27.15152 -34.90909 0
v -28.12121 -34.90909 0
v -28.12121 -33.9394 0
v -27.15152 -33.9394 0
v -15.51515 -35.87879 0
v -16.48485 -35.87879 0
v -16.48485 -34.90909 0
v -15.51515 -34.90909 0
v -16.48485 -35.87879 0
v -17.45455 -35.87879 0
v -17.45455 -34.90909 0
v -16.48485 -34.90909 0
v -17.45455 -35.87879 0
v -18.42424 -35.87879 0
v -18.42424 -34.90909 0
v -17.45455 -34.90909 0
v -18.42424 -35.87879 0
v -19.39394 -35.87879 0
v -19.39394 -34.90909 0
v -18.42424 -34.90909 0
v -19.39394 -35.87879 0
v -20.36364 -35.87879 0
v -20.36364 -34.90909 0
v -19.39394 -34.90909 0
v -20.36364 -35.87879 0
v -21.33333 -35.87879 0
v -21.33333 -34.90909 0
v -20.36364 -34.90909 0
v -21.33333 -35.87879 0
v -22.30303 -35.87879 0
v -22.30303 -34.90909 0
v -21.33333 -34.90909 0
v -22.30303 -35.87879 0
v -23.27273 -35.87879 0
v -23.27273 -34.90909 0
v -22.30303 -34.90909 0
v -23.27273 -35.87879 0
v -24.24242 -35.87879 0
v -24.24242 -34.90909 0
v -23.27273 -34.90909 0
v -24.24242 -35.87879 0
v -25.21212 -35.87879 0
v -25.21212 -34.90909 0
v -24.24242 -34.90909 0
v -25.21212 -35.87879 0
v -26.18182 -35.87879 0
v -26.18182 -34.90909 0
v -25.21212 -34.90909 0
v -26.18182 -35.87879 0
v -27.15152 -35.87879 0
v -27.15152 -34.90909 0
v -26.18182 -34.90909 0
v -27.15152 -35.87879 0
v -28.12121 -35.87879 0
v -28.12121 -34.90909 0
v -27.15152 -34.90909 0
v -15.51515 -36.84849 0
v -16.48485 -36.84849 0
v -16.48485 -35.87879 0
v -15.51515 -35.87879 0
v -16.48485 -36.84849 0
v -17.45455 -36.84849 0
v -17.45455 -35.87879 0
v -16.48485 -35.87879 0
v -17.45455 -36.84849 0
v -18.42424 -36.84849 0
v -18.42424 -35.87879 0
v -17.45455 -35.87879 0
v -18.42424 -36.84849 0
v -19.39394 -36.84849 0
v -19.39394 -35.87879 0
v -18.42424 -35.87879 0
v -19.39394 -36.84849 0
v -20.36364 -36.84849 0
v -20.36364 -35.87879 0
v -19.39394 -35.87879 0
v -20.36364 -36.84849 0
v -21.33333 -36.84849 0
v -21.33333 -35.87879 0
v -20.36364 -35.87879 0
v -21.33333 -36.84849 0
v -22.30303 -36.84849 0
v -22.30303 -35.87879 0
v -21.33333 -35.87879 0
v -22.30303 -36.84849 0
v -23.27273 -36.84849 0
v -23.27273 -35.87879 0
v -22.30303 -35.87879 0
v -23.27273 -36.84849 0
v -24.24242 -36.84849 0
v -24.24242 -35.87879 0
v -23.27273 -35.87879 0
v -24.24242 -36.84849 0
v -25.21212 -36.84849 0
v -25.21212 -35.87879 0
v -24.24242 -35.87879 0
v -25.21212 -36.84849 0
v -26.18182 -36.84849 0
v -26.18182 -35.87879 0
v -25.21212 -35.87879 0
v -26.18182 -36.84849 0
v -27.15152 -36.84849 0
v -27.15152 -35.87879 0
v -26.18182 -35.87879 0
v -27.15152 -36.84849 0
v -28.12121 -36.84849 0
v -28.12121 -35.87879 0
v -27.15152 -35.87879 0
v -15.51515 -37.81818 0
v -16.48485 -37.81818 0
v -16.48485 -36.84849 0
v -15.51515 -36.84849 0
v -16.48485 -37.81818 0
v -17.45455 -37.81818 0
v -17.45455 -36.84849 0
v -16.48485 -36.84849 0
v -17.45455 -37.81818 0
v -18.42424 -37.81818 0
v -18.42424 -36.84849 0
v -17.45455 -36.84849 0
v -18.42424 -37.81818 0
v -19.39394 -37.81818 0
v -19.39394 -36.84849 0
v -18.42424 -36.84849 0
v -19.39394 -37.81818 0
v -20.36364 -37.81818 0
v -20.36364 -36.84849 0
v -19.39394 -36.84849 0
v -20.36364 -37.81818 0
v -21.33333 -37.81818 0
v -21.33333 -36.84849 0
v -20.36364 -36.84849 0
v -21.33333 -37.81818 0
v -22.30303 -37.81818 0
v -22.30303 -36.84849 0
v -21.33333 -36.84849 0
v -22.30303 -37.81818 0
v -23.27273 -37.81818 0
v -23.27273 -36.84849 0
v -22.30303 -36.84849 0
v -23.27273 -37.81818 0
v -24.24242 -37.81818 0
v -24.24242 -36.84849 0
v -23.27273 -36.84849 0
v -24.24242 -37.81818 0
v -25.21212 -37.81818 0
v -25.21212 -36.84849 0
v -24.24242 -36.84849 0
v -25.21212 -37.81818 0
v -26.18182 -37.81818 0
v -26.18182 -36.84849 0
v -25.21212 -36.84849 0
v -26.18182 -37.81818 0
v -27.15152 -37.81818 0
v -27.15152 -36.84849 0
v -26.18182 -36.84849 0
v -27.15152 -37.81818 0
v -28.12121 -37.81818 0
v -28.12121 -36.84849 0
v -27.15152 -36.84849 0
v -15.51515 -38.78788 0
v -16.48485 -38.78788 0
v -16.48485 -37.81818 0
v -15.51515 -37.81818 0
v -16.48485 -38.78788 0
v -17.45455 -38.78788 0
v -17.45455 -37.81818 0
v -16.48485 -37.81818 0
v -17.45455 -38.78788 0
v -18.42424 -38.78788 0
v -18.42424 -37.81818 0
v -17.45455 -37.81818 0
v -18.42424 -38.78788 0
v -19.39394 -38.78788 0
v -19.39394 -37.81818 0
v -18.42424 -37.81818 0
v -19.39394 -38.78788 0
v -20.36364 -38.78788 0
v -20.36364 -37.81818 0
v -19.39394 -37.81818 0
v -20.36364 -38.78788 0
v -21.33333 -38.78788 0
v -21.33333 -37.81818 0
v -20.36364 -37.81818 0
v -21.33333 -38.78788 0
v -22.30303 -38.78788 0
v -22.30303 -37.81818 0
v -21.33333 -37.81818 0
v -22.30303 -38.78788 0
v -23.27273 -38.78788 0
v -23.27273 -37.81818 0
v -22.30303 -37.81818 0
v -23.27273 -38.78788 0
v -24.24242 -38.78788 0
v -24.24242 -37.81818 0
v -23.27273 -37.81818 0
v -24.24242 -38.78788 0
v -25.21212 -38.78788 0
v -25.21212 -37.81818 0
v -24.24242 -37.81818 0
v -25.21212 -38.78788 0
v -26.18182 -38.78788 0
v -26.18182 -37.81818 0
v -25.21212 -37.81818 0
v -26.18182 -38.78788 0
v -27.15152 -38.78788 0
v -27.15152 -37.81818 0
v -26.18182 -37.81818 0
v -27.15152 -38.78788 0
v -28.12121 -38.78788 0
v -28.12121 -37.81818 0
v -27.15152 -37.81818 0
v -15.51515 -39.75758 0
v -16.48485 -39.75758 0
v -16.48485 -38.78788 0
v -15.51515 -38.78788 0
v -16.48485 -39.75758 0
v -17.45455 -39.75758 0
v -17.45455 -38.78788 0
v -16.48485 -38.78788 0
v -17.45455 -39.75758 0
v -18.42424 -39.75758 0
v -18.42424 -38.78788 0
v -17.45455 -38.78788 0
v -18.42424 -39.75758 0
v -19.39394 -39.75758 0
v -19.39394 -38.78788 0
v -18.42424 -38.78788 0
v -19.39394 -39.75758 0
v -20.36364 -39.75758 0
v -20.36364 -38.78788 0
v -19.39394 -38.78788 0
v -20.36364 -39.75758 0
v -21.33333 -39.75758 0
v -21.33333 -38.78788 0
v -20.36364 -38.78788 0
v -21.33333 -39.75758 0
v -22.30303 -39.75758 0
v -22.30303 -38.78788 0
v -21.33333 -38.78788 0
v -22.30303 -39.75758 0
v -23.27273 -39.75758 0
v -23.27273 -38.78788 0
v -22.30303 -38.78788 0
v -23.27273 -39.75758 0
v -24.24242 -39.75758 0
v -24.24242 -38.78788 0
v -23.27273 -38.78788 0
v -24.24242 -39.75758 0
v -25.21212 -39.75758 0
v -25.21212 -38.78788 0
v -24.24242 -38.78788 0
v -25.21212 -39.75758 0
v -26.18182 -39.75758 0
v -26.18182 -38.78788 0
v -25.21212 -38.78788 0
v -26.18182 -39.75758 0
v -27.15152 -39.75758 0
v -27.15152 -38.78788 0
v -26.18182 -38.78788 0
v -27.15152 -39.75758 0
v -28.12121 -39.75758 0
v -28.12121 -38.78788 0
v -27.15152 -38.78788 0

# Texture cooridinates (Count = 42)
vt 0 0.4285714
vt 0.1111111 0.4285714
vt 0.1111111 0.5714285
vt 0 0.5714285
vt 0.3333333 0.2857143
vt 0.4444444 0.2857143
vt 0.4444444 0.4285714
vt 0.3333333 0.4285714
vt 0.5555556 0.2857143
vt 0.5555556 0.4285714
vt 0.2222222 0.4285714
vt 0.3333333 0.5714285
vt 0.2222222 0.5714285
vt 0 0.2857143
vt 0.1111111 0.2857143
vt 0.3333333 0.1428571
vt 0.4444444 0.1428571
vt 0.5555556 0.1428571
vt 0.4444444 0
vt 0.5555556 0
vt 0.6666667 0.1428571
vt 0.6666667 0.2857143
vt 0.2222222 0.2857143
vt 0 0.1428571
vt 0.1111111 0.1428571
vt 0.2222222 0.1428571
vt 0 0
vt 0.1111111 0
vt 0.2222222 0
vt 0.3333333 0
vt 0 0.8571429
vt 0.1111111 0.8571429
vt 0.1111111 1
vt 0 1
vt 0.2222222 0.8571429
vt 0.2222222 1
vt 0.3333333 0.8571429
vt 0.3333333 1
vt 0 0.7142857
vt 0.1111111 0.7142857
vt 0.2222222 0.7142857
vt 0.3333333 0.7142857

# Normal
vn 0 0 -1

# Mesh description
g Test_mesh_0037

# Faces
f 1/1/1 2/2/1 3/3/1 4/4/1
f 5/5/1 6/6/1 7/7/1 8/8/1
f 9/6/1 10/9/1 11/10/1 12/7/1
f 13/6/1 14/9/1 15/10/1 16/7/1
f 17/6/1 18/9/1 19/10/1 20/7/1
f 21/6/1 22/9/1 23/10/1 24/7/1
f 25/6/1 26/9/1 27/10/1 28/7/1
f 29/6/1 30/9/1 31/10/1 32/7/1
f 33/6/1 34/9/1 35/10/1 36/7/1
f 37/6/1 38/9/1 39/10/1 40/7/1
f 41/6/1 42/9/1 43/10/1 44/7/1
f 45/6/1 46/9/1 47/10/1 48/7/1
f 49/11/1 50/8/1 51/12/1 52/13/1
f 53/14/1 54/15/1 55/2/1 56/1/1
f 57/16/1 58/17/1 59/6/1 60/5/1
f 61/17/1 62/18/1 63/9/1 64/6/1
f 65/17/1 66/18/1 67/9/1 68/6/1
f 69/17/1 70/18/1 71/9/1 72/6/1
f 73/19/1 74/20/1 75/18/1 76/17/1
f 77/19/1 78/20/1 79/18/1 80/17/1
f 81/19/1 82/20/1 83/18/1 84/17/1
f 85/17/1 86/18/1 87/9/1 88/6/1
f 89/17/1 90/18/1 91/9/1 92/6/1
f 93/17/1 94/18/1 95/9/1 96/6/1
f 97/18/1 98/21/1 99/22/1 100/9/1
f 101/23/1 102/5/1 103/8/1 104/11/1
f 105/24/1 106/25/1 107/15/1 108/14/1
f 109/25/1 110/26/1 111/23/1 112/15/1
f 113/25/1 114/26/1 115/23/1 116/15/1
f 117/25/1 118/26/1 119/23/1 120/15/1
f 121/27/1 122/28/1 123/25/1 124/24/1
f 125/16/1 126/17/1 127/6/1 128/5/1
f 129/17/1 130/18/1 131/9/1 132/6/1
f 133/18/1 134/21/1 135/22/1 136/9/1
f 137/29/1 138/30/1 139/16/1 140/26/1
f 141/25/1 142/26/1 143/23/1 144/15/1
f 145/25/1 146/26/1 147/23/1 148/15/1
f 149/25/1 150/26/1 151/23/1 152/15/1
f 153/26/1 154/16/1 155/5/1 156/23/1
f 157/31/1 158/32/1 159/33/1 160/34/1
f 161/32/1 162/35/1 163/36/1 164/33/1
f 165/32/1 166/35/1 167/36/1 168/33/1
f 169/32/1 170/35/1 171/36/1 172/33/1
f 173/24/1 174/25/1 175/15/1 176/14/1
f 177/25/1 178/26/1 179/23/1 180/15/1
f 181/25/1 182/26/1 183/23/1 184/15/1
f 185/25/1 186/26/1 187/23/1 188/15/1
f 189/26/1 190/16/1 191/5/1 192/23/1
f 193/32/1 194/35/1 195/36/1 196/33/1
f 197/32/1 198/35/1 199/36/1 200/33/1
f 201/32/1 202/35/1 203/36/1 204/33/1
f 205/35/1 206/37/1 207/38/1 208/36/1
f 209/39/1 210/40/1 211/32/1 212/31/1
f 213/40/1 214/41/1 215/35/1 216/32/1
f 217/40/1 218/41/1 219/35/1 220/32/1
f 221/40/1 222/41/1 223/35/1 224/32/1
f 225/31/1 226/32/1 227/33/1 228/34/1
f 229/32/1 230/35/1 231/36/1 232/33/1
f 233/32/1 234/35/1 235/36/1 236/33/1
f 237/32/1 238/35/1 239/36/1 240/33/1
f 241/32/1 242/35/1 243/36/1 244/33/1
f 245/40/1 246/41/1 247/35/1 248/32/1
f 249/40/1 250/41/1 251/35/1 252/32/1
f 253/40/1 254/41/1 255/35/1 256/32/1
f 257/41/1 258/42/1 259/37/1 260/35/1
f 261/39/1 262/40/1 263/32/1 264/31/1
f 265/40/1 266/41/1 267/35/1 268/32/1
f 269/40/1 270/41/1 271/35/1 272/32/1
f 273/40/1 274/41/1 275/35/1 276/32/1
f 277/39/1 278/40/1 279/32/1 280/31/1
f 281/40/1 282/41/1 283/35/1 284/32/1
f 285/40/1 286/41/1 287/35/1 288/32/1
f 289/40/1 290/41/1 291/35/1 292/32/1
f 293/40/1 294/41/1 295/35/1 296/32/1
f 297/40/1 298/41/1 299/35/1 300/32/1
f 301/40/1 302/41/1 303/35/1 304/32/1
f 305/40/1 306/41/1 307/35/1 308/32/1
f 309/41/1 310/42/1 311/37/1 312/35/1
f 313/39/1 314/40/1 315/32/1 316/31/1
f 317/40/1 318/41/1 319/35/1 320/32/1
f 321/40/1 322/41/1 323/35/1 324/32/1
f 325/40/1 326/41/1 327/35/1 328/32/1
f 329/39/1 330/40/1 331/32/1 332/31/1
f 333/40/1 334/41/1 335/35/1 336/32/1
f 337/40/1 338/41/1 339/35/1 340/32/1
f 341/40/1 342/41/1 343/35/1 344/32/1
f 345/40/1 346/41/1 347/35/1 348/32/1
f 349/40/1 350/41/1 351/35/1 352/32/1
f 353/40/1 354/41/1 355/35/1 356/32/1
f 357/40/1 358/41/1 359/35/1 360/32/1
f 361/41/1 362/42/1 363/37/1 364/35/1
f 365/39/1 366/40/1 367/32/1 368/31/1
f 369/40/1 370/41/1 371/35/1 372/32/1
f 373/40/1 374/41/1 375/35/1 376/32/1
f 377/40/1 378/41/1 379/35/1 380/32/1
f 381/39/1 382/40/1 383/32/1 384/31/1
f 385/40/1 386/41/1 387/35/1 388/32/1
f 389/40/1 390/41/1 391/35/1 392/32/1
f 393/40/1 394/41/1 395/35/1 396/32/1
f 397/40/1 398/41/1 399/35/1 400/32/1
f 401/40/1 402/41/1 403/35/1 404/32/1
f 405/40/1 406/41/1 407/35/1 408/32/1
f 409/40/1 410/41/1 411/35/1 412/32/1
f 413/41/1 414/42/1 415/37/1 416/35/1
f 417/39/1 418/40/1 419/32/1 420/31/1
f 421/40/1 422/41/1 423/35/1 424/32/1
f 425/40/1 426/41/1 427/35/1 428/32/1
f 429/40/1 430/41/1 431/35/1 432/32/1
f 433/39/1 434/40/1 435/32/1 436/31/1
f 437/40/1 438/41/1 439/35/1 440/32/1
f 441/40/1 442/41/1 443/35/1 444/32/1
f 445/40/1 446/41/1 447/35/1 448/32/1
f 449/40/1 450/41/1 451/35/1 452/32/1
f 453/40/1 454/41/1 455/35/1 456/32/1
f 457/40/1 458/41/1 459/35/1 460/32/1
f 461/40/1 462/41/1 463/35/1 464/32/1
f 465/41/1 466/42/1 467/37/1 468/35/1
f 469/39/1 470/40/1 471/32/1 472/31/1
f 473/40/1 474/41/1 475/35/1 476/32/1
f 477/40/1 478/41/1 479/35/1 480/32/1
f 481/40/1 482/41/1 483/35/1 484/32/1
f 485/40/1 486/41/1 487/35/1 488/32/1
f 489/40/1 490/41/1 491/35/1 492/32/1
f 493/40/1 494/41/1 495/35/1 496/32/1
f 497/40/1 498/41/1 499/35/1 500/32/1
f 501/40/1 502/41/1 503/35/1 504/32/1
f 505/40/1 506/41/1 507/35/1 508/32/1
f 509/40/1 510/41/1 511/35/1 512/32/1
f 513/40/1 514/41/1 515/35/1 516/32/1
f 517/41/1 518/42/1 519/37/1 520/35/1
f 521/4/1 522/3/1 523/40/1 524/39/1
f 525/3/1 526/13/1 527/41/1 528/40/1
f 529/3/1 530/13/1 531/41/1 532/40/1
f 533/3/1 534/13/1 535/41/1 536/40/1
f 537/3/1 538/13/1 539/41/1 540/40/1
f 541/3/1 542/13/1 543/41/1 544/40/1
f 545/3/1 546/13/1 547/41/1 548/40/1
f 549/3/1 550/13/1 551/41/1 552/40/1
f 553/3/1 554/13/1 555/41/1 556/40/1
f 557/3/1 558/13/1 559/41/1 560/40/1
f 561/3/1 562/13/1 563/41/1 564/40/1
f 565/3/1 566/13/1 567/41/1 568/40/1
f 569/13/1 570/12/1 571/42/1 572/41/1

