# Tiled2Unity generated file. Do not modify by hand.
# Wavefront file for 'Test_mesh_0012.obj'

# Vertices (Count = 32)
v -12.60606 -9.69697 0
v -13.57576 -9.69697 0
v -13.57576 -8.727273 0
v -12.60606 -8.727273 0
v -12.60606 -10.66667 0
v -13.57576 -10.66667 0
v -13.57576 -9.69697 0
v -12.60606 -9.69697 0
v -39.75758 -25.21212 0
v -40.72727 -25.21212 0
v -40.72727 -24.24242 0
v -39.75758 -24.24242 0
v -40.72727 -25.21212 0
v -41.69697 -25.21212 0
v -41.69697 -24.24242 0
v -40.72727 -24.24242 0
v -19.39394 -26.18182 0
v -20.36364 -26.18182 0
v -20.36364 -25.21212 0
v -19.39394 -25.21212 0
v -39.75758 -26.18182 0
v -40.72727 -26.18182 0
v -40.72727 -25.21212 0
v -39.75758 -25.21212 0
v -40.72727 -26.18182 0
v -41.69697 -26.18182 0
v -41.69697 -25.21212 0
v -40.72727 -25.21212 0
v -19.39394 -27.15152 0
v -20.36364 -27.15152 0
v -20.36364 -26.18182 0
v -19.39394 -26.18182 0

# Texture cooridinates (Count = 6)
vt 0.4444444 0.8571429
vt 0.5555556 0.8571429
vt 0.5555556 1
vt 0.4444444 1
vt 0.4444444 0.7142857
vt 0.5555556 0.7142857

# Normal
vn 0 0 -1

# Mesh description
g Test_mesh_0012

# Faces
f 1/1/1 2/2/1 3/3/1 4/4/1
f 5/5/1 6/6/1 7/2/1 8/1/1
f 9/1/1 10/2/1 11/3/1 12/4/1
f 13/1/1 14/2/1 15/3/1 16/4/1
f 17/1/1 18/2/1 19/3/1 20/4/1
f 21/5/1 22/6/1 23/2/1 24/1/1
f 25/5/1 26/6/1 27/2/1 28/1/1
f 29/5/1 30/6/1 31/2/1 32/1/1

