# Tiled2Unity generated file. Do not modify by hand.
# Wavefront file for 'Test_mesh_0022.obj'

# Vertices (Count = 40)
v -95.0303 -37.81818 0
v -96 -37.81818 0
v -96 -36.84849 0
v -95.0303 -36.84849 0
v -96 -37.81818 0
v -96.9697 -37.81818 0
v -96.9697 -36.84849 0
v -96 -36.84849 0
v -96.9697 -37.81818 0
v -97.9394 -37.81818 0
v -97.9394 -36.84849 0
v -96.9697 -36.84849 0
v -97.9394 -37.81818 0
v -98.9091 -37.81818 0
v -98.9091 -36.84849 0
v -97.9394 -36.84849 0
v -98.9091 -37.81818 0
v -99.87879 -37.81818 0
v -99.87879 -36.84849 0
v -98.9091 -36.84849 0
v -95.0303 -38.78788 0
v -96 -38.78788 0
v -96 -37.81818 0
v -95.0303 -37.81818 0
v -96 -38.78788 0
v -96.9697 -38.78788 0
v -96.9697 -37.81818 0
v -96 -37.81818 0
v -96.9697 -38.78788 0
v -97.9394 -38.78788 0
v -97.9394 -37.81818 0
v -96.9697 -37.81818 0
v -97.9394 -38.78788 0
v -98.9091 -38.78788 0
v -98.9091 -37.81818 0
v -97.9394 -37.81818 0
v -98.9091 -38.78788 0
v -99.87879 -38.78788 0
v -99.87879 -37.81818 0
v -98.9091 -37.81818 0

# Texture cooridinates (Count = 18)
vt 1 0.5
vt 0.8 0.5
vt 0.8 1
vt 1 1
vt 0.6 0.5
vt 0.6 1
vt 0.4 0.5
vt 0.4 1
vt 0.2 0.5
vt 0.2 1
vt 0 0.5
vt 0 1
vt 1 0
vt 0.8 0
vt 0.6 0
vt 0.4 0
vt 0.2 0
vt 0 0

# Normal
vn 0 0 -1

# Mesh description
g Test_mesh_0022

# Faces
f 1/1/1 2/2/1 3/3/1 4/4/1
f 5/2/1 6/5/1 7/6/1 8/3/1
f 9/5/1 10/7/1 11/8/1 12/6/1
f 13/7/1 14/9/1 15/10/1 16/8/1
f 17/9/1 18/11/1 19/12/1 20/10/1
f 21/13/1 22/14/1 23/2/1 24/1/1
f 25/14/1 26/15/1 27/5/1 28/2/1
f 29/15/1 30/16/1 31/7/1 32/5/1
f 33/16/1 34/17/1 35/9/1 36/7/1
f 37/17/1 38/18/1 39/11/1 40/9/1

