# Tiled2Unity generated file. Do not modify by hand.
# Wavefront file for 'Test_mesh_0004.obj'

# Vertices (Count = 8)
v -48.48485 -35.87879 0
v -49.45455 -35.87879 0
v -49.45455 -34.90909 0
v -48.48485 -34.90909 0
v -56.24242 -35.87879 0
v -57.21212 -35.87879 0
v -57.21212 -34.90909 0
v -56.24242 -34.90909 0

# Texture cooridinates (Count = 4)
vt 0.1111111 0.7142857
vt 0.2222222 0.7142857
vt 0.2222222 0.8571429
vt 0.1111111 0.8571429

# Normal
vn 0 0 -1

# Mesh description
g Test_mesh_0004

# Faces
f 1/1/1 2/2/1 3/3/1 4/4/1
f 5/1/1 6/2/1 7/3/1 8/4/1

