# Tiled2Unity generated file. Do not modify by hand.
# Wavefront file for 'Test_mesh_0038.obj'

# Vertices (Count = 180)
v -11.63636 -9.69697 0
v -12.60606 -9.69697 0
v -12.60606 -8.727273 0
v -11.63636 -8.727273 0
v -13.57576 -9.69697 0
v -14.54545 -9.69697 0
v -14.54545 -8.727273 0
v -13.57576 -8.727273 0
v -11.63636 -10.66667 0
v -12.60606 -10.66667 0
v -12.60606 -9.69697 0
v -11.63636 -9.69697 0
v -13.57576 -10.66667 0
v -14.54545 -10.66667 0
v -14.54545 -9.69697 0
v -13.57576 -9.69697 0
v -18.42424 -26.18182 0
v -19.39394 -26.18182 0
v -19.39394 -25.21212 0
v -18.42424 -25.21212 0
v -20.36364 -26.18182 0
v -21.33333 -26.18182 0
v -21.33333 -25.21212 0
v -20.36364 -25.21212 0
v -18.42424 -27.15152 0
v -19.39394 -27.15152 0
v -19.39394 -26.18182 0
v -18.42424 -26.18182 0
v -20.36364 -27.15152 0
v -21.33333 -27.15152 0
v -21.33333 -26.18182 0
v -20.36364 -26.18182 0
v -68.84849 -36.84849 0
v -69.81818 -36.84849 0
v -69.81818 -35.87879 0
v -68.84849 -35.87879 0
v -70.78788 -36.84849 0
v -71.75758 -36.84849 0
v -71.75758 -35.87879 0
v -70.78788 -35.87879 0
v -73.69698 -36.84849 0
v -74.66667 -36.84849 0
v -74.66667 -35.87879 0
v -73.69698 -35.87879 0
v -75.63637 -36.84849 0
v -76.60606 -36.84849 0
v -76.60606 -35.87879 0
v -75.63637 -35.87879 0
v -68.84849 -37.81818 0
v -69.81818 -37.81818 0
v -69.81818 -36.84849 0
v -68.84849 -36.84849 0
v -70.78788 -37.81818 0
v -71.75758 -37.81818 0
v -71.75758 -36.84849 0
v -70.78788 -36.84849 0
v -73.69698 -37.81818 0
v -74.66667 -37.81818 0
v -74.66667 -36.84849 0
v -73.69698 -36.84849 0
v -75.63637 -37.81818 0
v -76.60606 -37.81818 0
v -76.60606 -36.84849 0
v -75.63637 -36.84849 0
v -68.84849 -38.78788 0
v -69.81818 -38.78788 0
v -69.81818 -37.81818 0
v -68.84849 -37.81818 0
v -70.78788 -38.78788 0
v -71.75758 -38.78788 0
v -71.75758 -37.81818 0
v -70.78788 -37.81818 0
v -73.69698 -38.78788 0
v -74.66667 -38.78788 0
v -74.66667 -37.81818 0
v -73.69698 -37.81818 0
v -75.63637 -38.78788 0
v -76.60606 -38.78788 0
v -76.60606 -37.81818 0
v -75.63637 -37.81818 0
v -20.36364 -39.75758 0
v -21.33333 -39.75758 0
v -21.33333 -38.78788 0
v -20.36364 -38.78788 0
v -21.33333 -39.75758 0
v -22.30303 -39.75758 0
v -22.30303 -38.78788 0
v -21.33333 -38.78788 0
v -22.30303 -39.75758 0
v -23.27273 -39.75758 0
v -23.27273 -38.78788 0
v -22.30303 -38.78788 0
v -68.84849 -39.75758 0
v -69.81818 -39.75758 0
v -69.81818 -38.78788 0
v -68.84849 -38.78788 0
v -70.78788 -39.75758 0
v -71.75758 -39.75758 0
v -71.75758 -38.78788 0
v -70.78788 -38.78788 0
v -73.69698 -39.75758 0
v -74.66667 -39.75758 0
v -74.66667 -38.78788 0
v -73.69698 -38.78788 0
v -75.63637 -39.75758 0
v -76.60606 -39.75758 0
v -76.60606 -38.78788 0
v -75.63637 -38.78788 0
v -20.36364 -40.72727 0
v -21.33333 -40.72727 0
v -21.33333 -39.75758 0
v -20.36364 -39.75758 0
v -21.33333 -40.72727 0
v -22.30303 -40.72727 0
v -22.30303 -39.75758 0
v -21.33333 -39.75758 0
v -22.30303 -40.72727 0
v -23.27273 -40.72727 0
v -23.27273 -39.75758 0
v -22.30303 -39.75758 0
v -51.39394 -40.72727 0
v -52.36364 -40.72727 0
v -52.36364 -39.75758 0
v -51.39394 -39.75758 0
v -52.36364 -40.72727 0
v -53.33334 -40.72727 0
v -53.33334 -39.75758 0
v -52.36364 -39.75758 0
v -53.33334 -40.72727 0
v -54.30303 -40.72727 0
v -54.30303 -39.75758 0
v -53.33334 -39.75758 0
v -68.84849 -40.72727 0
v -69.81818 -40.72727 0
v -69.81818 -39.75758 0
v -68.84849 -39.75758 0
v -75.63637 -40.72727 0
v -76.60606 -40.72727 0
v -76.60606 -39.75758 0
v -75.63637 -39.75758 0
v -20.36364 -41.69697 0
v -21.33333 -41.69697 0
v -21.33333 -40.72727 0
v -20.36364 -40.72727 0
v -21.33333 -41.69697 0
v -22.30303 -41.69697 0
v -22.30303 -40.72727 0
v -21.33333 -40.72727 0
v -22.30303 -41.69697 0
v -23.27273 -41.69697 0
v -23.27273 -40.72727 0
v -22.30303 -40.72727 0
v -51.39394 -41.69697 0
v -52.36364 -41.69697 0
v -52.36364 -40.72727 0
v -51.39394 -40.72727 0
v -52.36364 -41.69697 0
v -53.33334 -41.69697 0
v -53.33334 -40.72727 0
v -52.36364 -40.72727 0
v -53.33334 -41.69697 0
v -54.30303 -41.69697 0
v -54.30303 -40.72727 0
v -53.33334 -40.72727 0
v -71.75758 -41.69697 0
v -72.72727 -41.69697 0
v -72.72727 -40.72727 0
v -71.75758 -40.72727 0
v -72.72727 -41.69697 0
v -73.69698 -41.69697 0
v -73.69698 -40.72727 0
v -72.72727 -40.72727 0
v -71.75758 -42.66667 0
v -72.72727 -42.66667 0
v -72.72727 -41.69697 0
v -71.75758 -41.69697 0
v -72.72727 -42.66667 0
v -73.69698 -42.66667 0
v -73.69698 -41.69697 0
v -72.72727 -41.69697 0

# Texture cooridinates (Count = 14)
vt 0.4444444 0.8571429
vt 0.5555556 0.8571429
vt 0.5555556 1
vt 0.4444444 1
vt 0.4444444 0.7142857
vt 0.5555556 0.7142857
vt 0.8888889 0.8571429
vt 1 0.8571429
vt 1 1
vt 0.8888889 1
vt 0.7777778 0.8571429
vt 0.7777778 1
vt 0.8888889 0.7142857
vt 1 0.7142857

# Normal
vn 0 0 -1

# Mesh description
g Test_mesh_0038

# Faces
f 1/1/1 2/2/1 3/3/1 4/4/1
f 5/1/1 6/2/1 7/3/1 8/4/1
f 9/5/1 10/6/1 11/2/1 12/1/1
f 13/5/1 14/6/1 15/2/1 16/1/1
f 17/1/1 18/2/1 19/3/1 20/4/1
f 21/1/1 22/2/1 23/3/1 24/4/1
f 25/5/1 26/6/1 27/2/1 28/1/1
f 29/5/1 30/6/1 31/2/1 32/1/1
f 33/7/1 34/8/1 35/9/1 36/10/1
f 37/7/1 38/8/1 39/9/1 40/10/1
f 41/7/1 42/8/1 43/9/1 44/10/1
f 45/7/1 46/8/1 47/9/1 48/10/1
f 49/11/1 50/7/1 51/10/1 52/12/1
f 53/11/1 54/7/1 55/10/1 56/12/1
f 57/11/1 58/7/1 59/10/1 60/12/1
f 61/11/1 62/7/1 63/10/1 64/12/1
f 65/11/1 66/7/1 67/10/1 68/12/1
f 69/11/1 70/7/1 71/10/1 72/12/1
f 73/11/1 74/7/1 75/10/1 76/12/1
f 77/11/1 78/7/1 79/10/1 80/12/1
f 81/1/1 82/2/1 83/3/1 84/4/1
f 85/1/1 86/2/1 87/3/1 88/4/1
f 89/1/1 90/2/1 91/3/1 92/4/1
f 93/11/1 94/7/1 95/10/1 96/12/1
f 97/13/1 98/14/1 99/8/1 100/7/1
f 101/13/1 102/14/1 103/8/1 104/7/1
f 105/11/1 106/7/1 107/10/1 108/12/1
f 109/1/1 110/2/1 111/3/1 112/4/1
f 113/1/1 114/2/1 115/3/1 116/4/1
f 117/1/1 118/2/1 119/3/1 120/4/1
f 121/1/1 122/2/1 123/3/1 124/4/1
f 125/1/1 126/2/1 127/3/1 128/4/1
f 129/1/1 130/2/1 131/3/1 132/4/1
f 133/13/1 134/14/1 135/8/1 136/7/1
f 137/13/1 138/14/1 139/8/1 140/7/1
f 141/5/1 142/6/1 143/2/1 144/1/1
f 145/5/1 146/6/1 147/2/1 148/1/1
f 149/5/1 150/6/1 151/2/1 152/1/1
f 153/5/1 154/6/1 155/2/1 156/1/1
f 157/5/1 158/6/1 159/2/1 160/1/1
f 161/5/1 162/6/1 163/2/1 164/1/1
f 165/1/1 166/2/1 167/3/1 168/4/1
f 169/1/1 170/2/1 171/3/1 172/4/1
f 173/5/1 174/6/1 175/2/1 176/1/1
f 177/5/1 178/6/1 179/2/1 180/1/1

