# Tiled2Unity generated file. Do not modify by hand.
# Wavefront file for 'Test_mesh_0008.obj'

# Vertices (Count = 20)
v -48.48485 -36.84849 0
v -49.45455 -36.84849 0
v -49.45455 -35.87879 0
v -48.48485 -35.87879 0
v -56.24242 -36.84849 0
v -57.21212 -36.84849 0
v -57.21212 -35.87879 0
v -56.24242 -35.87879 0
v -5.818182 -39.75758 0
v -6.787879 -39.75758 0
v -6.787879 -38.78788 0
v -5.818182 -38.78788 0
v -5.818182 -40.72727 0
v -6.787879 -40.72727 0
v -6.787879 -39.75758 0
v -5.818182 -39.75758 0
v -5.818182 -41.69697 0
v -6.787879 -41.69697 0
v -6.787879 -40.72727 0
v -5.818182 -40.72727 0

# Texture cooridinates (Count = 6)
vt 0.1111111 0.7142857
vt 0.2222222 0.7142857
vt 0.2222222 0.8571429
vt 0.1111111 0.8571429
vt 0.1111111 0.5714285
vt 0.2222222 0.5714285

# Normal
vn 0 0 -1

# Mesh description
g Test_mesh_0008

# Faces
f 1/1/1 2/2/1 3/3/1 4/4/1
f 5/1/1 6/2/1 7/3/1 8/4/1
f 9/1/1 10/2/1 11/3/1 12/4/1
f 13/1/1 14/2/1 15/3/1 16/4/1
f 17/5/1 18/6/1 19/2/1 20/1/1

