# Tiled2Unity generated file. Do not modify by hand.
# Wavefront file for 'art_mesh_0007.obj'

# Vertices (Count = 12)
v -32 -128 0
v -64 -128 0
v -64 -96 0
v -32 -96 0
v -32 -160 0
v -64 -160 0
v -64 -128 0
v -32 -128 0
v -32 -192 0
v -64 -192 0
v -64 -160 0
v -32 -160 0

# Texture cooridinates (Count = 8)
vt 0 0.6666666
vt 1 0.6666666
vt 1 1
vt 0 1
vt 0 0.3333333
vt 1 0.3333333
vt 0 0
vt 1 0

# Normal
vn 0 0 -1

# Mesh description
g art_mesh_0007

# Faces
f 1/1/1 2/2/1 3/3/1 4/4/1
f 5/5/1 6/6/1 7/2/1 8/1/1
f 9/7/1 10/8/1 11/6/1 12/5/1

