# Tiled2Unity generated file. Do not modify by hand.
# Wavefront file for 'art_mesh_0008.obj'

# Vertices (Count = 16)
v -416 -128 0
v -448 -128 0
v -448 -96 0
v -416 -96 0
v -416 -160 0
v -448 -160 0
v -448 -128 0
v -416 -128 0
v -416 -192 0
v -448 -192 0
v -448 -160 0
v -416 -160 0
v -416 -224 0
v -448 -224 0
v -448 -192 0
v -416 -192 0

# Texture cooridinates (Count = 10)
vt 0 0.75
vt 1 0.75
vt 1 1
vt 0 1
vt 0 0.5
vt 1 0.5
vt 0 0.25
vt 1 0.25
vt 0 0
vt 1 0

# Normal
vn 0 0 -1

# Mesh description
g art_mesh_0008

# Faces
f 1/1/1 2/2/1 3/3/1 4/4/1
f 5/5/1 6/6/1 7/2/1 8/1/1
f 9/7/1 10/8/1 11/6/1 12/5/1
f 13/9/1 14/10/1 15/8/1 16/7/1

