# Tiled2Unity generated file. Do not modify by hand.
# Wavefront file for 'art_mesh_0013.obj'

# Vertices (Count = 24)
v -32 -128 0
v -64 -128 0
v -64 -96 0
v -32 -96 0
v -416 -128 0
v -448 -128 0
v -448 -96 0
v -416 -96 0
v -288 -224 0
v -320 -224 0
v -320 -192 0
v -288 -192 0
v -416 -256 0
v -448 -256 0
v -448 -224 0
v -416 -224 0
v -32 -288 0
v -64 -288 0
v -64 -256 0
v -32 -256 0
v -416 -288 0
v -448 -288 0
v -448 -256 0
v -416 -256 0

# Texture cooridinates (Count = 4)
vt 0 0
vt 1 0
vt 1 1
vt 0 1

# Normal
vn 0 0 -1

# Mesh description
g art_mesh_0013

# Faces
f 1/1/1 2/2/1 3/3/1 4/4/1
f 5/1/1 6/2/1 7/3/1 8/4/1
f 9/1/1 10/2/1 11/3/1 12/4/1
f 13/1/1 14/2/1 15/3/1 16/4/1
f 17/1/1 18/2/1 19/3/1 20/4/1
f 21/1/1 22/2/1 23/3/1 24/4/1

