# Tiled2Unity generated file. Do not modify by hand.
# Wavefront file for 'detentionRoom_mesh_0008.obj'

# Vertices (Count = 72)
v -128 -192 0
v -160 -192 0
v -160 -160 0
v -128 -160 0
v -224 -192 0
v -256 -192 0
v -256 -160 0
v -224 -160 0
v -320 -192 0
v -352 -192 0
v -352 -160 0
v -320 -160 0
v -128 -224 0
v -160 -224 0
v -160 -192 0
v -128 -192 0
v -224 -224 0
v -256 -224 0
v -256 -192 0
v -224 -192 0
v -320 -224 0
v -352 -224 0
v -352 -192 0
v -320 -192 0
v -128 -256 0
v -160 -256 0
v -160 -224 0
v -128 -224 0
v -224 -256 0
v -256 -256 0
v -256 -224 0
v -224 -224 0
v -320 -256 0
v -352 -256 0
v -352 -224 0
v -320 -224 0
v -128 -288 0
v -160 -288 0
v -160 -256 0
v -128 -256 0
v -224 -288 0
v -256 -288 0
v -256 -256 0
v -224 -256 0
v -320 -288 0
v -352 -288 0
v -352 -256 0
v -320 -256 0
v -128 -320 0
v -160 -320 0
v -160 -288 0
v -128 -288 0
v -224 -320 0
v -256 -320 0
v -256 -288 0
v -224 -288 0
v -320 -320 0
v -352 -320 0
v -352 -288 0
v -320 -288 0
v -128 -352 0
v -160 -352 0
v -160 -320 0
v -128 -320 0
v -224 -352 0
v -256 -352 0
v -256 -320 0
v -224 -320 0
v -320 -352 0
v -352 -352 0
v -352 -320 0
v -320 -320 0

# Texture cooridinates (Count = 6)
vt 0.6666667 0.75
vt 1 0.75
vt 1 1
vt 0.6666667 1
vt 0.6666667 0.5
vt 1 0.5

# Normal
vn 0 0 -1

# Mesh description
g detentionRoom_mesh_0008

# Faces
f 1/1/1 2/2/1 3/3/1 4/4/1
f 5/1/1 6/2/1 7/3/1 8/4/1
f 9/1/1 10/2/1 11/3/1 12/4/1
f 13/5/1 14/6/1 15/2/1 16/1/1
f 17/5/1 18/6/1 19/2/1 20/1/1
f 21/5/1 22/6/1 23/2/1 24/1/1
f 25/1/1 26/2/1 27/3/1 28/4/1
f 29/1/1 30/2/1 31/3/1 32/4/1
f 33/1/1 34/2/1 35/3/1 36/4/1
f 37/5/1 38/6/1 39/2/1 40/1/1
f 41/5/1 42/6/1 43/2/1 44/1/1
f 45/5/1 46/6/1 47/2/1 48/1/1
f 49/1/1 50/2/1 51/3/1 52/4/1
f 53/1/1 54/2/1 55/3/1 56/4/1
f 57/1/1 58/2/1 59/3/1 60/4/1
f 61/5/1 62/6/1 63/2/1 64/1/1
f 65/5/1 66/6/1 67/2/1 68/1/1
f 69/5/1 70/6/1 71/2/1 72/1/1

