# Tiled2Unity generated file. Do not modify by hand.
# Wavefront file for 'detentionRoom_mesh_0004.obj'

# Vertices (Count = 188)
v 0 -32 0
v -32 -32 0
v -32 0 0
v 0 0 0
v -32 -32 0
v -64 -32 0
v -64 0 0
v -32 0 0
v -64 -32 0
v -96 -32 0
v -96 0 0
v -64 0 0
v -96 -32 0
v -128 -32 0
v -128 0 0
v -96 0 0
v -128 -32 0
v -160 -32 0
v -160 0 0
v -128 0 0
v -160 -32 0
v -192 -32 0
v -192 0 0
v -160 0 0
v -192 -32 0
v -224 -32 0
v -224 0 0
v -192 0 0
v -224 -32 0
v -256 -32 0
v -256 0 0
v -224 0 0
v -256 -32 0
v -288 -32 0
v -288 0 0
v -256 0 0
v -288 -32 0
v -320 -32 0
v -320 0 0
v -288 0 0
v -320 -32 0
v -352 -32 0
v -352 0 0
v -320 0 0
v -352 -32 0
v -384 -32 0
v -384 0 0
v -352 0 0
v -384 -32 0
v -416 -32 0
v -416 0 0
v -384 0 0
v -416 -32 0
v -448 -32 0
v -448 0 0
v -416 0 0
v -448 -32 0
v -480 -32 0
v -480 0 0
v -448 0 0
v 0 -64 0
v -32 -64 0
v -32 -32 0
v 0 -32 0
v -448 -64 0
v -480 -64 0
v -480 -32 0
v -448 -32 0
v 0 -96 0
v -32 -96 0
v -32 -64 0
v 0 -64 0
v -448 -96 0
v -480 -96 0
v -480 -64 0
v -448 -64 0
v 0 -128 0
v -32 -128 0
v -32 -96 0
v 0 -96 0
v -448 -128 0
v -480 -128 0
v -480 -96 0
v -448 -96 0
v 0 -160 0
v -32 -160 0
v -32 -128 0
v 0 -128 0
v -448 -160 0
v -480 -160 0
v -480 -128 0
v -448 -128 0
v 0 -192 0
v -32 -192 0
v -32 -160 0
v 0 -160 0
v -448 -192 0
v -480 -192 0
v -480 -160 0
v -448 -160 0
v 0 -224 0
v -32 -224 0
v -32 -192 0
v 0 -192 0
v -448 -224 0
v -480 -224 0
v -480 -192 0
v -448 -192 0
v 0 -256 0
v -32 -256 0
v -32 -224 0
v 0 -224 0
v -448 -256 0
v -480 -256 0
v -480 -224 0
v -448 -224 0
v 0 -288 0
v -32 -288 0
v -32 -256 0
v 0 -256 0
v -448 -288 0
v -480 -288 0
v -480 -256 0
v -448 -256 0
v 0 -320 0
v -32 -320 0
v -32 -288 0
v 0 -288 0
v -448 -320 0
v -480 -320 0
v -480 -288 0
v -448 -288 0
v 0 -352 0
v -32 -352 0
v -32 -320 0
v 0 -320 0
v -448 -352 0
v -480 -352 0
v -480 -320 0
v -448 -320 0
v 0 -384 0
v -32 -384 0
v -32 -352 0
v 0 -352 0
v -32 -384 0
v -64 -384 0
v -64 -352 0
v -32 -352 0
v -64 -384 0
v -96 -384 0
v -96 -352 0
v -64 -352 0
v -96 -384 0
v -128 -384 0
v -128 -352 0
v -96 -352 0
v -128 -384 0
v -160 -384 0
v -160 -352 0
v -128 -352 0
v -160 -384 0
v -192 -384 0
v -192 -352 0
v -160 -352 0
v -288 -384 0
v -320 -384 0
v -320 -352 0
v -288 -352 0
v -320 -384 0
v -352 -384 0
v -352 -352 0
v -320 -352 0
v -352 -384 0
v -384 -384 0
v -384 -352 0
v -352 -352 0
v -384 -384 0
v -416 -384 0
v -416 -352 0
v -384 -352 0
v -416 -384 0
v -448 -384 0
v -448 -352 0
v -416 -352 0
v -448 -384 0
v -480 -384 0
v -480 -352 0
v -448 -352 0

# Texture cooridinates (Count = 20)
vt 0 0.8
vt 0.25 0.8
vt 0.25 1
vt 0 1
vt 0.5 0.8
vt 0.5 1
vt 0.75 0.8
vt 0.75 1
vt 0 0.6
vt 0.25 0.6
vt 0.5 0.6
vt 0.75 0.6
vt 0 0.4
vt 0.25 0.4
vt 0.5 0.4
vt 0 0.2
vt 0.25 0.2
vt 0.5 0.2
vt 0.75 0.2
vt 0.75 0.4

# Normal
vn 0 0 -1

# Mesh description
g detentionRoom_mesh_0004

# Faces
f 1/1/1 2/2/1 3/3/1 4/4/1
f 5/2/1 6/5/1 7/6/1 8/3/1
f 9/2/1 10/5/1 11/6/1 12/3/1
f 13/2/1 14/5/1 15/6/1 16/3/1
f 17/2/1 18/5/1 19/6/1 20/3/1
f 21/2/1 22/5/1 23/6/1 24/3/1
f 25/2/1 26/5/1 27/6/1 28/3/1
f 29/2/1 30/5/1 31/6/1 32/3/1
f 33/2/1 34/5/1 35/6/1 36/3/1
f 37/2/1 38/5/1 39/6/1 40/3/1
f 41/2/1 42/5/1 43/6/1 44/3/1
f 45/2/1 46/5/1 47/6/1 48/3/1
f 49/2/1 50/5/1 51/6/1 52/3/1
f 53/2/1 54/5/1 55/6/1 56/3/1
f 57/5/1 58/7/1 59/8/1 60/6/1
f 61/9/1 62/10/1 63/2/1 64/1/1
f 65/11/1 66/12/1 67/7/1 68/5/1
f 69/9/1 70/10/1 71/2/1 72/1/1
f 73/11/1 74/12/1 75/7/1 76/5/1
f 77/9/1 78/10/1 79/2/1 80/1/1
f 81/11/1 82/12/1 83/7/1 84/5/1
f 85/9/1 86/10/1 87/2/1 88/1/1
f 89/11/1 90/12/1 91/7/1 92/5/1
f 93/9/1 94/10/1 95/2/1 96/1/1
f 97/11/1 98/12/1 99/7/1 100/5/1
f 101/9/1 102/10/1 103/2/1 104/1/1
f 105/11/1 106/12/1 107/7/1 108/5/1
f 109/9/1 110/10/1 111/2/1 112/1/1
f 113/11/1 114/12/1 115/7/1 116/5/1
f 117/9/1 118/10/1 119/2/1 120/1/1
f 121/11/1 122/12/1 123/7/1 124/5/1
f 125/9/1 126/10/1 127/2/1 128/1/1
f 129/11/1 130/12/1 131/7/1 132/5/1
f 133/9/1 134/10/1 135/2/1 136/1/1
f 137/11/1 138/12/1 139/7/1 140/5/1
f 141/13/1 142/14/1 143/10/1 144/9/1
f 145/14/1 146/15/1 147/11/1 148/10/1
f 149/14/1 150/15/1 151/11/1 152/10/1
f 153/14/1 154/15/1 155/11/1 156/10/1
f 157/14/1 158/15/1 159/11/1 160/10/1
f 161/16/1 162/17/1 163/14/1 164/13/1
f 165/18/1 166/19/1 167/20/1 168/15/1
f 169/14/1 170/15/1 171/11/1 172/10/1
f 173/14/1 174/15/1 175/11/1 176/10/1
f 177/14/1 178/15/1 179/11/1 180/10/1
f 181/14/1 182/15/1 183/11/1 184/10/1
f 185/15/1 186/20/1 187/12/1 188/11/1

