# Tiled2Unity generated file. Do not modify by hand.
# Wavefront file for 'theatre_mesh_0012.obj'

# Vertices (Count = 48)
v -64 -224 0
v -96 -224 0
v -96 -192 0
v -64 -192 0
v -96 -224 0
v -128 -224 0
v -128 -192 0
v -96 -192 0
v -128 -224 0
v -160 -224 0
v -160 -192 0
v -128 -192 0
v -736 -224 0
v -768 -224 0
v -768 -192 0
v -736 -192 0
v -768 -224 0
v -800 -224 0
v -800 -192 0
v -768 -192 0
v -800 -224 0
v -832 -224 0
v -832 -192 0
v -800 -192 0
v -64 -256 0
v -96 -256 0
v -96 -224 0
v -64 -224 0
v -96 -256 0
v -128 -256 0
v -128 -224 0
v -96 -224 0
v -128 -256 0
v -160 -256 0
v -160 -224 0
v -128 -224 0
v -736 -256 0
v -768 -256 0
v -768 -224 0
v -736 -224 0
v -768 -256 0
v -800 -256 0
v -800 -224 0
v -768 -224 0
v -800 -256 0
v -832 -256 0
v -832 -224 0
v -800 -224 0

# Texture cooridinates (Count = 19)
vt 0.2 0.6666666
vt 0.4 0.6666666
vt 0.4 1
vt 0.2 1
vt 0.6 0.6666666
vt 0.6 1
vt 0 0.3333333
vt 0.2 0.3333333
vt 0 0.6666666
vt 0.8 0.6666666
vt 0.8 1
vt 1 0.6666666
vt 1 1
vt 0.4 0.3333333
vt 0.6 0.3333333
vt 0 0
vt 0.2 0
vt 0.8 0.3333333
vt 1 0.3333333

# Normal
vn 0 0 -1

# Mesh description
g theatre_mesh_0012

# Faces
f 1/1/1 2/2/1 3/3/1 4/4/1
f 5/2/1 6/5/1 7/6/1 8/3/1
f 9/7/1 10/8/1 11/1/1 12/9/1
f 13/7/1 14/8/1 15/1/1 16/9/1
f 17/5/1 18/10/1 19/11/1 20/6/1
f 21/10/1 22/12/1 23/13/1 24/11/1
f 25/8/1 26/14/1 27/2/1 28/1/1
f 29/14/1 30/15/1 31/5/1 32/2/1
f 33/16/1 34/17/1 35/8/1 36/7/1
f 37/16/1 38/17/1 39/8/1 40/7/1
f 41/15/1 42/18/1 43/10/1 44/5/1
f 45/18/1 46/19/1 47/12/1 48/10/1

