# Tiled2Unity generated file. Do not modify by hand.
# Wavefront file for 'theatre_mesh_0006.obj'

# Vertices (Count = 144)
v -160 -64 0
v -192 -64 0
v -192 -32 0
v -160 -32 0
v -192 -64 0
v -224 -64 0
v -224 -32 0
v -192 -32 0
v -224 -64 0
v -256 -64 0
v -256 -32 0
v -224 -32 0
v -256 -64 0
v -288 -64 0
v -288 -32 0
v -256 -32 0
v -288 -64 0
v -320 -64 0
v -320 -32 0
v -288 -32 0
v -320 -64 0
v -352 -64 0
v -352 -32 0
v -320 -32 0
v -352 -64 0
v -384 -64 0
v -384 -32 0
v -352 -32 0
v -384 -64 0
v -416 -64 0
v -416 -32 0
v -384 -32 0
v -416 -64 0
v -448 -64 0
v -448 -32 0
v -416 -32 0
v -448 -64 0
v -480 -64 0
v -480 -32 0
v -448 -32 0
v -480 -64 0
v -512 -64 0
v -512 -32 0
v -480 -32 0
v -512 -64 0
v -544 -64 0
v -544 -32 0
v -512 -32 0
v -544 -64 0
v -576 -64 0
v -576 -32 0
v -544 -32 0
v -576 -64 0
v -608 -64 0
v -608 -32 0
v -576 -32 0
v -608 -64 0
v -640 -64 0
v -640 -32 0
v -608 -32 0
v -640 -64 0
v -672 -64 0
v -672 -32 0
v -640 -32 0
v -672 -64 0
v -704 -64 0
v -704 -32 0
v -672 -32 0
v -704 -64 0
v -736 -64 0
v -736 -32 0
v -704 -32 0
v -160 -96 0
v -192 -96 0
v -192 -64 0
v -160 -64 0
v -192 -96 0
v -224 -96 0
v -224 -64 0
v -192 -64 0
v -224 -96 0
v -256 -96 0
v -256 -64 0
v -224 -64 0
v -256 -96 0
v -288 -96 0
v -288 -64 0
v -256 -64 0
v -288 -96 0
v -320 -96 0
v -320 -64 0
v -288 -64 0
v -320 -96 0
v -352 -96 0
v -352 -64 0
v -320 -64 0
v -352 -96 0
v -384 -96 0
v -384 -64 0
v -352 -64 0
v -384 -96 0
v -416 -96 0
v -416 -64 0
v -384 -64 0
v -416 -96 0
v -448 -96 0
v -448 -64 0
v -416 -64 0
v -448 -96 0
v -480 -96 0
v -480 -64 0
v -448 -64 0
v -480 -96 0
v -512 -96 0
v -512 -64 0
v -480 -64 0
v -512 -96 0
v -544 -96 0
v -544 -64 0
v -512 -64 0
v -544 -96 0
v -576 -96 0
v -576 -64 0
v -544 -64 0
v -576 -96 0
v -608 -96 0
v -608 -64 0
v -576 -64 0
v -608 -96 0
v -640 -96 0
v -640 -64 0
v -608 -64 0
v -640 -96 0
v -672 -96 0
v -672 -64 0
v -640 -64 0
v -672 -96 0
v -704 -96 0
v -704 -64 0
v -672 -64 0
v -704 -96 0
v -736 -96 0
v -736 -64 0
v -704 -64 0

# Texture cooridinates (Count = 6)
vt 0 0.5
vt 1 0.5
vt 1 1
vt 0 1
vt 0 0
vt 1 0

# Normal
vn 0 0 -1

# Mesh description
g theatre_mesh_0006

# Faces
f 1/1/1 2/2/1 3/3/1 4/4/1
f 5/1/1 6/2/1 7/3/1 8/4/1
f 9/1/1 10/2/1 11/3/1 12/4/1
f 13/1/1 14/2/1 15/3/1 16/4/1
f 17/1/1 18/2/1 19/3/1 20/4/1
f 21/1/1 22/2/1 23/3/1 24/4/1
f 25/1/1 26/2/1 27/3/1 28/4/1
f 29/1/1 30/2/1 31/3/1 32/4/1
f 33/1/1 34/2/1 35/3/1 36/4/1
f 37/1/1 38/2/1 39/3/1 40/4/1
f 41/1/1 42/2/1 43/3/1 44/4/1
f 45/1/1 46/2/1 47/3/1 48/4/1
f 49/1/1 50/2/1 51/3/1 52/4/1
f 53/1/1 54/2/1 55/3/1 56/4/1
f 57/1/1 58/2/1 59/3/1 60/4/1
f 61/1/1 62/2/1 63/3/1 64/4/1
f 65/1/1 66/2/1 67/3/1 68/4/1
f 69/1/1 70/2/1 71/3/1 72/4/1
f 73/5/1 74/6/1 75/2/1 76/1/1
f 77/5/1 78/6/1 79/2/1 80/1/1
f 81/5/1 82/6/1 83/2/1 84/1/1
f 85/5/1 86/6/1 87/2/1 88/1/1
f 89/5/1 90/6/1 91/2/1 92/1/1
f 93/5/1 94/6/1 95/2/1 96/1/1
f 97/5/1 98/6/1 99/2/1 100/1/1
f 101/5/1 102/6/1 103/2/1 104/1/1
f 105/5/1 106/6/1 107/2/1 108/1/1
f 109/5/1 110/6/1 111/2/1 112/1/1
f 113/5/1 114/6/1 115/2/1 116/1/1
f 117/5/1 118/6/1 119/2/1 120/1/1
f 121/5/1 122/6/1 123/2/1 124/1/1
f 125/5/1 126/6/1 127/2/1 128/1/1
f 129/5/1 130/6/1 131/2/1 132/1/1
f 133/5/1 134/6/1 135/2/1 136/1/1
f 137/5/1 138/6/1 139/2/1 140/1/1
f 141/5/1 142/6/1 143/2/1 144/1/1

