# Tiled2Unity generated file. Do not modify by hand.
# Wavefront file for 'Lab_mesh_0005.obj'

# Vertices (Count = 40)
v -5.818182 -3.878788 0
v -6.787879 -3.878788 0
v -6.787879 -2.909091 0
v -5.818182 -2.909091 0
v -7.757576 -3.878788 0
v -8.727273 -3.878788 0
v -8.727273 -2.909091 0
v -7.757576 -2.909091 0
v -3.878788 -5.818182 0
v -4.848485 -5.818182 0
v -4.848485 -4.848485 0
v -3.878788 -4.848485 0
v -4.848485 -5.818182 0
v -5.818182 -5.818182 0
v -5.818182 -4.848485 0
v -4.848485 -4.848485 0
v -8.727273 -5.818182 0
v -9.69697 -5.818182 0
v -9.69697 -4.848485 0
v -8.727273 -4.848485 0
v -9.69697 -5.818182 0
v -10.66667 -5.818182 0
v -10.66667 -4.848485 0
v -9.69697 -4.848485 0
v -3.878788 -7.757576 0
v -4.848485 -7.757576 0
v -4.848485 -6.787879 0
v -3.878788 -6.787879 0
v -4.848485 -7.757576 0
v -5.818182 -7.757576 0
v -5.818182 -6.787879 0
v -4.848485 -6.787879 0
v -8.727273 -7.757576 0
v -9.69697 -7.757576 0
v -9.69697 -6.787879 0
v -8.727273 -6.787879 0
v -9.69697 -7.757576 0
v -10.66667 -7.757576 0
v -10.66667 -6.787879 0
v -9.69697 -6.787879 0

# Texture cooridinates (Count = 8)
vt 0 0
vt 0.3333333 0
vt 0.3333333 1
vt 0 1
vt 0.6666667 0
vt 1 0
vt 1 1
vt 0.6666667 1

# Normal
vn 0 0 -1

# Mesh description
g Lab_mesh_0005

# Faces
f 1/1/1 2/2/1 3/3/1 4/4/1
f 5/5/1 6/6/1 7/7/1 8/8/1
f 9/1/1 10/2/1 11/3/1 12/4/1
f 13/5/1 14/6/1 15/7/1 16/8/1
f 17/1/1 18/2/1 19/3/1 20/4/1
f 21/5/1 22/6/1 23/7/1 24/8/1
f 25/1/1 26/2/1 27/3/1 28/4/1
f 29/5/1 30/6/1 31/7/1 32/8/1
f 33/1/1 34/2/1 35/3/1 36/4/1
f 37/5/1 38/6/1 39/7/1 40/8/1

